<ttFont>
          <CharString index="0">
            rmoveto
            -73 callgsubr
            43 -164 -37 callsubr
            17 hlineto
            25 12 7 10 4 -1 4 -2 5 hvcurveto
            -181 655 rlineto
            13 -3 -13 6 -24 hhcurveto
            -32 hlineto
            -23 -13 -6 -13 -4 hvcurveto
            -181 -655 rlineto
            -28 callsubr
            -10 11 -7 26 vhcurveto
            117 256 rmoveto
            71 274 5 19 3 23 4 19 rlinecurve
            5 hlineto
            3 -19 3 -23 5 -19 71 -274 rcurveline
            return
          </CharString>
          <CharString index="1">
            -1 4 3 -1 4 hhcurveto
            6 5 4 10 6 hvcurveto
            20 13 9 7 14 35 50 -40 45 hhcurveto
            36 26 18 50 20 40 callsubr
            -9 4 vhcurveto
            -7 3 rlineto
            2 -4 -3 1 -4 hhcurveto
            -6 -7 -17 callgsubr
            -13 -10 -6 -15 -35 -50 40 -42 hhcurveto
            -37 -26 -18 -51 -20 hvcurveto
            -2 -31 callsubr
            3 -4 7 -3 vhcurveto
            return
          </CharString>
          <CharString index="2">
            rmoveto
            -105 callgsubr
            return
          </CharString>
          <CharString index="3">
            -106 callgsubr
            endchar
          </CharString>
          <CharString index="4">
            288 hlineto
            14 5 9 21 hvcurveto
            16 -49 callgsubr
            -225 244 202 hlineto
            13 6 9 21 hvcurveto
            16 -16 callsubr
            -202 228 225 hlineto
            13 6 9 21 hvcurveto
            16 -16 callsubr
            -288 7 callgsubr
            -640 11 callgsubr
            return
          </CharString>
          <CharString index="5">
            -103 callsubr
            endchar
          </CharString>
          <CharString index="6">
            rmoveto
            -102 callsubr
          </CharString>
          <CharString index="7">
            rmoveto
            29 11 9 13 hvcurveto
            51 -43 callsubr
            -29 -11 -9 -13 vhcurveto
            -51 -75 callsubr
            126 hmoveto
            28 12 9 13 hvcurveto
            51 -53 callsubr
            -26 -29 -11 -9 -13 vhcurveto
            -51 -75 callsubr
            return
          </CharString>
          <CharString index="8">
            rmoveto
            50 46 28 47 30 hvcurveto
            -19 callsubr
            353 -60 callgsubr
            -366 vlineto
            -41 -21 -34 -29 -38 hhcurveto
            -47 -24 31 54 hvcurveto
            351 -60 callgsubr
            -364 vlineto
            -90 47 -55 83 vhcurveto
            return
          </CharString>
          <CharString index="9">
            rmoveto
            16 5 3 7 10 -11 21 -37 80 hvcurveto
            19 -10 -19 7 -28 hhcurveto
            -28 -14 -3 -10 -11 7 -9 72 -96 hvcurveto
            -12 8 15 -6 24 hhcurveto
            return
          </CharString>
          <CharString index="10">
            hlineto
            -26 -12 -8 -14 hvcurveto
            -488 vlineto
            -71 -55 -51 -78 -78 -56 50 72 vhcurveto
            488 -64 callsubr
            -485 vlineto
            -126 80 -75 144 return
          </CharString>
          <CharString index="11">
            rmoveto
            -12 hlineto
            -19 -15 -4 -12 -3 hvcurveto
            -73 -271 -6 -26 -6 -29 -6 -25 rlinecurve
            -6 hlineto
            -6 26 -6 27 -7 27 -74 271 rcurveline
            12 -3 -14 4 -19 hhcurveto
            -14 hlineto
            -27 -12 -6 -11 -4 1 -5 3 -9 hvcurveto
            131 -415 3 -9 6 -3 7 -1 rlinecurve
            -74 -237 rlineto
            -4 -13 0 -2 -2 vvcurveto
            -10 10 -6 22 vhcurveto
            21 hlineto
            20 15 6 15 5 hvcurveto
            196 677 rlineto
            3 10 22 callsubr
            -12 6 -26 vhcurveto
            return
          </CharString>
          <CharString index="12">
            rmoveto
            -4 hlineto
            -28 -12 -8 -14 hvcurveto
            -326 vlineto
            -42 -30 -41 -28 -43 hhcurveto
            -57 -34 32 54 hvcurveto
            310 -89 callsubr
            -318 vlineto
            -95 57 -56 95 49 49 20 44 39 vhcurveto
            -158 1 -31 -53 -90 -90 -56 33 -11 hhcurveto
            -3 -6 -6 -24 -4 0 -14 1 -7 hvcurveto
            -21 3 74 -29 100 hhcurveto
            134 58 65 217 hvcurveto
            406 -53 callsubr
            -28 vhcurveto
            return
          </CharString>
          <CharString index="13">
            -72 37 -45 30 65 vvcurveto
            73 55 34 59 35 34 -7 -12 24 vhcurveto
            -2 4 5 -3 4 hhcurveto
            13 15 46 15 3 0 5 -7 4 hvcurveto
            20 -34 -42 10 -46 hhcurveto
            -120 -87 -73 -123 -117 82 -42 87 -43 hvcurveto
            56 -28 47 -29 -69 vvcurveto
            -71 -49 -42 -67 -59 -47 17 26 -33 vhcurveto
            1 -2 -2 3 -5 hhcurveto
            -15 -8 -37 -20 -14 4 -4 7 -5 hvcurveto
            -30 42 53 -16 62 hhcurveto
            return
          </CharString>
          <CharString index="14">
            rmoveto
            35 hlineto
            18 15 4 12 3 hvcurveto
            61 295 5 25 7 37 3 27 rlinecurve
            4 hlineto
            3 -27 7 -37 5 -25 60 -295 rcurveline
            -12 2 15 -4 19 hhcurveto
            34 hlineto
            20 14 4 12 2 hvcurveto
            107 477 rlineto
            1 6 1 7 4 vvcurveto
            10 -12 7 -27 -27 -17 -4 -12 -2 vhcurveto
            -55 -319 -5 -29 -10 -44 -5 -32 rlinecurve
            -5 hlineto
            -4 31 -8 35 -8 40 -62 317 rcurveline
            13 -3 -13 4 -20 hhcurveto
            -19 hlineto
            -19 -13 -4 -13 -3 hvcurveto
            -61 -317 -6 -30 -10 -46 -4 -31 rlinecurve
            -5 hlineto
            -5 32 -10 48 -5 26 -56 319 rcurveline
            12 -2 -16 4 -28 hhcurveto
            -29 -12 -7 -10 -4 2 -10 1 -6 hvcurveto
            106 -474 rlineto
            -12 2 15 -4 19 hhcurveto
            endchar
          </CharString>
          <CharString index="15">
            rmoveto
            11 -18 callgsubr
            41 20 35 29 37 hhcurveto
            48 23 -33 -58 hvcurveto
            -345 vlineto
            -14 12 -8 27 vhcurveto
            10 7 callsubr
            353 vlineto
            97 -47 59 -83 -50 -46 -28 -47 -30 vhcurveto
            32 -6 -1 36 -25 hhcurveto
            -11 -47 -5 -18 hvcurveto
            -6 10 -38 -82 vvcurveto
            -353 -1 callgsubr
            return
          </CharString>
          <CharString index="16">
            585 -105 callsubr
            return
          </CharString>
          <CharString index="17">
            -89 callgsubr
            endchar
          </CharString>
          <CharString index="18">
            -53 callsubr
            -28 vhcurveto
            -4 hlineto
            -28 -12 -8 -14 hvcurveto
            return
          </CharString>
          <CharString index="19">
            389 hlineto
            13 6 10 24 hvcurveto
            8 vlineto
            24 -6 10 -13 vhcurveto
            -301 hlineto
            319 559 rlineto
            1 3 0 4 5 vvcurveto
            21 -13 32 -9 vhcurveto
            -366 hlineto
            -13 -5 -10 -24 hvcurveto
            -8 vlineto
            -24 5 -10 13 vhcurveto
            279 hlineto
            -321 -559 rlineto
            -1 -3 -1 -4 -5 vvcurveto
            -20 13 -33 11 vhcurveto
            return
          </CharString>
          <CharString index="20">
            rmoveto
            -85 callsubr
            2 -12 25 -20 -30 vvcurveto
            -15 -9 -18 -34 vhcurveto
            -29 -97 callsubr
            143 80 75 126 vhcurveto
            476 vlineto
            56 6 25 34 48 vvcurveto
            return
          </CharString>
          <CharString index="21">
            rmoveto
            85 69 57 92 84 -42 41 -77 35 hvcurveto
            -41 21 -34 26 50 vvcurveto
            40 31 21 37 vhcurveto
            42 27 -25 6 hhcurveto
            11 20 39 15 23 -57 20 -54 -84 -63 -57 -85 -75 39 -39 69 -31 hvcurveto
            55 -27 33 -28 -50 vvcurveto
            -49 -28 -24 -48 vhcurveto
            -56 -34 39 -8 hhcurveto
            -11 -23 -37 -14 -22 59 -40 77 hvcurveto
            return
          </CharString>
          <CharString index="22">
            29 -20 45 -23 -4 -4 -1 -3 -4 vhcurveto
            -24 -16 rlineto
            -6 -4 -3 -6 -6 vvcurveto
            return
          </CharString>
          <CharString index="23">
            17 callgsubr
            288 63 vlineto
            58 25 -21 -77 24 hvcurveto
            60 -196 rlineto
            -10 3 15 -6 19 hhcurveto
            17 hlineto
            27 12 6 10 3 -1 5 -2 6 hvcurveto
            -63 197 -22 65 -18 46 -29 14 rlinecurve
            4 vlineto
            55 28 37 55 86 vvcurveto
            126 -65 51 -130 vhcurveto
            -148 7 callgsubr
            -650 -75 callsubr
            51 386 rmoveto
            240 95 vlineto
            56 37 -36 -81 -66 -39 -57 -48 hvcurveto
            return
          </CharString>
          <CharString index="24">
            rmoveto
            46 41 11 10 20 hvcurveto
            20 10 4 11 12 vvcurveto
            18 -11 43 -26 -12 vhcurveto
            -13 -22 -31 -12 -41 hhcurveto
            -114 -53 88 191 192 54 85 114 39 28 -11 -10 20 hvcurveto
            23 -13 8 54 12 vvcurveto
            15 -4 7 -13 5 vhcurveto
            11 -25 -38 8 -38 hhcurveto
            -175 -86 -114 -242 -244 83 -112 177 hvcurveto
            endchar
          </CharString>
          <CharString index="25">
            -591 -106 callgsubr
            return
          </CharString>
          <CharString index="26">
            rmoveto
            42 67 21 111 hvcurveto
            583 -89 callsubr
            -575 vlineto
            -55 -18 -13 -20 vhcurveto
            -24 -5 5 -7 hhcurveto
            -14 -7 -39 -8 -27 44 -3 26 hvcurveto
            endchar
          </CharString>
          <CharString index="27">
            -90 callgsubr
            -660 -75 callsubr
            return
          </CharString>
          <CharString index="28">
            rmoveto
            27 57 60 96 17 -12 11 -23 hvcurveto
            -10 hlineto
            -26 -12 -13 -19 hvcurveto
            -76 -29 -38 -23 -2 callgsubr
            vhcurveto
            return
          </CharString>
          <CharString index="29">
            rmoveto
            22 14 7 11 6 hvcurveto
            39 78 15 30 7 vvcurveto
            10 -12 4 -28 -27 -25 -4 -22 -6 vhcurveto
            -20 -81 -5 -21 -9 -16 callgsubr
            -3 21 vhcurveto
            return
          </CharString>
          <CharString index="30">
            rmoveto
            -148 hlineto
            -14 13 callsubr
            14 vhcurveto
            85 -223 hlineto
            -8 -22 -30 -5 -37 hhcurveto
            -124 -39 130 153 172 45 102 125 hvcurveto
            76 37 -41 10 hhcurveto
            14 22 41 17 27 -84 35 -76 -171 -91 -113 -249 -238 87 -112 166 79 103 16 56 hvcurveto
            286 vlineto
            21 -9 9 -18 vhcurveto
            return
          </CharString>
          <CharString index="31">
            15 19 callgsubr
            660 -72 callsubr
            return
          </CharString>
          <CharString index="32">
            vlineto
            -71 callsubr
            return
          </CharString>
          <CharString index="33">
            585 -98 callgsubr
            return
          </CharString>
          <CharString index="34">
            hlineto
            27 11 8 14 hvcurveto
            return
          </CharString>
          <CharString index="35">
            -9 callgsubr
            -15 -80 callsubr
            return
          </CharString>
          <CharString index="36">
            -14 11 -8 27 vhcurveto
            return
          </CharString>
          <CharString index="37" raw="1">
            570a800a 0b  
          </CharString>
          <CharString index="38">
            rmoveto
            25 43 8 22 8 -7 39 -14 hvcurveto
            -7 -6 -5 -19 hhcurveto
            -20 -17 11 46 hvcurveto
            607 -89 callsubr
            -615 vlineto
            -102 65 -19 41 vhcurveto
            return
          </CharString>
          <CharString index="39">
            -3 callgsubr
            39 -74 rlineto
            -9 6 10 -4 10 -14 callgsubr
            -4 39 callgsubr
            -48 88 rlineto
            15 -8 -13 7 -20 hhcurveto
            -16 hlineto
            -18 -15 -7 -15 -8 -22 callsubr
            6 -6 13 vhcurveto
            return
          </CharString>
          <CharString index="40">
            204 -6 rmoveto
            45 43 24 51 31 hvcurveto
            -35 6 2 -17 callsubr
            5 17 hvcurveto
            7 -10 38 82 vvcurveto
            582 vlineto
            14 -12 34 callgsubr
            -26 -11 -8 -14 hvcurveto
            -252 vlineto
            29 -26 -30 22 -50 hhcurveto
            -98 -67 -96 -169 -160 61 -110 96 hvcurveto
            return
          </CharString>
          <CharString index="41">
            rmoveto
            50 34 33 51 51 -34 34 -50 -49 -34 -34 -51 -51 34 -33 49 hvcurveto
            35 vmoveto
            -30 -16 18 31 -1 hvcurveto
            31 1 16 19 30 hhcurveto
            30 17 -19 -31 -31 -17 -18 -30 hvcurveto
            return
          </CharString>
          <CharString index="42">
            -5 callsubr
            -41 -21 -34 -29 -38 hhcurveto
            -47 -24 31 54 hvcurveto
            351 -60 callgsubr
            -364 vlineto
            -90 47 -55 83 50 46 28 47 30 vhcurveto
            return
          </CharString>
          <CharString index="43">
            vlineto
            -74 callgsubr
            return
          </CharString>
          <CharString index="44">
            -753 -101 callsubr
          </CharString>
          <CharString index="45">
            111 -2 -99 callgsubr
            return
          </CharString>
          <CharString index="46">
            rmoveto
            -76 callsubr
            return
          </CharString>
          <CharString index="47">
            -582 -100 callgsubr
          </CharString>
          <CharString index="48">
            vlineto
            -21 6 -9 13 vhcurveto
            return
          </CharString>
          <CharString index="49">
            271 hlineto
            14 6 9 21 hvcurveto
            16 -21 callgsubr
            -208 604 -24 callsubr
            -650 11 callgsubr
            return
          </CharString>
          <CharString index="50">
            -61 callsubr
            endchar
          </CharString>
          <CharString index="51">
            rmoveto
            126 50 85 126 hvcurveto
            475 -53 callsubr
            -27 vhcurveto
            -14 hlineto
            -26 -12 -8 -14 hvcurveto
            -485 vlineto
            -86 -28 -37 -67 vhcurveto
            -26 -23 9 -8 hhcurveto
            -13 -10 -42 -13 -22 54 -10 36 hvcurveto
            endchar
          </CharString>
          <CharString index="52">
            -5 -1 -4 -4 vvcurveto
            return
          </CharString>
          <CharString index="53">
            -161 -89 -111 -243 -243 89 -115 161 hvcurveto
            1 76 rmoveto
            -103 -55 89 193 193 55 85 103 102 56 -85 -193 -193 -56 -89 -102 hvcurveto
            endchar
          </CharString>
          <CharString index="54">
            vlineto
            -2 callsubr
            return
          </CharString>
          <CharString index="55">
            9 21 hvcurveto
            return
          </CharString>
          <CharString index="56">
            rmoveto
            59 49 23 36 33 hvcurveto
            -40 34 51 -19 68 hhcurveto
            40 callgsubr
            -32 -42 -75 hhcurveto
            -80 -32 52 115 -6 hvcurveto
            248 hlineto
            12 21 29 12 166 -59 89 -115 -52 -41 -15 -29 -32 hvcurveto
            28 -28 -43 16 -54 hhcurveto
            -83 -76 -32 -26 -11 20 -37 14 hvcurveto
            11 41 34 72 hhcurveto
            46 22 -23 -30 8 hvcurveto
            -9 -23 -6 -26 -3 -30 rrcurveto
            -115 -5 -123 -27 -143 vvcurveto
            -102 61 -54 88 vhcurveto
            175 311 rmoveto
            101 5 34 51 65 hhcurveto
            58 30 -51 -101 hvcurveto
            -358 -232 rmoveto
            -47 -23 28 51 81 74 16 72 3 hvcurveto
            1 -53 6 -46 14 -37 rrcurveto
            -28 -25 -33 -15 -39 hhcurveto
            endchar
          </CharString>
          <CharString index="57">
            17 callgsubr
            604 142 vlineto
            14 6 9 21 hvcurveto
            16 -21 callgsubr
            -376 hlineto
            35 callgsubr
            144 -604 hlineto
            -71 callsubr
            return
          </CharString>
          <CharString index="58">
            rmoveto
            201 hlineto
            8 3 5 12 hvcurveto
            7 vlineto
            12 -3 5 -8 vhcurveto
            -149 hlineto
            78 116 rlineto
            66 87 14 24 42 vvcurveto
            60 -46 37 -66 -41 -58 -21 -22 -9 13 -20 6 vhcurveto
            9 20 30 49 hhcurveto
            40 25 -22 -37 -24 -8 -15 -27 -39 hvcurveto
            -135 -193 rlineto
            -2 -2 0 -4 -4 vvcurveto
            -11 4 -14 7 vhcurveto
            return
          </CharString>
          <CharString index="59">
            rmoveto
            40 65 rlineto
            3 5 1 4 3 vvcurveto
            11 -14 8 -9 -4 -6 -2 -9 -5 vhcurveto
            -33 -54 rlineto
            37 -41 -53 18 -65 hhcurveto
            -161 -89 -111 -243 -118 21 -88 40 -59 hvcurveto
            -44 -72 rlineto
            -4 -5 -1 -5 -4 vvcurveto
            -9 14 -10 9 6 5 5 7 4 vhcurveto
            37 61 rlineto
            -41 41 55 -20 67 hhcurveto
            162 89 115 243 122 -22 88 -43 58 hvcurveto
            -343 -268 rmoveto
            193 55 85 103 47 37 -18 -38 26 vhcurveto
            -245 -398 rlineto
            -15 44 -8 59 73 vvcurveto
            158 -282 rmoveto
            -50 -38 21 43 -27 hvcurveto
            247 400 rlineto
            17 -45 9 -60 -77 vvcurveto
            -193 -56 -89 -102 vhcurveto
            endchar
          </CharString>
          <CharString index="60">
            rmoveto
            32 47 rlineto
            4 6 2 3 4 vvcurveto
            10 -18 11 -8 -5 -4 -3 -5 -4 vhcurveto
            -26 -38 rlineto
            31 -31 -41 16 -51 hhcurveto
            -125 -68 -97 -173 -76 13 -61 26 -44 hvcurveto
            -34 -50 rlineto
            -4 -6 -2 -3 -4 vvcurveto
            -10 17 -11 9 5 5 2 6 3 vhcurveto
            28 40 rlineto
            -31 31 43 -17 53 hhcurveto
            125 65 92 173 79 -14 63 -26 46 hvcurveto
            -254 -186 rmoveto
            134 31 62 71 34 26 -15 -30 17 vhcurveto
            -171 -249 rlineto
            -5 26 -3 33 39 vvcurveto
            102 -195 rmoveto
            -35 -26 15 32 -16 hvcurveto
            172 251 rlineto
            6 -28 3 -34 -41 vvcurveto
            -133 -33 -62 -71 vhcurveto
            endchar
          </CharString>
          <CharString index="61">
            -44 141 576 -107 callgsubr
            115 -582 -102 callgsubr
            return
          </CharString>
          <CharString index="62">
            85 66 40 24 11 -21 39 -14 hvcurveto
            return
          </CharString>
          <CharString index="63">
            -7 callgsubr
            12 -21 callgsubr
            return
          </CharString>
          <CharString index="64">
            -39 callsubr
            -27 return
          </CharString>
          <CharString index="65">
            174 381 rmoveto
            57 68 27 134 135 -67 29 -58 -60 -65 -29 -135 -134 68 -27 57 hvcurveto
            7 -388 rmoveto
            16 hlineto
            16 11 5 14 6 hvcurveto
            294 675 rlineto
            1 4 2 3 3 vvcurveto
            5 -6 4 -12 vhcurveto
            -15 hlineto
            -16 -12 -5 -14 -5 hvcurveto
            -293 -671 rlineto
            -4 -8 -1 -3 -3 vvcurveto
            -5 7 -4 11 vhcurveto
            -6 444 rmoveto
            -53 -7 59 46 46 6 63 54 54 6 -63 -46 -46 -8 -59 -52 hvcurveto
            337 -442 rmoveto
            57 68 27 134 135 -68 29 -57 -60 -65 -29 -135 -134 68 -27 57 hvcurveto
            return
          </CharString>
          <CharString index="66">
            54 hmoveto
            193 19 callsubr
            4 vlineto
            10 -1 6 -7 3 vhcurveto
            -77 28 -40 94 177 vvcurveto
            184 55 94 103 103 55 -94 -184 -177 -40 -95 -77 -27 vhcurveto
            -7 -3 -1 -6 -10 vvcurveto
            -4 15 callgsubr
            192 -12 callgsubr
            8 vlineto
            21 -5 9 -14 -21 -41 -3 -1 -11 vhcurveto
            53 62 26 96 130 vvcurveto
            234 -89 120 -162 -162 -88 -120 -234 -130 26 -96 52 -62 vhcurveto
            1 -11 -41 3 -21 hhcurveto
            18 callgsubr
            endchar
          </CharString>
          <CharString index="67">
            14 12 13 17 17 -12 -46 callgsubr
            return
          </CharString>
          <CharString index="68">
            vlineto
            14 -11 8 return
          </CharString>
          <CharString index="69">
            13 26 15 15 6 -3 7 -4 6 hvcurveto
            -92 147 92 146 rlineto
            4 7 3 7 6 vvcurveto
            17 -27 13 -12 -7 -7 -3 -9 -6 vhcurveto
            -103 -156 rlineto
            -7 -11 -4 -8 -9 vvcurveto
            -9 4 -8 7 -11 vhcurveto
            103 -156 rlineto
            -9 6 7 -3 7 hhcurveto
            return
          </CharString>
          <CharString index="70">
            rlineto
            -12 3 14 -4 19 hhcurveto
            return
          </CharString>
          <CharString index="71">
            rmoveto
            -61 callgsubr
            return
          </CharString>
          <CharString index="72">
            11 vvcurveto
            10 -14 3 -28 -28 -19 -7 -19 -9 vhcurveto
            -37 -80 -12 -78 callgsubr
            return
          </CharString>
          <CharString index="73">
            6 1 4 4 vvcurveto
            return
          </CharString>
          <CharString index="74">
            -52 callgsubr
            -12 vlineto
            -21 6 -9 return
          </CharString>
          <CharString index="75">
            22 callgsubr
            3 hhcurveto
            6 4 4 10 6 hvcurveto
            20 return
          </CharString>
          <CharString index="76">
            -55 callsubr
            -5 return
          </CharString>
          <CharString index="77">
            -46 420 28 rmoveto
            -155 243 145 220 rlineto
            5 8 3 7 6 vvcurveto
            7 -10 6 -23 vhcurveto
            -20 hlineto
            -19 -17 -2 -12 -7 hvcurveto
            -145 -228 rlineto
            -5 447 33 callgsubr
            -710 16 callgsubr
            238 6 vlineto
            156 -247 rlineto
            -13 8 6 0 20 hhcurveto
            20 hlineto
            27 12 3 11 4 -2 4 -5 8 hvcurveto
            return
          </CharString>
          <CharString index="78">
            79 273 700 rmoveto
            -168 7 callgsubr
            -274 -49 vlineto
            35 callgsubr
            49 -290 hlineto
            -21 8 -9 19 vhcurveto
            168 hlineto
            148 103 90 260 259 -103 91 -148 hvcurveto
            -2 -624 rmoveto
            -102 244 71 hlineto
            13 6 9 21 hvcurveto
            16 -16 callsubr
            -71 228 102 hlineto
            94 67 -75 -199 -200 -67 -74 -94 hvcurveto
            endchar
          </CharString>
          <CharString index="79">
            -1 -55 callsubr
            return
          </CharString>
          <CharString index="80">
            12 8 14 hvcurveto
            return
          </CharString>
          <CharString index="81">
            rmoveto
            -2 3 3 0 2 hhcurveto
            6 4 4 10 6 hvcurveto
            22 11 11 8 12 45 74 -43 52 hhcurveto
            38 26 18 50 14 hvcurveto
            2 -34 callsubr
            6 -3 2 -9 4 vhcurveto
            -6 3 rlineto
            2 -3 -3 1 -3 hhcurveto
            -5 -6 -5 -10 -5 hvcurveto
            -21 -12 -11 -8 -13 -45 -74 43 -50 hhcurveto
            -38 -26 -18 -51 -15 hvcurveto
            -1 -31 callsubr
            4 -3 7 -4 vhcurveto
            return
          </CharString>
          <CharString index="82">
            6 -52 callsubr
            return
          </CharString>
          <CharString index="83">
            hlineto
            -74 callgsubr
            return
          </CharString>
          <CharString index="84">
            vlineto
            21 -6 9 return
          </CharString>
          <CharString index="85">
            38 callsubr
            -3 -6 -2 -8 -5 vvcurveto
            -7 return
          </CharString>
          <CharString index="86">
            103 116 -2 rmoveto
            15 19 callgsubr
            301 263 -301 vlineto
            3 callgsubr
            660 -64 callsubr
            -283 -263 283 -72 callsubr
            return
          </CharString>
          <CharString index="87">
            5 callsubr
            141 hmoveto
            -54 callgsubr
            endchar
          </CharString>
          <CharString index="88">
            -33 6 1 -17 callsubr
            4 18 hvcurveto
            6 -10 39 82 vvcurveto
            return
          </CharString>
          <CharString index="89">
            -9 -17 -7 -14 hhcurveto
            -22 -28 5 38 return
          </CharString>
          <CharString index="90">
            -35 25 hhcurveto
            11 47 return
          </CharString>
          <CharString index="91">
            -23 callsubr
            -13 vhcurveto
            return
          </CharString>
          <CharString index="92">
            8 10 vvcurveto
            10 -9 3 -22 -24 -21 -7 -19 -9 vhcurveto
            -34 -73 -8 -19 -9 vvcurveto
            -7 7 -3 16 vhcurveto
            return
          </CharString>
          <CharString index="93">
            94 296 -5 rmoveto
            159 128 130 229 229 -128 127 -159 -159 -128 -127 -229 -229 128 -130 159 hvcurveto
            48 vmoveto
            -130 -107 110 201 202 107 106 130 130 107 -106 -202 -201 -107 -110 -130 hvcurveto
            return
          </CharString>
          <CharString index="94">
            rmoveto
            14 11 13 17 17 -11 -46 callgsubr
            return
          </CharString>
          <CharString index="95">
            -51 vlineto
            -14 return
          </CharString>
          <CharString index="96" raw="1">
            9b07a00b   
          </CharString>
          <CharString index="97">
            9 hlineto
            27 13 13 19 62 11 47 23 44 hvcurveto
            4 8 5 10 6 vvcurveto
            12 -18 3 -11 -33 -70 -76 -120 -17 15 -11 25 vhcurveto
            return
          </CharString>
          <CharString index="98">
            14 -1 callsubr
            return
          </CharString>
          <CharString index="99">
            13 -25 callsubr
            return
          </CharString>
          <CharString index="100">
            79 -6 callsubr
            return
          </CharString>
          <CharString index="101">
            105 hmoveto
            -59 callgsubr
            return
          </CharString>
          <CharString index="102">
            -90 callgsubr
            -366 vlineto
            return
          </CharString>
          <CharString index="103">
            -31 62 133 return
          </CharString>
          <CharString index="104">
            10 -73 callsubr
            return
          </CharString>
          <CharString index="105">
            14 -12 8 return
          </CharString>
          <CharString index="106">
            5 -52 callsubr
            return
          </CharString>
          <CharString index="107">
            12 -73 callsubr
            return
          </CharString>
          <CharString index="108">
            101 293 -94 callgsubr
            return
          </CharString>
          <CharString index="109">
            -75 callsubr
            133 276 rmoveto
            -33 -29 15 30 -23 hvcurveto
            274 vlineto
            44 26 34 25 33 hhcurveto
            59 30 -74 -124 -124 -32 -66 -65 hvcurveto
            endchar
          </CharString>
          <CharString index="110">
            -242 49 230 rmoveto
            156 6 callsubr
            -156 4 callgsubr
          </CharString>
          <CharString index="111">
            rmoveto
            30 63 76 120 17 -13 11 -25 hvcurveto
            -10 hlineto
            -26 -12 -13 -19 -62 -13 -47 -15 -44 hvcurveto
            -3 -9 -4 -9 -6 -2 callgsubr
            vhcurveto
            endchar
          </CharString>
          <CharString index="112">
            rmoveto
            -54 callgsubr
            return
          </CharString>
          <CharString index="113">
            19 callsubr
            10 -16 callsubr
            return
          </CharString>
          <CharString index="114">
            hlineto
            26 -27 callsubr
            return
          </CharString>
          <CharString index="115">
            11 19 callgsubr
            return
          </CharString>
          <CharString index="116">
            -14 -7 29 callgsubr
            7 -9 14 vhcurveto
            return
          </CharString>
          <CharString index="117">
            14 -11 8 -26 vhcurveto
            -11 -90 callgsubr
            return
          </CharString>
          <CharString index="118">
            vlineto
            -27 callgsubr
            return
          </CharString>
          <CharString index="119">
            16 8 10 20 hvcurveto
            13 vlineto
            20 -8 10 -16 vhcurveto
            -330 30 callsubr
            -13 vlineto
            -20 8 -10 16 vhcurveto
            endchar
          </CharString>
          <CharString index="120">
            -52 callgsubr
            14 callgsubr
            return
          </CharString>
          <CharString index="121">
            rmoveto
            71 274 5 19 3 23 4 19 rlinecurve
            5 hlineto
            3 -19 3 -23 5 -19 71 -274 rcurveline
            endchar
          </CharString>
          <CharString index="122">
            vlineto
            14 -7 8 -20 vhcurveto
            -9 hlineto
            -19 -8 -8 -14 hvcurveto
            return
          </CharString>
          <CharString index="123">
            hlineto
            -44 callsubr
            return
          </CharString>
          <CharString index="124">
            23 43 4 25 10 -7 38 -14 return
          </CharString>
          <CharString index="125">
            -2 17 callgsubr
            return
          </CharString>
          <CharString index="126">
            hlineto
            -8 callsubr
            return
          </CharString>
          <CharString index="127">
            rlineto
            -12 -7 -7 -9 -14 vvcurveto
            -6 vlineto
            -9 4 -5 5 2 4 2 2 4 vhcurveto
            return
          </CharString>
          <CharString index="128">
            14 -9 8 -21 vhcurveto
            return
          </CharString>
          <CharString index="129">
            1 4 4 vvcurveto
            11 return
          </CharString>
          <CharString index="130">
            rmoveto
            59 30 -53 -105 hvcurveto
            -193 hlineto
            105 5 34 53 65 hhcurveto
            endchar
          </CharString>
          <CharString index="131">
            -2 -5 -5 -3 -6 return
          </CharString>
          <CharString index="132">
            10 hlineto
            26 12 13 19 hvcurveto
            76 29 38 23 vvcurveto
            12 -17 3 -11 return
          </CharString>
          <CharString index="133">
            -11 14 -8 vhcurveto
            266 -144 -266 -145 rlineto
            -14 -8 return
          </CharString>
          <CharString index="134">
            -6 -8 -21 hvcurveto
            -4 vlineto
            -21 6 -8 return
          </CharString>
          <CharString index="135">
            -2 rmoveto
            4 hlineto
            28 -27 callsubr
            return
          </CharString>
          <CharString index="136">
            hlineto
            -7 callgsubr
            return
          </CharString>
          <CharString index="137">
            hlineto
            -16 -8 -10 -20 hvcurveto
            return
          </CharString>
          <CharString index="138">
            hlineto
            14 6 8 21 hvcurveto
            4 vlineto
            21 -6 8 -14 vhcurveto
            return
          </CharString>
          <CharString index="139">
            -70 212 -140 rmoveto
            6 hlineto
            24 10 8 14 hvcurveto
            return
          </CharString>
          <CharString index="140">
            hlineto
            16 7 11 19 hvcurveto
            8 vlineto
            20 -7 10 -16 vhcurveto
            return
          </CharString>
          <CharString index="141">
            -19 hhcurveto
            -16 hlineto
            -19 return
          </CharString>
          <CharString index="142">
            51 vlineto
            14 -14 8 -30 return
          </CharString>
          <CharString index="143">
            -13 -10 16 -23 8 vhcurveto
            return
          </CharString>
          <CharString index="144">
            -14 -52 callgsubr
            return
          </CharString>
          <CharString index="145">
            hvcurveto
            -48 -88 rlineto
            return
          </CharString>
          <CharString index="146">
            -8 -14 -1 hvcurveto
            return
          </CharString>
          <CharString index="147">
            hvcurveto
            3 -34 callsubr
            6 -3 2 return
          </CharString>
          <CharString index="148">
            14 -19 37 -14 return
          </CharString>
        <CharString name=".notdef">
          16 7 hmoveto
          500 700 -500 hlineto
          250 -305 rmoveto
          -171 255 rlineto
          340 hlineto
          -370 -555 rmoveto
          510 vlineto
          171 -255 rlineto
          229 -255 rmoveto
          -169 255 169 255 rlineto
          -369 -555 rmoveto
          169 255 171 -255 rlineto
          endchar
        </CharString>
        <CharString name="A">
          7 50 -2 -107 callsubr
          endchar
        </CharString>
        <CharString name="AE">
          248 39 -2 -43 callgsubr
        </CharString>
        <CharString name="AEacute">
          248 380 -94 callgsubr
          -341 -764 -43 callgsubr
        </CharString>
        <CharString name="Aacute">
          7 246 -94 callgsubr
          -196 -764 -107 callsubr
          endchar
        </CharString>
        <CharString name="Abreve">
          7 253 762 -98 callgsubr
          -203 -764 -107 callsubr
          endchar
        </CharString>
        <CharString name="Acircumflex">
          7 163 753 -107 callgsubr
          -113 -755 -107 callsubr
          endchar
        </CharString>
        <CharString name="Adieresis">
          7 190 784 -100 callsubr
          -266 -786 -107 callsubr
          endchar
        </CharString>
        <CharString name="Agrave">
          7 277 762 -98 callsubr
          -227 -764 -107 callsubr
          endchar
        </CharString>
        <CharString name="Amacron">
          7 157 789 -81 callgsubr
          -107 -791 -107 callsubr
          endchar
        </CharString>
        <CharString name="Aogonek">
          7 515 -103 rmoveto
          -18 callsubr
          16 5 24 12 25 hvcurveto
          13 hlineto
          25 12 7 10 4 -1 4 -2 5 hvcurveto
          -181 655 rlineto
          13 -3 -13 6 -24 hhcurveto
          -32 hlineto
          -23 -13 -6 -13 -4 hvcurveto
          -181 -655 rlineto
          -28 callsubr
          -10 11 -7 26 vhcurveto
          -73 callgsubr
          41 -158 rlineto
          -28 -37 -8 -43 -25 -56 callgsubr
          -348 357 14 callsubr
        </CharString>
        <CharString name="Aring">
          7 251 741 -66 callsubr
          -201 -778 -107 callsubr
          endchar
        </CharString>
        <CharString name="Aringacute">
          7 250 871 rmoveto
          17 10 6 12 9 hvcurveto
          60 88 8 -15 callsubr
          239 -843 rmoveto
          -181 655 -1 3 -1 3 -2 2 rlinecurve
          21 14 12 24 31 vvcurveto
          51 -34 34 -50 -49 -34 -34 -51 -30 12 -24 19 -14 vhcurveto
          -2 -3 -2 -3 -1 -3 -181 -655 rcurveline
          -28 callsubr
          -10 11 -7 26 vhcurveto
          -73 callgsubr
          43 -164 -37 callsubr
          17 hlineto
          25 12 7 10 4 -1 4 -2 5 hvcurveto
          -236 782 rmoveto
          30 17 -19 -31 -31 -17 -18 -30 -30 -16 18 31 -1 hvcurveto
          31 1 16 19 30 hhcurveto
          -86 -556 14 callsubr
        </CharString>
        <CharString name="Atilde">
          7 126 769 rmoveto
          -106 callsubr
          -66 -775 -107 callsubr
          endchar
        </CharString>
        <CharString name="B">
          41 106 hmoveto
          173 hlineto
          139 74 62 139 125 -91 33 -23 8 hvcurveto
          4 vlineto
          47 16 43 69 67 vvcurveto
          105 -60 72 -129 vhcurveto
          -173 hlineto
          -20 -8 -9 -21 hvcurveto
          -640 vlineto
          -21 8 -9 20 vhcurveto
          62 398 rmoveto
          226 102 vlineto
          72 33 -35 -74 -65 -41 -52 -62 hvcurveto
          -104 -322 rmoveto
          246 115 vlineto
          76 41 -44 -73 -79 -38 -50 -65 hvcurveto
          endchar
        </CharString>
        <CharString name="C">
          -39 309 -6 -83 callsubr
        </CharString>
        <CharString name="CR">
          -258 endchar
        </CharString>
        <CharString name="Cacute">
          -39 290 -94 callgsubr
          19 -768 -83 callsubr
        </CharString>
        <CharString name="Cacute.loclPLK">
          -39 290 762 -78 callsubr
          19 -768 -83 callsubr
        </CharString>
        <CharString name="Ccaron">
          -39 290 760 -103 callgsubr
          19 -766 -83 callsubr
        </CharString>
        <CharString name="Ccedilla">
          -39 403 97 rmoveto
          -13 -22 -31 -12 -41 hhcurveto
          -114 -53 88 191 192 54 85 114 39 28 -11 -10 20 hvcurveto
          23 -13 8 54 12 vvcurveto
          15 -4 7 -13 5 vhcurveto
          11 -25 -38 8 -38 hhcurveto
          -175 -86 -114 -242 -232 75 -113 159 -10 hvcurveto
          -20 -59 -44 callgsubr
          15 54 40 2 34 10 18 9 rlinecurve
          20 10 4 11 12 vvcurveto
          18 -11 43 -26 -12 vhcurveto
          endchar
        </CharString>
        <CharString name="Ccircumflex">
          -39 207 753 -107 callgsubr
          102 -759 -83 callsubr
        </CharString>
        <CharString name="Cdotaccent">
          -39 297 784 -104 callgsubr
          12 -790 -83 callsubr
        </CharString>
        <CharString name="D">
          -7 callsubr
          endchar
        </CharString>
        <CharString name="Dcaron">
          79 265 760 -103 callgsubr
          -160 -760 rmoveto
          -59 callgsubr
          endchar
        </CharString>
        <CharString name="Dcroat">
          -29 callsubr
        </CharString>
        <CharString name="E">
          -41 105 hmoveto
          -102 callsubr
        </CharString>
        <CharString name="Eacute">
          -41 238 -94 callgsubr
          -133 -762 -101 callsubr
        </CharString>
        <CharString name="Ebreve">
          -41 245 762 -98 callgsubr
          -140 -762 -101 callsubr
        </CharString>
        <CharString name="Ecaron">
          -41 238 760 -103 callgsubr
          -133 -760 -101 callsubr
        </CharString>
        <CharString name="Ecircumflex">
          -47 callgsubr
          endchar
        </CharString>
        <CharString name="Edieresis">
          -41 182 784 -100 callsubr
          -203 -784 -101 callsubr
        </CharString>
        <CharString name="Edotaccent">
          -41 245 784 -104 callgsubr
          -140 -784 -101 callsubr
        </CharString>
        <CharString name="Egrave">
          -41 269 762 -98 callsubr
          -164 -762 -101 callsubr
        </CharString>
        <CharString name="Emacron">
          -41 149 789 -81 callgsubr
          -44 -789 -101 callsubr
        </CharString>
        <CharString name="Eng">
          92 479 702 rmoveto
          -12 -90 callgsubr
          -440 vlineto
          -22 3 -22 5 -22 vhcurveto
          -5 -2 -7 21 -8 21 -11 21 rlinecurve
          -232 447 rlineto
          15 -8 -12 5 -19 hhcurveto
          -24 -80 callsubr
          0 callsubr
          450 vlineto
          22 -3 22 -5 22 vhcurveto
          5 2 7 -21 8 -21 11 -21 rlinecurve
          249 -484 rlineto
          -63 vlineto
          -55 -18 -13 -20 vhcurveto
          -24 -5 5 -7 hhcurveto
          -14 -7 -39 -8 -27 44 -3 26 42 67 21 111 hvcurveto
          760 -53 callsubr
          -26 vhcurveto
          endchar
        </CharString>
        <CharString name="Eogonek">
          -41 474 -107 rmoveto
          -18 callsubr
          20 8 31 18 30 hvcurveto
          -1 hlineto
          2 5 1 7 8 vvcurveto
          16 -49 callgsubr
          -225 244 202 hlineto
          13 6 9 21 hvcurveto
          16 -16 callsubr
          -202 228 225 hlineto
          13 6 9 21 hvcurveto
          16 -16 callsubr
          -288 7 callgsubr
          -640 11 callgsubr
          243 hlineto
          -19 -33 -6 -35 -21 -56 callgsubr
          endchar
        </CharString>
        <CharString name="Eth">
          -29 callsubr
        </CharString>
        <CharString name="Euro">
          5 311 -6 rmoveto
          88 74 45 27 14 -19 38 -16 hvcurveto
          -12 -41 -47 -77 hhcurveto
          -75 -53 50 115 -18 hvcurveto
          230 29 callsubr
          7 -21 callgsubr
          -236 hlineto
          -1 15 0 16 17 vvcurveto
          15 0 16 1 14 vhcurveto
          236 29 callsubr
          7 -21 callgsubr
          -230 hlineto
          117 18 51 49 80 70 35 -41 12 hhcurveto
          16 19 38 17 25 -72 38 -79 -134 -85 -78 -165 -22 hvcurveto
          -46 30 callgsubr
          -7 15 callgsubr
          39 hlineto
          -1 -15 0 -15 -16 vvcurveto
          -16 0 -16 1 -15 vhcurveto
          -39 30 callgsubr
          -7 15 callgsubr
          45 hlineto
          -165 22 80 -77 139 hhcurveto
          endchar
        </CharString>
        <CharString name="F">
          -75 116 18 callsubr
          300 180 vlineto
          13 6 9 21 hvcurveto
          16 -16 callsubr
          -180 228 197 hlineto
          13 6 9 21 hvcurveto
          16 -16 callsubr
          -260 7 callgsubr
          -650 -75 callsubr
          endchar
        </CharString>
        <CharString name="G">
          54 457 382 -77 callsubr
          endchar
        </CharString>
        <CharString name="Gbreve">
          54 292 762 -98 callgsubr
          165 -380 -77 callsubr
          endchar
        </CharString>
        <CharString name="Gcircumflex">
          54 202 753 -107 callgsubr
          255 -371 -77 callsubr
          endchar
        </CharString>
        <CharString name="Gcommaaccent">
          54 457 382 -77 callsubr
          -141 -433 rmoveto
          -10 hlineto
          -26 -12 -13 -19 hvcurveto
          -76 -29 -38 -23 -2 callgsubr
          27 57 60 96 17 -12 11 -23 vhcurveto
          endchar
        </CharString>
        <CharString name="Gdotaccent">
          54 292 784 -104 callgsubr
          165 -402 -77 callsubr
          endchar
        </CharString>
        <CharString name="H">
          -21 callsubr
          endchar
        </CharString>
        <CharString name="Hbar">
          88 530 561 rmoveto
          -9 119 -24 callsubr
          -119 -263 119 -9 callgsubr
          -15 -90 callgsubr
          -119 -24 vlineto
          -14 -5 29 callgsubr
          5 -9 14 vhcurveto
          24 -471 hlineto
          -71 callsubr
          15 19 callgsubr
          301 263 -301 vlineto
          3 callgsubr
          471 9 vlineto
          -8 callsubr
          10 -16 callsubr
          -99 -164 rmoveto
          -263 94 263 hlineto
          endchar
        </CharString>
        <CharString name="Hcircumflex">
          103 210 753 -107 callgsubr
          -94 -755 rmoveto
          15 19 callgsubr
          301 263 -301 vlineto
          3 callgsubr
          660 -64 callsubr
          -283 -263 283 -72 callsubr
          endchar
        </CharString>
        <CharString name="I">
          -236 124 -2 -57 callsubr
        </CharString>
        <CharString name="IJ">
          119 124 -2 -61 callsubr
          237 -4 -56 callsubr
        </CharString>
        <CharString name="Iacute">
          -236 124 -94 callgsubr
          -764 vmoveto
          -76 callsubr
          endchar
        </CharString>
        <CharString name="Iacute_J.loclNLD">
          119 124 -94 callgsubr
          359 hmoveto
          -105 callgsubr
          -359 -764 -61 callsubr
          237 -4 -56 callsubr
        </CharString>
        <CharString name="Ibreve">
          -236 131 762 -98 callgsubr
          -7 -764 -57 callsubr
        </CharString>
        <CharString name="Icircumflex">
          -236 41 753 -107 callgsubr
          83 -755 -57 callsubr
        </CharString>
        <CharString name="Idieresis">
          -236 68 784 -100 callsubr
          -70 -786 -57 callsubr
        </CharString>
        <CharString name="Idotaccent">
          -236 131 784 -104 callgsubr
          -7 -786 -57 callsubr
        </CharString>
        <CharString name="Igrave">
          -236 155 762 -98 callsubr
          -31 -764 -57 callsubr
        </CharString>
        <CharString name="Imacron">
          -236 35 789 -81 callgsubr
          89 -791 -57 callsubr
        </CharString>
        <CharString name="Iogonek">
          -236 238 -106 rmoveto
          -18 callsubr
          19 8 30 17 30 hvcurveto
          2 3 1 4 4 vvcurveto
          660 -9 callgsubr
          -15 -90 callgsubr
          -660 vlineto
          -12 7 -7 18 -2 vhcurveto
          -18 -32 -6 -34 -21 -56 callgsubr
          endchar
        </CharString>
        <CharString name="Itilde">
          -236 4 769 rmoveto
          -106 callsubr
          130 -775 -57 callsubr
        </CharString>
        <CharString name="J">
          -143 99 -6 -56 callsubr
        </CharString>
        <CharString name="Jcircumflex">
          -143 138 753 -107 callgsubr
          -39 -759 -56 callsubr
        </CharString>
        <CharString name="K">
          -30 callgsubr
          endchar
        </CharString>
        <CharString name="Kcommaaccent">
          -30 callgsubr
          -281 -263 -79 callsubr
          endchar
        </CharString>
        <CharString name="L">
          -90 105 hmoveto
          -58 callsubr
          endchar
        </CharString>
        <CharString name="Lacute">
          -90 118 764 -105 callsubr
          -13 -764 rmoveto
          -58 callsubr
          endchar
        </CharString>
        <CharString name="Lcaron">
          -90 105 hmoveto
          -58 callsubr
          170 526 -34 callgsubr
          endchar
        </CharString>
        <CharString name="Lcommaaccent">
          -90 105 hmoveto
          -58 callsubr
          87 -235 -79 callsubr
          endchar
        </CharString>
        <CharString name="Ldot">
          -90 105 hmoveto
          -58 callsubr
          185 309 5 callgsubr
        </CharString>
        <CharString name="Lslash">
          -90 376 76 rmoveto
          -208 312 hlineto
          92 55 21 callgsubr
          -92 -55 rlineto
          246 -64 callsubr
          -299 vlineto
          -45 -27 20 callsubr
          45 27 rlineto
          -305 11 callgsubr
          271 hlineto
          14 6 9 21 hvcurveto
          16 -21 callgsubr
          endchar
        </CharString>
        <CharString name="M">
          191 329 239 rmoveto
          34 hlineto
          11 7 4 9 4 hvcurveto
          117 230 11 22 10 24 9 23 rlinecurve
          4 -2 rlineto
          -3 -24 -2 -23 -24 vvcurveto
          -458 -75 callsubr
          0 callsubr
          660 -55 callgsubr
          -21 hlineto
          -20 -12 -6 -12 -6 hvcurveto
          -160 -313 -8 -16 -5 -16 -3 -16 rlinecurve
          -3 16 -5 16 -8 16 -160 313 rcurveline
          12 -6 -12 6 -20 hhcurveto
          -21 -80 callsubr
          0 callsubr
          458 vlineto
          24 -2 23 -3 24 vhcurveto
          4 2 9 -23 10 -24 11 -22 rlinecurve
          117 -230 rlineto
          -9 4 7 -4 11 hhcurveto
          endchar
        </CharString>
        <CharString name="N">
          92 -62 callsubr
          endchar
        </CharString>
        <CharString name="Nacute">
          92 288 -94 callgsubr
          -177 -764 -99 callgsubr
          endchar
        </CharString>
        <CharString name="Nacute.loclPLK">
          92 288 762 -78 callsubr
          -177 -764 -99 callgsubr
          endchar
        </CharString>
        <CharString name="Ncaron">
          92 288 760 -103 callgsubr
          -177 -762 -99 callgsubr
          endchar
        </CharString>
        <CharString name="Ncommaaccent">
          92 -62 callsubr
          140 -233 -79 callsubr
          endchar
        </CharString>
        <CharString name="Ntilde">
          92 168 769 rmoveto
          -106 callsubr
          -47 -775 -99 callgsubr
          endchar
        </CharString>
        <CharString name="O">
          101 299 -6 -101 callgsubr
          endchar
        </CharString>
        <CharString name="OE">
          325 767 76 rmoveto
          -224 244 200 hlineto
          13 6 9 21 hvcurveto
          16 -16 callsubr
          -200 228 223 hlineto
          13 6 9 21 hvcurveto
          16 -16 callsubr
          -286 7 callgsubr
          -38 vlineto
          53 -41 -53 21 -68 hhcurveto
          -151 -91 -103 -250 -252 92 -107 147 70 53 24 52 42 hvcurveto
          -40 11 callgsubr
          287 hlineto
          13 6 9 21 hvcurveto
          16 -16 callsubr
          -473 -6 rmoveto
          -99 -53 87 195 201 53 77 99 103 55 -77 -201 -195 -55 -87 -103 hvcurveto
          endchar
        </CharString>
        <CharString name="Oacute">
          1 callsubr
          6 -768 -101 callgsubr
          endchar
        </CharString>
        <CharString name="Oacute.loclPLK">
          101 293 762 -78 callsubr
          6 -768 -101 callgsubr
          endchar
        </CharString>
        <CharString name="Obreve">
          101 300 762 -98 callgsubr
          -1 -768 -101 callgsubr
          endchar
        </CharString>
        <CharString name="Ocircumflex">
          101 210 753 -107 callgsubr
          89 -759 -101 callgsubr
          endchar
        </CharString>
        <CharString name="Odieresis">
          101 237 784 -100 callsubr
          -64 -790 -101 callgsubr
          endchar
        </CharString>
        <CharString name="Ograve">
          101 324 762 -98 callsubr
          -25 -768 -101 callgsubr
          endchar
        </CharString>
        <CharString name="Ohorn">
          101 299 -6 -85 callgsubr
        </CharString>
        <CharString name="Ohungarumlaut">
          101 213 762 -80 callgsubr
          -42 -768 -101 callgsubr
          endchar
        </CharString>
        <CharString name="Omacron">
          101 204 789 -81 callgsubr
          95 -795 -101 callgsubr
          endchar
        </CharString>
        <CharString name="Oslash">
          101 485 620 -48 callsubr
        </CharString>
        <CharString name="Oslashacute">
          1 callsubr
          192 -142 -48 callsubr
        </CharString>
        <CharString name="Otilde">
          101 173 769 rmoveto
          -106 callsubr
          136 -779 -101 callgsubr
          endchar
        </CharString>
        <CharString name="P">
          111 18 callsubr
          278 25 callgsubr
          -165 7 callgsubr
          -650 -75 callsubr
          52 376 rmoveto
          250 98 vlineto
          41 53 -21 -99 -109 -55 -21 -32 hvcurveto
          endchar
        </CharString>
        <CharString name="Q">
          101 542 -169 rmoveto
          23 24 55 12 2 hvcurveto
          7 -4 5 -8 4 vhcurveto
          -194 89 rlineto
          3 vlineto
          107 34 58 113 197 vvcurveto
          242 -89 114 -162 -161 -89 -113 -243 -180 49 -109 95 -48 vhcurveto
          -38 64 271 -144 14 hhcurveto
          -242 238 rmoveto
          -102 -56 89 192 192 56 88 102 101 57 -88 -192 -191 -57 -90 -101 hvcurveto
          endchar
        </CharString>
        <CharString name="R">
          15 115 -2 -33 callgsubr
        </CharString>
        <CharString name="Racute">
          15 247 -94 callgsubr
          -132 -764 -33 callgsubr
        </CharString>
        <CharString name="Rcaron">
          15 247 760 -103 callgsubr
          -132 -762 -33 callgsubr
        </CharString>
        <CharString name="Rcommaaccent">
          15 115 -2 -84 callsubr
          -57 -619 -79 callsubr
          endchar
        </CharString>
        <CharString name="S">
          -35 callgsubr
          endchar
        </CharString>
        <CharString name="Sacute">
          -61 234 -94 callgsubr
          -34 -767 rmoveto
          119 89 71 128 117 -77 42 -79 40 hvcurveto
          -94 callsubr
          endchar
        </CharString>
        <CharString name="Sacute.loclPLK">
          -61 234 762 -78 callsubr
          -34 -767 rmoveto
          119 89 71 128 117 -77 42 -79 40 hvcurveto
          -94 callsubr
          endchar
        </CharString>
        <CharString name="Scaron">
          -61 234 760 -103 callgsubr
          -34 -765 rmoveto
          119 89 71 128 117 -77 42 -79 40 hvcurveto
          -94 callsubr
          endchar
        </CharString>
        <CharString name="Scedilla">
          -61 408 194 rmoveto
          117 -77 42 -79 40 vhcurveto
          -94 callsubr
          -20 -59 -44 callgsubr
          16 58 rlineto
          98 15 68 69 112 vvcurveto
          endchar
        </CharString>
        <CharString name="Scircumflex">
          -61 151 753 -107 callgsubr
          49 -758 rmoveto
          119 89 71 128 117 -77 42 -79 40 hvcurveto
          -94 callsubr
          endchar
        </CharString>
        <CharString name="Scommaaccent">
          -35 callgsubr
          -24 -230 -79 callsubr
          endchar
        </CharString>
        <CharString name="T">
          -44 221 -2 -50 callsubr
          endchar
        </CharString>
        <CharString name="Tbar">
          -59 415 700 rmoveto
          -376 hlineto
          35 callgsubr
          144 -236 -106 hlineto
          -13 -6 -9 -21 hvcurveto
          -10 -59 callsubr
          106 -298 hlineto
          3 callgsubr
          298 92 vlineto
          -9 callsubr
          10 -49 callgsubr
          -92 236 142 hlineto
          14 6 9 21 hvcurveto
          16 -21 callgsubr
          endchar
        </CharString>
        <CharString name="Tcaron">
          -44 220 760 -103 callgsubr
          1 -762 -50 callsubr
          endchar
        </CharString>
        <CharString name="Thorn">
          111 18 callsubr
          157 25 callgsubr
          -102 101 hlineto
          14 -11 8 -27 vhcurveto
          -14 -80 callsubr
          52 255 rmoveto
          250 97 vlineto
          42 52 -21 -99 -109 -55 -21 -31 hvcurveto
          endchar
        </CharString>
        <CharString name="U">
          85 292 -6 rmoveto
          143 80 75 126 hvcurveto
          485 -55 callgsubr
          -14 -97 callsubr
          vhcurveto
          endchar
        </CharString>
        <CharString name="Uacute">
          85 285 -94 callgsubr
          7 -768 rmoveto
          143 80 75 126 hvcurveto
          485 -55 callgsubr
          -14 -97 callsubr
          vhcurveto
          endchar
        </CharString>
        <CharString name="Ubreve">
          85 292 762 -98 callgsubr
          -768 vmoveto
          143 80 75 126 hvcurveto
          485 -55 callgsubr
          -14 -97 callsubr
          vhcurveto
          endchar
        </CharString>
        <CharString name="Ucircumflex">
          85 202 753 -107 callgsubr
          90 -759 rmoveto
          143 80 75 126 hvcurveto
          485 -55 callgsubr
          -14 -97 callsubr
          vhcurveto
          endchar
        </CharString>
        <CharString name="Udieresis">
          85 229 784 -100 callsubr
          -63 -790 rmoveto
          143 80 75 126 hvcurveto
          485 -55 callgsubr
          -14 -97 callsubr
          vhcurveto
          endchar
        </CharString>
        <CharString name="Ugrave">
          85 316 762 -98 callsubr
          -24 -768 rmoveto
          143 80 75 126 hvcurveto
          485 -55 callgsubr
          -14 -97 callsubr
          vhcurveto
          endchar
        </CharString>
        <CharString name="Uhorn">
          72 589 759 -87 callsubr
          endchar
        </CharString>
        <CharString name="Uhungarumlaut">
          85 205 762 -80 callgsubr
          -41 -768 rmoveto
          143 80 75 126 hvcurveto
          485 -55 callgsubr
          -14 -97 callsubr
          vhcurveto
          endchar
        </CharString>
        <CharString name="Umacron">
          85 196 789 -81 callgsubr
          96 -795 rmoveto
          143 80 75 126 hvcurveto
          485 -55 callgsubr
          -14 -97 callsubr
          vhcurveto
          endchar
        </CharString>
        <CharString name="Uogonek">
          85 515 195 rmoveto
          485 -55 callgsubr
          -14 -97 callsubr
          20 19 2 3 18 vhcurveto
          -13 -29 -5 -29 -18 -56 callgsubr
          -18 callsubr
          19 8 30 17 30 hvcurveto
          64 32 34 60 83 vvcurveto
          endchar
        </CharString>
        <CharString name="Uring">
          85 290 741 -66 callsubr
          2 -782 rmoveto
          143 80 75 126 hvcurveto
          485 -55 callgsubr
          -14 -97 callsubr
          vhcurveto
          endchar
        </CharString>
        <CharString name="Utilde">
          85 165 769 rmoveto
          -106 callsubr
          137 -779 rmoveto
          143 80 75 126 hvcurveto
          485 -55 callgsubr
          -14 -97 callsubr
          vhcurveto
          endchar
        </CharString>
        <CharString name="V">
          10 232 -2 rmoveto
          42 20 callgsubr
          3 hvcurveto
          174 657 rlineto
          2 6 22 callsubr
          -13 6 -27 vhcurveto
          -12 hlineto
          -19 -15 -4 -12 -3 hvcurveto
          -135 -531 -9 -53 rlineto
          -3 hlineto
          -8 52 -134 532 rlineto
          12 -4 -14 4 -19 hhcurveto
          -14 hlineto
          -28 -12 -7 -10 -4 2 -4 1 -5 hvcurveto
          174 -658 -37 callsubr
          endchar
        </CharString>
        <CharString name="W">
          254 196 -2 -91 callgsubr
        </CharString>
        <CharString name="Wacute">
          254 369 -94 callgsubr
          -173 -764 -91 callgsubr
        </CharString>
        <CharString name="Wcircumflex">
          254 286 753 -107 callgsubr
          -90 -755 -91 callgsubr
        </CharString>
        <CharString name="Wdieresis">
          254 313 784 -100 callsubr
          -243 -786 -91 callgsubr
        </CharString>
        <CharString name="Wgrave">
          254 400 762 -98 callsubr
          -204 -764 -91 callgsubr
        </CharString>
        <CharString name="X">
          8 63 -2 rmoveto
          15 hlineto
          18 15 2 12 6 hvcurveto
          136 286 132 -285 rlineto
          -12 6 14 -3 19 hhcurveto
          20 hlineto
          30 12 6 11 5 -3 5 -4 8 hvcurveto
          -168 337 152 297 rlineto
          4 8 3 5 5 vvcurveto
          12 -13 5 -29 vhcurveto
          -14 hlineto
          -18 -15 -2 -12 -6 hvcurveto
          -120 -252 -115 251 rlineto
          13 -6 -14 2 -18 hhcurveto
          -20 hlineto
          -30 -12 -6 -11 -5 3 -6 4 -7 hvcurveto
          149 -302 -168 -332 rlineto
          -4 -8 -3 -5 -5 vvcurveto
          -12 12 -5 30 vhcurveto
          endchar
        </CharString>
        <CharString name="Y">
          -14 235 -2 rmoveto
          -87 callgsubr
        </CharString>
        <CharString name="Y.loclGUA">
          0 396 702 -95 callsubr
          endchar
        </CharString>
        <CharString name="Yacute">
          -14 235 -94 callgsubr
          -764 vmoveto
          -87 callgsubr
        </CharString>
        <CharString name="Yacute.loclGUA">
          0 242 -94 callgsubr
          154 -60 -95 callsubr
          endchar
        </CharString>
        <CharString name="Ycircumflex">
          -14 152 753 -107 callgsubr
          83 -755 rmoveto
          -87 callgsubr
        </CharString>
        <CharString name="Ycircumflex.loclGUA">
          0 159 753 -107 callgsubr
          237 -51 -95 callsubr
          endchar
        </CharString>
        <CharString name="Ydieresis">
          -14 179 784 -100 callsubr
          -70 -786 rmoveto
          -87 callgsubr
        </CharString>
        <CharString name="Ydieresis.loclGUA">
          0 186 784 -100 callsubr
          84 -82 -95 callsubr
          endchar
        </CharString>
        <CharString name="Ygrave">
          -14 266 762 -98 callsubr
          -31 -764 rmoveto
          -87 callgsubr
        </CharString>
        <CharString name="Ygrave.loclGUA">
          0 273 762 -98 callsubr
          123 -60 -95 callsubr
          endchar
        </CharString>
        <CharString name="Z">
          9 58 -45 callgsubr
          endchar
        </CharString>
        <CharString name="Zacute">
          9 250 -94 callgsubr
          -192 -762 rmoveto
          -88 callsubr
          endchar
        </CharString>
        <CharString name="Zacute.loclPLK">
          9 250 762 -78 callsubr
          -192 -762 rmoveto
          -88 callsubr
          endchar
        </CharString>
        <CharString name="Zcaron">
          9 250 760 -103 callgsubr
          -192 -760 rmoveto
          -88 callsubr
          endchar
        </CharString>
        <CharString name="Zdotaccent">
          9 257 784 -104 callgsubr
          -199 -784 rmoveto
          -88 callsubr
          endchar
        </CharString>
        <CharString name="a">
          -17 197 -6 -104 callsubr
        </CharString>
        <CharString name="aacute">
          -17 237 -91 callsubr
          -40 -28 callgsubr
        </CharString>
        <CharString name="abreve">
          -17 244 585 -90 callsubr
        </CharString>
        <CharString name="acircumflex">
          -17 154 576 -107 callgsubr
          43 -582 -104 callsubr
        </CharString>
        <CharString name="acute">
          -242 74 -91 callsubr
          endchar
        </CharString>
        <CharString name="acute.loclPLK">
          -242 85 585 -78 callsubr
          endchar
        </CharString>
        <CharString name="acutecomb">
          -498 -140 -91 callsubr
          endchar
        </CharString>
        <CharString name="adieresis">
          -17 181 607 -100 callsubr
          -110 -613 -104 callsubr
        </CharString>
        <CharString name="ae">
          166 179 -6 -51 callsubr
        </CharString>
        <CharString name="aeacute">
          166 335 -91 callsubr
          -156 -591 -51 callsubr
        </CharString>
        <CharString name="agrave">
          -17 268 585 -98 callsubr
          -71 -28 callgsubr
        </CharString>
        <CharString name="amacron">
          -17 148 612 -81 callgsubr
          49 -618 -104 callsubr
        </CharString>
        <CharString name="ampersand">
          22 476 71 rmoveto
          -6 -6 -5 -17 hhcurveto
          -22 -16 14 60 hvcurveto
          196 57 vlineto
          -8 callsubr
          12 -16 callsubr
          -57 105 hlineto
          21 callsubr
          -14 hlineto
          -21 -10 39 callsubr
          -11 -105 rlineto
          -87 hlineto
          -68 -30 71 50 37 16 68 69 hvcurveto
          23 17 -9 5 hhcurveto
          13 8 45 4 27 -45 5 -30 -95 -68 -55 -113 -74 35 -51 45 -22 hvcurveto
          -4 vlineto
          -54 -16 -44 -63 -105 vvcurveto
          -154 90 -55 90 60 42 23 20 33 vhcurveto
          -35 22 32 -8 30 hhcurveto
          23 42 3 27 8 -7 39 -13 hvcurveto
          -356 133 rmoveto
          102 40 30 71 vhcurveto
          91 -204 hlineto
          -12 1 -10 2 -9 vhcurveto
          -17 -32 -36 -18 -35 hhcurveto
          -48 -54 29 109 hvcurveto
          endchar
        </CharString>
        <CharString name="aogonek">
          -17 478 -97 rmoveto
          -18 callsubr
          18 6 26 14 26 hvcurveto
          5 4 3 4 5 5 -12 39 82 vvcurveto
          230 vlineto
          95 -63 56 -107 -86 -79 -33 -26 -11 21 -38 14 vhcurveto
          11 43 36 75 hhcurveto
          65 22 -37 -41 hvcurveto
          -47 vlineto
          -122 -2 -147 -19 -162 vvcurveto
          -101 58 -54 88 56 41 24 40 33 vhcurveto
          5 -21 5 -23 12 -10 rrcurveto
          -17 -31 -5 -32 -20 -56 callgsubr
          -158 227 rmoveto
          -36 -26 -36 -21 -44 hhcurveto
          -51 -24 27 50 102 97 5 84 2 hvcurveto
          endchar
        </CharString>
        <CharString name="approxequal">
          -60 77 260 -26 callsubr
          8 -164 -26 callsubr
          endchar
        </CharString>
        <CharString name="aring">
          -17 242 -25 callgsubr
          -45 -605 -104 callsubr
        </CharString>
        <CharString name="aringacute">
          -17 238 -94 callgsubr
          4 -198 -66 callsubr
          -45 -605 -104 callsubr
        </CharString>
        <CharString name="arrowdown">
          7 252 -5 rmoveto
          8 5 2 5 5 hvcurveto
          215 216 rlineto
          10 10 4 10 14 vvcurveto
          55 vlineto
          12 -2 7 -5 -3 -5 -4 -6 -6 vhcurveto
          -191 -195 rlineto
          564 vlineto
          21 callsubr
          -10 hlineto
          -21 -9 -8 -14 hvcurveto
          -564 vlineto
          -191 196 rlineto
          6 -6 -5 4 -3 hhcurveto
          -5 -2 -7 -12 hvcurveto
          -55 vlineto
          -14 4 -10 10 -10 vhcurveto
          215 -217 rlineto
          -5 5 6 -2 7 hhcurveto
          endchar
        </CharString>
        <CharString name="arrowleft">
          102 223 1 rmoveto
          49 hlineto
          9 6 2 5 3 -3 5 -5 6 hvcurveto
          -165 208 rlineto
          466 hlineto
          13 8 -52 callsubr
          10 vlineto
          21 -8 9 -13 vhcurveto
          -466 hlineto
          164 209 rlineto
          5 6 3 5 3 vvcurveto
          5 -5 2 -10 vhcurveto
          -49 hlineto
          -14 -9 -3 -11 -8 hvcurveto
          -185 -233 rlineto
          -5 -5 -1 -4 -9 vvcurveto
          -7 1 -5 5 -6 vhcurveto
          186 -232 rlineto
          -11 8 9 -3 14 hhcurveto
          endchar
        </CharString>
        <CharString name="arrowright">
          102 329 1 rmoveto
          49 hlineto
          13 10 3 11 8 hvcurveto
          185 232 rlineto
          5 6 1 5 5 vvcurveto
          11 -2 4 -4 5 vhcurveto
          -185 233 rlineto
          11 -8 -10 3 -13 hhcurveto
          -49 hlineto
          -10 -5 -2 -5 -3 3 -5 4 -6 hvcurveto
          165 -209 rlineto
          -465 hlineto
          9 callsubr
          465 hlineto
          -165 -208 rlineto
          -4 -6 -4 -5 -3 vvcurveto
          -5 6 -2 10 vhcurveto
          endchar
        </CharString>
        <CharString name="arrowup">
          7 247 -4 rmoveto
          10 hlineto
          21 9 8 14 hvcurveto
          564 vlineto
          191 -195 rlineto
          -6 6 5 -4 3 hhcurveto
          5 2 7 12 hvcurveto
          55 vlineto
          14 -4 10 -10 10 vhcurveto
          -215 216 rlineto
          6 -6 -4 1 -8 hhcurveto
          -9 -4 -2 -5 -5 hvcurveto
          -215 -216 rlineto
          -10 -10 -4 -10 -14 vvcurveto
          -55 vlineto
          -12 2 -7 5 3 5 4 6 6 vhcurveto
          191 195 rlineto
          -564 vlineto
          -14 9 -8 21 vhcurveto
          endchar
        </CharString>
        <CharString name="asciicircum">
          -138 60 320 rmoveto
          9 hlineto
          16 10 7 16 5 hvcurveto
          80 261 80 -261 rlineto
          -16 4 12 -7 16 hhcurveto
          8 hlineto
          16 7 8 13 4 -1 5 -1 5 hvcurveto
          -102 309 rlineto
          16 -5 -9 4 -15 hhcurveto
          -20 hlineto
          -14 -10 -4 -16 -5 hvcurveto
          -102 -309 rlineto
          -1 -5 -1 -5 -4 vvcurveto
          -13 8 -8 15 vhcurveto
          endchar
        </CharString>
        <CharString name="asciitilde">
          -61 74 227 rmoveto
          -1 5 4 -1 4 hhcurveto
          8 5 4 10 8 hvcurveto
          20 14 11 7 17 41 60 -40 53 hhcurveto
          42 30 18 50 25 hvcurveto
          3 -34 callsubr
          6 -4 2 -10 4 vhcurveto
          -8 3 rlineto
          2 -5 -4 1 -4 hhcurveto
          -8 -7 -4 -11 -8 hvcurveto
          -20 -15 -12 -6 -18 -41 -59 40 -50 hhcurveto
          -43 -32 -18 -51 -23 hvcurveto
          -2 -31 callsubr
          3 -4 8 -3 vhcurveto
          endchar
        </CharString>
        <CharString name="asterisk">
          -199 77 436 rmoveto
          5 6 3 6 4 hvcurveto
          56 86 55 -86 rlineto
          -6 4 6 -3 5 hhcurveto
          10 13 10 9 4 -2 4 -3 5 hvcurveto
          -58 91 82 32 rlineto
          10 4 4 4 8 vvcurveto
          15 -9 8 -9 -3 -5 0 -3 -4 vhcurveto
          -76 -29 rlineto
          91 vlineto
          14 -6 6 -14 -14 -6 -6 -14 vhcurveto
          -91 vlineto
          -77 29 rlineto
          3 -4 -5 0 -3 hhcurveto
          -9 -9 -9 -15 -7 5 -4 9 -4 hvcurveto
          81 -32 -57 -91 rlineto
          -3 -5 -2 -4 -4 vvcurveto
          -9 13 -10 10 vhcurveto
          endchar
        </CharString>
        <CharString name="at">
          294 442 705 rmoveto
          -219 -168 -206 -262 -215 113 -148 166 44 100 11 39 16 -5 7 -9 hvcurveto
          -19 -32 -29 -75 hhcurveto
          -138 -91 129 189 239 145 186 185 140 94 -110 -173 -141 -57 -130 -61 -7 -27 1 38 hvcurveto
          29 27 295 11 vvcurveto
          13 -6 8 -16 vhcurveto
          -6 hlineto
          -21 -2 -8 -33 -11 hvcurveto
          18 -15 -32 26 -44 hhcurveto
          -108 -70 -112 -157 -147 73 -35 47 43 41 22 55 30 hvcurveto
          -51 4 32 -26 48 hhcurveto
          114 78 143 178 203 -114 127 -171 hvcurveto
          12 -480 rmoveto
          -86 -28 -40 -24 -28 hhcurveto
          -37 -31 30 96 101 23 101 90 33 23 -17 -13 14 hvcurveto
          -8 -26 -8 -111 -3 -51 rrcurveto
          endchar
        </CharString>
        <CharString name="atilde">
          -17 117 592 rmoveto
          -106 callsubr
          90 -602 -104 callsubr
        </CharString>
        <CharString name="b">
          278 -6 rmoveto
          95 62 109 162 169 -67 95 -98 -50 -30 -22 -29 -26 hvcurveto
          252 vlineto
          10 callsubr
          -710 vlineto
          -14 10 -8 23 vhcurveto
          6 hlineto
          16 11 3 9 4 hvcurveto
          10 59 rlineto
          -51 32 43 -24 45 hhcurveto
          -21 73 rmoveto
          -33 -34 25 44 -26 hvcurveto
          274 vlineto
          30 23 30 15 32 hhcurveto
          65 31 -67 -122 -125 -30 -74 -58 hvcurveto
          endchar
        </CharString>
        <CharString name="backslash">
          -209 248 -20 rmoveto
          11 hlineto
          15 8 7 11 4 -1 5 -1 4 hvcurveto
          -216 670 rlineto
          15 -5 -9 6 -15 hhcurveto
          -11 hlineto
          -15 -7 -7 -11 -4 0 -3 3 -9 hvcurveto
          215 -667 rlineto
          -15 4 9 -6 15 hhcurveto
          endchar
        </CharString>
        <CharString name="bar">
          -298 96 -140 rmoveto
          9 hlineto
          20 7 8 14 hvcurveto
          866 15 callsubr
          -866 vlineto
          -14 8 -8 19 vhcurveto
          endchar
        </CharString>
        <CharString name="braceleft">
          -249 165 -138 rmoveto
          45 31 callsubr
          -17 hlineto
          -28 -6 23 39 hvcurveto
          186 vlineto
          94 -58 42 -14 6 vhcurveto
          16 11 56 42 91 vvcurveto
          187 vlineto
          39 6 22 28 vhcurveto
          17 31 callsubr
          -45 hlineto
          -26 -52 -21 -95 hvcurveto
          -178 vlineto
          -62 -6 -38 -39 -18 vhcurveto
          -16 -7 -9 -9 -18 vvcurveto
          -14 vlineto
          -18 9 -9 16 -7 vhcurveto
          39 -18 6 -39 -61 vvcurveto
          -178 vlineto
          -97 52 -19 26 vhcurveto
          endchar
        </CharString>
        <CharString name="braceright">
          -249 41 -138 rmoveto
          44 hlineto
          26 52 19 97 hvcurveto
          178 vlineto
          61 7 39 39 18 vhcurveto
          16 7 9 9 18 vvcurveto
          14 vlineto
          18 -9 9 -16 7 vhcurveto
          -39 18 -7 38 62 vvcurveto
          178 vlineto
          95 -52 21 -26 vhcurveto
          -44 hlineto
          -14 27 callsubr
          14 vhcurveto
          16 hlineto
          28 6 -22 -39 hvcurveto
          -187 vlineto
          -91 57 -42 16 -11 vhcurveto
          -14 -6 -59 -42 -94 vvcurveto
          -186 vlineto
          -39 -6 -23 -28 vhcurveto
          -16 hlineto
          -14 27 callsubr
          14 vhcurveto
          endchar
        </CharString>
        <CharString name="bracketleft">
          -259 94 -138 rmoveto
          102 hlineto
          14 5 8 21 hvcurveto
          4 vlineto
          21 -5 8 -14 vhcurveto
          -57 781 57 hlineto
          14 5 8 21 hvcurveto
          5 vlineto
          21 -5 8 -14 vhcurveto
          -102 7 callgsubr
          -846 11 callgsubr
          endchar
        </CharString>
        <CharString name="bracketright">
          -259 43 -138 rmoveto
          103 hlineto
          18 8 -52 callsubr
          846 vlineto
          21 -8 9 -18 vhcurveto
          -103 hlineto
          -13 -6 -8 -21 hvcurveto
          -5 vlineto
          -21 6 -8 13 vhcurveto
          58 -781 -58 hlineto
          -13 27 callsubr
          13 vhcurveto
          endchar
        </CharString>
        <CharString name="breve">
          -242 127 -74 callsubr
          endchar
        </CharString>
        <CharString name="brokenbar">
          -298 96 403 rmoveto
          9 hlineto
          20 7 8 14 hvcurveto
          323 15 callsubr
          -323 vlineto
          -14 8 -8 19 vhcurveto
          -543 vmoveto
          9 hlineto
          20 7 8 14 hvcurveto
          322 15 callsubr
          -322 vlineto
          -14 8 -8 19 vhcurveto
          endchar
        </CharString>
        <CharString name="bullet">
          -200 148 203 rmoveto
          63 52 39 84 84 -52 40 -63 -63 -52 -40 -84 -84 52 -39 63 hvcurveto
          endchar
        </CharString>
        <CharString name="c">
          -90 256 -6 -77 callgsubr
        </CharString>
        <CharString name="cacute">
          -90 231 -91 callsubr
          25 -591 -77 callgsubr
        </CharString>
        <CharString name="cacute.loclPLK">
          -90 231 585 -78 callsubr
          25 -591 -77 callgsubr
        </CharString>
        <CharString name="caron">
          -242 118 583 -103 callgsubr
          endchar
        </CharString>
        <CharString name="caron.alt">
          -242 78 526 -34 callgsubr
          endchar
        </CharString>
        <CharString name="ccaron">
          -90 231 583 -103 callgsubr
          25 -589 -77 callgsubr
        </CharString>
        <CharString name="ccedilla">
          -90 387 45 rmoveto
          41 callsubr
          24 callsubr
          vhcurveto
          -10 -17 -24 -12 -42 hhcurveto
          -88 -33 60 140 139 41 52 77 39 28 -16 -8 14 hvcurveto
          -2 5 3 -2 3 hhcurveto
          11 20 38 16 24 -65 22 -60 -118 -89 -56 -209 -179 60 -80 121 -10 hvcurveto
          -20 -59 -44 callgsubr
          15 54 rlineto
          53 4 66 26 21 vvcurveto
          endchar
        </CharString>
        <CharString name="ccircumflex">
          -90 148 576 -107 callgsubr
          108 -582 -77 callgsubr
        </CharString>
        <CharString name="cdotaccent">
          -90 238 -76 callgsubr
          18 -613 -77 callgsubr
        </CharString>
        <CharString name="cedilla">
          -242 147 -60 rmoveto
          17 60 rlineto
          -41 hlineto
          -22 -64 -44 callgsubr
          endchar
        </CharString>
        <CharString name="cent">
          -58 354 96 rmoveto
          24 callsubr
          hvcurveto
          -10 -17 -24 -12 -42 hhcurveto
          -7 391 4 hlineto
          39 28 -16 -8 14 hvcurveto
          -2 5 3 -2 3 hhcurveto
          11 20 38 16 24 -65 22 -60 hvcurveto
          -2 38 hlineto
          11 -6 5 -13 -13 -6 -5 -11 vhcurveto
          -40 vlineto
          -98 -13 -69 -65 -185 vvcurveto
          -172 56 -80 111 -15 vhcurveto
          -56 vlineto
          -11 6 -5 13 13 6 5 11 vhcurveto
          53 5 vlineto
          54 77 28 23 41 callsubr
          hvcurveto
          -217 170 rmoveto
          111 26 56 50 17 vhcurveto
          -377 vlineto
          -55 19 -21 61 113 vvcurveto
          endchar
        </CharString>
        <CharString name="circumflex">
          -242 36 576 -107 callgsubr
          endchar
        </CharString>
        <CharString name="colon">
          -310 85 415 -36 callsubr
          -417 vmoveto
          9 callgsubr
        </CharString>
        <CharString name="comma">
          -310 47 -116 4 callsubr
        </CharString>
        <CharString name="copyright">
          -14 callsubr
          12 94 rmoveto
          49 51 27 16 7 -11 25 -10 hvcurveto
          -6 -25 -30 -48 hhcurveto
          -66 -32 52 115 117 32 51 68 hvcurveto
          45 21 -27 5 hhcurveto
          8 13 25 10 16 -47 21 -45 -101 -52 -70 -143 -145 49 -67 102 hvcurveto
          endchar
        </CharString>
        <CharString name="currency">
          -36 88 143 rmoveto
          7 7 3 7 7 hvcurveto
          26 26 rlineto
          -21 26 32 -13 36 hhcurveto
          37 32 13 21 26 hvcurveto
          25 -25 rlineto
          -8 7 7 -3 7 hhcurveto
          7 6 4 5 5 hvcurveto
          1 1 rlineto
          5 5 5 9 5 vvcurveto
          7 -4 7 -7 7 vhcurveto
          -29 29 rlineto
          16 29 10 34 37 vvcurveto
          36 -10 34 -16 29 vhcurveto
          29 29 rlineto
          8 8 3 7 7 vvcurveto
          6 -3 5 -6 6 vhcurveto
          -2 2 rlineto
          6 -6 -8 3 -5 hhcurveto
          -7 -7 -4 -6 -6 hvcurveto
          -25 -25 rlineto
          21 -26 -32 14 -37 hhcurveto
          -36 -33 -14 -22 -26 hvcurveto
          -25 25 rlineto
          8 -7 -8 4 -7 hhcurveto
          -6 -6 -3 -5 -4 hvcurveto
          -4 -5 rlineto
          -4 -5 -2 -7 -4 vvcurveto
          -8 3 -7 7 -7 vhcurveto
          30 -28 rlineto
          -17 -28 -9 -35 -37 vvcurveto
          -37 9 -34 17 -28 vhcurveto
          -30 -30 rlineto
          -7 -7 -4 -8 -7 vvcurveto
          -7 3 -5 5 -5 vhcurveto
          2 -2 rlineto
          -6 6 7 -3 5 hhcurveto
          141 63 rmoveto
          -51 -42 41 75 75 42 42 51 52 42 -42 -75 -75 -42 -41 -52 hvcurveto
          endchar
        </CharString>
        <CharString name="d">
          -17 -67 callsubr
          21 73 -6 callgsubr
        </CharString>
        <CharString name="dagger">
          32 callsubr
          540 118 vlineto
          -9 callsubr
          20 -49 callgsubr
          -118 178 hlineto
          14 -11 8 -24 vhcurveto
          -6 hlineto
          -25 -9 -8 -14 hvcurveto
          -178 -120 vlineto
          31 callgsubr
          -540 hlineto
          -14 11 -8 24 vhcurveto
          endchar
        </CharString>
        <CharString name="daggerdbl">
          32 callsubr
          178 118 vlineto
          -9 callsubr
          20 -49 callgsubr
          -118 282 118 -12 callgsubr
          20 -49 callgsubr
          -118 178 hlineto
          14 -11 8 -24 vhcurveto
          -6 hlineto
          -25 -9 -8 -14 hvcurveto
          -178 -120 vlineto
          31 callgsubr
          -282 -120 hlineto
          31 callgsubr
          -178 hlineto
          -14 11 -8 24 vhcurveto
          endchar
        </CharString>
        <CharString name="dcaron">
          -17 -67 callsubr
          265 532 -34 callgsubr
          -244 -459 -6 callgsubr
        </CharString>
        <CharString name="dcroat">
          -31 449 668 rmoveto
          -45 62 hlineto
          14 -12 34 callgsubr
          -26 -11 -8 -14 hvcurveto
          -62 -91 vlineto
          9 callsubr
          91 -120 hlineto
          29 -26 -30 22 -50 hhcurveto
          -98 -67 -96 -169 -160 61 -110 96 45 43 24 51 31 hvcurveto
          -35 6 2 -17 callsubr
          5 17 hvcurveto
          7 -10 38 82 vvcurveto
          450 45 32 callgsubr
          -131 -532 rmoveto
          -44 -26 -34 -25 -33 hhcurveto
          -59 -30 74 124 124 32 66 66 32 29 -15 -30 23 hvcurveto
          endchar
        </CharString>
        <CharString name="degree">
          -222 137 441 rmoveto
          62 44 51 81 82 -44 51 -62 -62 -44 -51 -82 -81 44 -51 62 hvcurveto
          -1 45 rmoveto
          -36 -22 32 55 55 22 33 36 36 22 -33 -55 -55 -22 -32 -36 hvcurveto
          endchar
        </CharString>
        <CharString name="dieresis">
          -242 65 607 -100 callsubr
          endchar
        </CharString>
        <CharString name="divide">
          -50 221 368 rmoveto
          5 -73 callsubr
          51 -55 callgsubr
          -5 -90 callgsubr
          -51 -75 callsubr
          -164 -171 rmoveto
          335 hlineto
          17 28 callgsubr
          -17 vhcurveto
          -335 hlineto
          10 callgsubr
          164 -199 rmoveto
          5 -73 callsubr
          51 -55 callgsubr
          -5 -90 callgsubr
          -51 -75 callsubr
          endchar
        </CharString>
        <CharString name="dollar">
          -58 228 -71 rmoveto
          2 hlineto
          13 4 5 11 hvcurveto
          54 vlineto
          95 16 66 69 110 vvcurveto
          117 -77 42 -79 40 vhcurveto
          -5 3 rlineto
          236 vlineto
          37 34 -7 -12 24 hvcurveto
          -2 4 5 -3 4 hhcurveto
          13 15 46 15 3 0 5 -7 4 hvcurveto
          21 -35 -41 9 -53 hhcurveto
          31 vlineto
          11 -5 5 -13 vhcurveto
          -1 hlineto
          -12 -6 -5 -11 hvcurveto
          -34 vlineto
          -97 -16 -66 -70 -107 vvcurveto
          -114 78 -43 85 -42 vhcurveto
          -242 vlineto
          -58 -49 12 31 -39 hvcurveto
          1 -2 -2 3 -5 hhcurveto
          -15 -8 -37 -20 -14 4 -4 7 -5 hvcurveto
          -32 44 53 -14 70 hhcurveto
          -50 vlineto
          -11 6 -5 12 vhcurveto
          -18 487 rmoveto
          -47 28 -28 30 51 vvcurveto
          56 33 34 42 12 vhcurveto
          37 -546 rmoveto
          215 vlineto
          41 -24 31 -29 -56 vvcurveto
          -54 -29 -38 -43 -14 vhcurveto
          endchar
        </CharString>
        <CharString name="dotaccent">
          -242 129 -76 callgsubr
          endchar
        </CharString>
        <CharString name="dotbelowcomb">
          -498 2 -175 -104 callgsubr
          endchar
        </CharString>
        <CharString name="dotlessi">
          -244 125 -2 -67 callgsubr
        </CharString>
        <CharString name="e">
          -44 256 -6 -100 callgsubr
        </CharString>
        <CharString name="eacute">
          -44 224 -91 callsubr
          32 -591 -100 callgsubr
        </CharString>
        <CharString name="ebreve">
          -44 231 -74 callsubr
          25 -591 -100 callgsubr
        </CharString>
        <CharString name="ecaron">
          -44 224 583 -103 callgsubr
          32 -589 -100 callgsubr
        </CharString>
        <CharString name="ecircumflex">
          -46 callsubr
          endchar
        </CharString>
        <CharString name="edieresis">
          -44 168 607 -100 callsubr
          -38 -613 -100 callgsubr
        </CharString>
        <CharString name="edotaccent">
          -44 231 -76 callgsubr
          25 -613 -100 callgsubr
        </CharString>
        <CharString name="egrave">
          -44 255 585 -98 callsubr
          1 -591 -100 callgsubr
        </CharString>
        <CharString name="eight">
          -39 228 -6 rmoveto
          111 81 72 130 105 -52 43 -58 32 hvcurveto
          52 27 41 51 84 vvcurveto
          118 -85 50 -86 -94 -76 -58 -117 -82 36 -45 44 -30 vhcurveto
          -54 -28 -48 -51 -103 vvcurveto
          -135 84 -63 104 vhcurveto
          17 415 rmoveto
          -53 26 -46 29 72 vvcurveto
          67 38 31 47 48 39 -30 -70 -60 -29 -37 -44 -28 vhcurveto
          -16 -343 rmoveto
          -55 -48 40 91 74 31 41 47 30 hvcurveto
          65 -31 65 -25 -90 vvcurveto
          -80 -46 -50 -59 vhcurveto
          endchar
        </CharString>
        <CharString name="ellipsis">
          54 85 -2 -36 callsubr
          182 hmoveto
          -61 callgsubr
          182 hmoveto
          9 callgsubr
        </CharString>
        <CharString name="emacron">
          -44 135 612 -81 callgsubr
          121 -618 -100 callgsubr
        </CharString>
        <CharString name="emdash">
          388 19 230 rmoveto
          848 6 callsubr
          -848 4 callgsubr
        </CharString>
        <CharString name="endash">
          -55 19 230 rmoveto
          405 6 callsubr
          -405 4 callgsubr
        </CharString>
        <CharString name="eng">
          303 -212 rmoveto
          43 68 21 111 hvcurveto
          453 vlineto
          97 -47 59 -83 -50 -46 -28 -47 -30 vhcurveto
          32 -6 -1 36 -25 hhcurveto
          -11 -47 -5 -18 hvcurveto
          -6 10 -38 -82 vvcurveto
          -353 -1 callgsubr
          11 -18 callgsubr
          41 20 35 29 37 hhcurveto
          48 23 -33 -58 hvcurveto
          -437 vlineto
          -55 -17 -13 -20 vhcurveto
          -24 -5 5 -7 hhcurveto
          -14 -7 -39 -8 -27 44 -3 26 hvcurveto
          endchar
        </CharString>
        <CharString name="eogonek">
          -44 426 -100 rmoveto
          -18 callsubr
          20 8 30 17 30 hvcurveto
          29 13 17 17 12 vvcurveto
          11 -21 39 -14 vhcurveto
          -10 -31 -42 -76 hhcurveto
          -80 -32 50 111 -6 hvcurveto
          249 hlineto
          12 21 29 12 170 -59 91 -116 -130 -67 -94 -177 -179 68 -85 141 13 14 1 2 12 hvcurveto
          -15 -30 -5 -30 -19 -56 callgsubr
          -185 557 23 callsubr
        </CharString>
        <CharString name="equal">
          -49 61 271 rmoveto
          328 hlineto
          16 28 callgsubr
          -16 vhcurveto
          -328 hlineto
          10 callgsubr
          -164 vmoveto
          328 33 callsubr
          -328 30 callsubr
          -8 vlineto
          -19 8 -11 16 vhcurveto
          endchar
        </CharString>
        <CharString name="estimated">
          117 141 355 rmoveto
          452 hlineto
          227 -127 125 -154 -159 -131 -125 -227 -232 135 -130 163 81 77 39 65 55 vhcurveto
          6 8 4 7 6 vvcurveto
          12 -13 16 -18 -8 -7 -6 -9 -6 vhcurveto
          -52 -38 -73 -31 -60 hhcurveto
          -72 -63 28 57 -44 hvcurveto
          171 524 rmoveto
          64 59 -29 -55 43 hvcurveto
          -168 -337 168 vlineto
          55 42 61 29 68 hhcurveto
          endchar
        </CharString>
        <CharString name="eth">
          -21 327 618 rmoveto
          60 8 rlineto
          10 1 5 5 7 vvcurveto
          5 -6 27 -19 -4 -47 -7 -4 -27 vhcurveto
          -13 18 -10 12 -10 12 rrcurveto
          7 -6 -8 5 -12 hhcurveto
          -11 -9 -1 -1 -7 hvcurveto
          -11 -2 -5 -5 -7 vvcurveto
          -10 11 -16 15 -22 vhcurveto
          -72 -10 rlineto
          -10 -2 -5 -4 -7 vvcurveto
          -14 12 -18 14 2 2 1 11 82 vhcurveto
          17 -27 17 -31 11 -30 rrcurveto
          5 -17 -17 2 -19 hhcurveto
          -125 -68 -96 -171 -172 67 -93 126 125 65 93 173 128 -36 112 -67 118 hvcurveto
          -89 -552 rmoveto
          -71 -32 62 133 132 32 61 71 71 33 -62 -131 -133 -33 -62 -71 hvcurveto
          endchar
        </CharString>
        <CharString name="exclam">
          -252 116 202 rmoveto
          8 hlineto
          23 7 8 14 1 hvcurveto
          9 152 10 152 9 152 rrcurveto
          -2 callsubr
          -25 vhcurveto
          -23 -90 callgsubr
          -456 vlineto
          -14 8 -8 23 vhcurveto
          -5 -204 rmoveto
          9 callgsubr
        </CharString>
        <CharString name="exclamdown">
          -252 117 415 -36 callsubr
          -17 -594 rmoveto
          23 -73 callsubr
          456 vlineto
          14 -7 8 -23 vhcurveto
          -9 hlineto
          -23 -6 39 callsubr
          -11 -152 -18 -279 -25 vvcurveto
          -14 12 -8 25 vhcurveto
          endchar
        </CharString>
        <CharString name="f">
          -212 137 28 callsubr
          431 67 vlineto
          -44 callsubr
          -67 98 hlineto
          -65 callgsubr
          endchar
        </CharString>
        <CharString name="f_f">
          74 534 523 rmoveto
          -67 98 hlineto
          56 19 7 22 vhcurveto
          22 6 -6 8 hhcurveto
          15 7 39 8 21 -39 10 -30 -42 -72 -17 -110 hvcurveto
          -106 -202 98 vlineto
          -65 callgsubr
          4 hlineto
          28 -27 callsubr
          431 202 -431 11 callsubr
          4 hlineto
          28 -27 callsubr
          431 67 vlineto
          -44 callsubr
          endchar
        </CharString>
        <CharString name="f_t">
          86 534 71 rmoveto
          -4 callgsubr
          322 66 vlineto
          -44 callsubr
          -66 105 hlineto
          21 callsubr
          -10 hlineto
          -21 -10 39 callsubr
          -12 -105 rlineto
          -196 98 hlineto
          -65 callgsubr
          4 hlineto
          28 -27 callsubr
          431 196 -336 vlineto
          -102 67 -19 45 17 callsubr
          vhcurveto
          endchar
        </CharString>
        <CharString name="fi">
          42 415 523 rmoveto
          -234 98 hlineto
          -65 callgsubr
          4 hlineto
          28 -27 callsubr
          431 190 -431 11 callsubr
          4 hlineto
          28 -27 callsubr
          483 vlineto
          13 -12 7 -28 vhcurveto
          179 vmoveto
          -15 callgsubr
        </CharString>
        <CharString name="five">
          -39 202 -6 rmoveto
          101 113 47 169 167 -122 45 -98 hvcurveto
          -44 hlineto
          13 206 rlineto
          199 16 callsubr
          -248 hlineto
          -21 -10 -9 -21 -1 hvcurveto
          -17 -290 rlineto
          -21 6 -9 22 vhcurveto
          75 hlineto
          104 56 -47 -91 -97 -63 -49 -68 hvcurveto
          -74 -38 38 -16 hhcurveto
          -11 -24 -31 -19 -25 68 -35 98 hvcurveto
          endchar
        </CharString>
        <CharString name="fl">
          58 137 28 callsubr
          431 67 vlineto
          -44 callsubr
          -67 98 hlineto
          -65 callgsubr
          331 -4 0 callgsubr
        </CharString>
        <CharString name="florin">
          -169 49 -207 rmoveto
          10 hlineto
          28 11 7 14 1 hvcurveto
          69 627 rlineto
          83 hlineto
          23 4 38 14 14 -6 6 -11 hvcurveto
          -85 hlineto
          11 97 rlineto
          66 7 30 8 28 29 4 -5 9 hhcurveto
          14 13 39 8 1 hvcurveto
          27 -41 3 -28 -50 -86 -18 -120 -13 vhcurveto
          -12 -105 rlineto
          -42 hlineto
          -24 -3 -31 -22 -13 5 -6 12 hvcurveto
          44 hlineto
          -36 -354 -33 -265 -8 vvcurveto
          -14 8 -7 26 vhcurveto
          endchar
        </CharString>
        <CharString name="four">
          -39 313 -2 rmoveto
          23 hlineto
          21 9 8 14 hvcurveto
          147 56 vlineto
          -44 callsubr
          -56 441 hlineto
          21 callsubr
          -20 hlineto
          -14 -14 -4 -9 -6 hvcurveto
          -268 -460 rlineto
          -1 -3 -1 -3 -5 vvcurveto
          -19 13 -32 11 vhcurveto
          247 -147 hlineto
          -14 9 -8 21 vhcurveto
          -211 241 rmoveto
          186 324 4 -2 rlineto
          -5 -32 -4 -31 -59 vvcurveto
          -200 vlineto
          endchar
        </CharString>
        <CharString name="fraction">
          -287 -45 -3 rmoveto
          7 hlineto
          15 8 8 15 7 hvcurveto
          288 648 rlineto
          3 5 1 5 5 vvcurveto
          12 -6 8 -12 vhcurveto
          -8 hlineto
          -14 -10 -8 -15 -7 hvcurveto
          -288 -648 rlineto
          -2 -5 -1 -5 -5 vvcurveto
          -12 7 -8 12 vhcurveto
          endchar
        </CharString>
        <CharString name="g">
          -27 220 -212 -92 callgsubr
        </CharString>
        <CharString name="g.ss01">
          -27 367 525 -86 callgsubr
        </CharString>
        <CharString name="gbreve">
          -27 231 -74 callsubr
          -11 -797 -92 callgsubr
        </CharString>
        <CharString name="gbreve.ss01">
          -27 233 -74 callsubr
          134 -60 -86 callgsubr
        </CharString>
        <CharString name="gcircumflex">
          -27 141 576 -107 callgsubr
          79 -788 -92 callgsubr
        </CharString>
        <CharString name="gcircumflex.ss01">
          -27 143 576 -107 callgsubr
          224 -51 -86 callgsubr
        </CharString>
        <CharString name="gcommaaccent">
          -61 264 769 rmoveto
          -27 -57 -60 -96 -17 12 -11 23 hvcurveto
          25 callsubr
          vhcurveto
          -44 -981 -92 callgsubr
        </CharString>
        <CharString name="gcommaaccent.ss01">
          -41 225 585 rmoveto
          25 callsubr
          -27 -57 -60 -96 -17 12 -11 23 vhcurveto
          142 -60 -86 callgsubr
        </CharString>
        <CharString name="gdotaccent">
          -27 231 -76 callgsubr
          -11 -819 -92 callgsubr
        </CharString>
        <CharString name="gdotaccent.ss01">
          -27 233 -76 callgsubr
          134 -82 -86 callgsubr
        </CharString>
        <CharString name="germandbls">
          -18 118 -2 rmoveto
          8 callsubr
          512 vlineto
          65 28 37 51 42 37 -23 -78 -73 -39 -48 -46 vhcurveto
          -6 hlineto
          -12 -33 callsubr
          13 vhcurveto
          17 hlineto
          55 41 -50 -85 -84 -40 -49 -52 hvcurveto
          -21 hlineto
          -13 -33 callsubr
          13 vhcurveto
          23 hlineto
          104 74 73 131 89 -35 71 -72 20 hvcurveto
          3 vlineto
          52 25 34 61 68 vvcurveto
          122 -80 43 -86 -109 -59 -72 -102 vhcurveto
          -512 -75 callsubr
          endchar
        </CharString>
        <CharString name="grave">
          -242 179 585 -98 callsubr
          endchar
        </CharString>
        <CharString name="gravecomb">
          -498 24 585 -98 callsubr
          endchar
        </CharString>
        <CharString name="greater">
          -50 62 9 rmoveto
          331 174 rlineto
          15 8 6 10 17 vvcurveto
          17 vlineto
          17 -6 11 -15 7 vhcurveto
          -331 174 rlineto
          -18 9 -8 -11 -21 vvcurveto
          -14 vlineto
          -17 6 26 callsubr
          -7 -11 -17 vvcurveto
          -14 vlineto
          -17 7 -16 20 10 vhcurveto
          endchar
        </CharString>
        <CharString name="greaterequal">
          -45 37 137 rmoveto
          -21 8 -11 18 9 vhcurveto
          331 174 rlineto
          14 8 7 10 17 vvcurveto
          17 vlineto
          17 -7 11 -14 7 vhcurveto
          -331 174 rlineto
          -17 9 -8 -11 -21 vvcurveto
          -14 vlineto
          -17 5 26 callsubr
          -6 -11 -17 vvcurveto
          24 -151 rmoveto
          330 hlineto
          12 callsubr
        </CharString>
        <CharString name="guillemotleft">
          -93 165 62 rmoveto
          -38 callsubr
          158 hmoveto
          -38 callsubr
          endchar
        </CharString>
        <CharString name="guillemotright">
          -93 76 62 rmoveto
          -38 callgsubr
          157 hmoveto
          -38 callgsubr
          endchar
        </CharString>
        <CharString name="guilsinglleft">
          -251 166 62 rmoveto
          -38 callsubr
          endchar
        </CharString>
        <CharString name="guilsinglright">
          -251 76 62 rmoveto
          -38 callgsubr
          endchar
        </CharString>
        <CharString name="h">
          -13 119 -2 -50 callgsubr
          endchar
        </CharString>
        <CharString name="hbar">
          -27 289 529 rmoveto
          -52 -43 -28 -39 -27 hvcurveto
          136 86 32 callgsubr
          -86 62 33 callgsubr
          -62 -50 vlineto
          9 callsubr
          50 -578 hlineto
          -71 callsubr
          10 -18 callgsubr
          23 7 35 47 51 hhcurveto
          48 23 -34 -57 hvcurveto
          -345 -75 callsubr
          -3 callsubr
          353 vlineto
          112 -61 44 -67 vhcurveto
          endchar
        </CharString>
        <CharString name="hcircumflex">
          -13 34 783 -107 callgsubr
          85 -785 -50 callgsubr
          endchar
        </CharString>
        <CharString name="hookabovecomb">
          -498 -233 563 -96 callgsubr
          endchar
        </CharString>
        <CharString name="hungarumlaut">
          -191 49 585 -80 callgsubr
          endchar
        </CharString>
        <CharString name="hyphen">
          3 callsubr
        </CharString>
        <CharString name="i">
          -42 callgsubr
          endchar
        </CharString>
        <CharString name="i.loclTRK">
          -42 callgsubr
          endchar
        </CharString>
        <CharString name="iacute">
          -244 120 -91 callsubr
          5 -587 -67 callgsubr
        </CharString>
        <CharString name="iacute_j.loclNLD">
          5 120 -91 callsubr
          254 hmoveto
          -105 callgsubr
          -249 -587 -83 callgsubr
          189 -210 -81 callsubr
        </CharString>
        <CharString name="ibreve">
          -244 127 -74 callsubr
          -2 -587 -67 callgsubr
        </CharString>
        <CharString name="icircumflex">
          -244 37 576 -107 callgsubr
          88 -578 -67 callgsubr
        </CharString>
        <CharString name="idieresis">
          -244 64 607 -100 callsubr
          -65 -29 callgsubr
          endchar
        </CharString>
        <CharString name="igrave">
          -244 151 585 -98 callsubr
          -26 -587 -67 callgsubr
        </CharString>
        <CharString name="ij">
          5 127 -76 callgsubr
          254 hmoveto
          33 13 9 13 hvcurveto
          35 callsubr
          -33 -13 -9 -13 vhcurveto
          36 callgsubr
          vhcurveto
          -256 -29 callgsubr
          189 -210 -81 callsubr
        </CharString>
        <CharString name="imacron">
          -244 31 612 -81 callgsubr
          94 -614 -67 callgsubr
        </CharString>
        <CharString name="infinity">
          132 458 444 rmoveto
          -73 -44 -57 -57 -24 hvcurveto
          82 -31 -46 32 -57 hhcurveto
          -84 -60 -69 -98 -93 54 -69 80 73 44 57 57 24 hvcurveto
          -82 31 46 -32 57 hhcurveto
          84 60 69 98 93 -54 69 -80 hvcurveto
          -278 -269 rmoveto
          -46 -26 46 58 61 29 47 45 39 34 -35 -76 24 hvcurveto
          -41 -15 -32 -60 -52 hhcurveto
          269 -3 rmoveto
          -39 -34 35 76 -24 hvcurveto
          41 15 32 60 52 hhcurveto
          46 26 -46 -58 -61 -29 -47 -45 hvcurveto
          endchar
        </CharString>
        <CharString name="integral">
          -200 67 -159 rmoveto
          83 45 74 178 hvcurveto
          163 -11 198 158 vvcurveto
          141 19 60 47 vhcurveto
          15 11 -6 3 hhcurveto
          10 8 11 20 27 -41 6 -23 -83 -45 -74 -178 hvcurveto
          -159 11 -196 -164 vvcurveto
          -141 -19 -60 -47 vhcurveto
          -16 -10 6 -3 hhcurveto
          -10 -8 -11 -20 -27 41 -6 23 hvcurveto
          endchar
        </CharString>
        <CharString name="iogonek">
          -24 callgsubr
          96 -718 rmoveto
          -18 callsubr
          19 7 30 17 28 hvcurveto
          8 4 4 6 8 vvcurveto
          -62 callgsubr
          -9 5 -6 10 -4 vhcurveto
          -21 -34 -7 -38 -22 -56 callgsubr
          endchar
        </CharString>
        <CharString name="itilde">
          -270 -1 592 -69 callgsubr
          135 -598 -67 callgsubr
        </CharString>
        <CharString name="j">
          -249 127 -76 callgsubr
          -67 -819 -81 callsubr
        </CharString>
        <CharString name="jcircumflex">
          -249 37 576 -107 callgsubr
          23 -788 -81 callsubr
        </CharString>
        <CharString name="k">
          -30 callsubr
          endchar
        </CharString>
        <CharString name="kcommaaccent">
          -30 callsubr
          -177 -79 rmoveto
          -10 hlineto
          -26 -12 -13 -19 hvcurveto
          -76 -29 -38 -23 -2 callgsubr
          27 57 60 96 17 -12 11 -23 vhcurveto
          endchar
        </CharString>
        <CharString name="kgreenlandic">
          -46 124 -2 rmoveto
          8 callsubr
          228 6 vlineto
          151 -237 rlineto
          -13 8 16 0 20 hhcurveto
          15 hlineto
          27 12 3 11 4 -2 4 -5 8 hvcurveto
          -161 244 143 215 rlineto
          8 13 2 7 5 vvcurveto
          7 -10 6 -23 38 callgsubr
          -17 -2 -12 -7 hvcurveto
          -145 -228 rlineto
          -5 220 33 callgsubr
          -483 -75 callsubr
          endchar
        </CharString>
        <CharString name="l">
          -228 182 -6 0 callgsubr
        </CharString>
        <CharString name="lacute">
          -228 112 782 -105 callsubr
          70 -788 0 callgsubr
        </CharString>
        <CharString name="lcaron">
          -228 182 -6 -69 callsubr
          67 534 -34 callgsubr
          endchar
        </CharString>
        <CharString name="lcommaaccent">
          -228 182 -6 -69 callsubr
          -71 -229 -79 callsubr
          endchar
        </CharString>
        <CharString name="ldot">
          -189 182 -6 -69 callsubr
          83 315 5 callgsubr
        </CharString>
        <CharString name="less">
          -50 384 9 rmoveto
          20 -10 7 16 17 vvcurveto
          14 vlineto
          17 -7 27 callgsubr
          6 11 17 vvcurveto
          14 vlineto
          21 -8 11 -18 -9 vhcurveto
          -331 -174 rlineto
          -15 -7 -6 -11 -17 vvcurveto
          -17 vlineto
          -17 6 -10 15 -8 vhcurveto
          endchar
        </CharString>
        <CharString name="lessequal">
          -45 388 114 rmoveto
          26 23 rlineto
          14 vlineto
          17 -6 27 callgsubr
          5 11 17 vvcurveto
          14 vlineto
          21 -8 11 -17 -9 vhcurveto
          -331 -174 rlineto
          -14 -7 -7 -11 -17 vvcurveto
          -17 vlineto
          -17 7 -10 14 -8 vhcurveto
          333 -288 rmoveto
          12 callsubr
        </CharString>
        <CharString name="logicalnot">
          -49 370 77 rmoveto
          23 hlineto
          19 8 8 14 hvcurveto
          209 vlineto
          21 -8 9 -19 vhcurveto
          -346 hlineto
          -48 callgsubr
          -13 -59 callsubr
          297 -166 hlineto
          -14 8 -8 18 vhcurveto
          endchar
        </CharString>
        <CharString name="longs">
          -225 131 28 callsubr
          601 vlineto
          -65 callgsubr
          endchar
        </CharString>
        <CharString name="lozenge">
          -52 216 -25 rmoveto
          17 hlineto
          18 12 6 15 6 hvcurveto
          136 330 rlineto
          3 8 2 6 7 vvcurveto
          7 -2 6 -3 7 vhcurveto
          -137 331 rlineto
          15 -6 -12 6 -18 hhcurveto
          -14 hlineto
          -17 -13 -6 -15 -5 hvcurveto
          -138 -331 rlineto
          -4 -7 -1 -6 -7 vvcurveto
          -6 1 -7 4 -7 vhcurveto
          136 -331 rlineto
          -15 6 12 -6 17 hhcurveto
          8 84 rmoveto
          -108 288 108 287 109 -287 rlineto
          endchar
        </CharString>
        <CharString name="lslash">
          -222 235 71 rmoveto
          -7 -6 -5 -19 hhcurveto
          -20 -17 11 46 hvcurveto
          271 vlineto
          43 25 21 callgsubr
          -43 -25 rlineto
          290 -89 callsubr
          -340 vlineto
          -27 -16 20 callsubr
          27 16 rlineto
          -229 vlineto
          -102 65 -19 41 25 43 8 22 8 -7 39 -14 vhcurveto
          endchar
        </CharString>
        <CharString name="m">
          222 525 529 rmoveto
          -52 -47 -31 -46 -31 hvcurveto
          56 -21 -46 21 -47 hhcurveto
          -53 -44 -32 -43 -26 hvcurveto
          32 -6 -1 36 -25 hhcurveto
          -11 -47 -5 -18 hvcurveto
          -6 10 -38 -82 vvcurveto
          -353 -1 callgsubr
          11 -18 callgsubr
          23 6 34 47 49 hhcurveto
          47 22 -36 -61 hvcurveto
          -339 16 callgsubr
          347 vlineto
          16 vlineto
          33 12 34 40 44 hhcurveto
          46 22 -36 -61 hvcurveto
          -339 -75 callsubr
          -3 callsubr
          347 vlineto
          115 -60 47 -67 vhcurveto
          endchar
        </CharString>
        <CharString name="macron">
          -243 27 612 -81 callgsubr
          endchar
        </CharString>
        <CharString name="minus">
          -49 47 186 rmoveto
          355 -12 callgsubr
          13 -49 callgsubr
          -355 hlineto
          -48 callgsubr
          -13 -59 callsubr
          endchar
        </CharString>
        <CharString name="multiply">
          -50 268 227 rmoveto
          129 171 13 17 -1 6 -11 9 rlinecurve
          -17 15 -10 8 -10 5 -10 -12 rlinecurve
          -129 -173 -130 173 -11 14 -10 -9 -8 -6 rlinecurve
          -18 -15 -12 -10 3 -9 10 -13 rlinecurve
          130 -171 -130 -171 -10 -13 -3 -9 12 -10 rlinecurve
          18 -15 8 -6 10 -9 11 14 rlinecurve
          130 173 129 -173 10 -12 10 5 10 8 rlinecurve
          17 15 11 9 1 6 -13 17 rlinecurve
          endchar
        </CharString>
        <CharString name="n">
          115 -2 -92 callsubr
          endchar
        </CharString>
        <CharString name="nacute">
          237 -91 callsubr
          -122 -587 -92 callsubr
          endchar
        </CharString>
        <CharString name="nacute.loclPLK">
          237 585 -78 callsubr
          -122 -587 -92 callsubr
          endchar
        </CharString>
        <CharString name="napostrophe">
          20 537 -79 callsubr
          95 -539 -92 callsubr
          endchar
        </CharString>
        <CharString name="ncaron">
          237 583 -103 callgsubr
          -122 -585 -92 callsubr
          endchar
        </CharString>
        <CharString name="ncommaaccent">
          115 -2 -92 callsubr
          85 -233 -79 callsubr
          endchar
        </CharString>
        <CharString name="nine">
          -39 110 -4 rmoveto
          64 249 163 296 152 -63 96 -126 -109 -85 -80 -129 -121 71 -80 97 47 39 14 19 28 hvcurveto
          -31 -113 -75 -97 -131 -56 rrcurveto
          -7 -3 -1 -5 -3 vvcurveto
          -12 12 -41 21 vhcurveto
          125 369 rmoveto
          -56 -54 37 96 93 58 40 48 50 58 -32 -141 -20 -1 -20 -2 -20 hvcurveto
          -15 -23 -37 -18 -41 hhcurveto
          endchar
        </CharString>
        <CharString name="notequal">
          -49 389 271 rmoveto
          16 28 callgsubr
          -16 vhcurveto
          -58 hlineto
          41 63 rlineto
          19 12 -1 12 -32 hhcurveto
          -6 hlineto
          -18 -7 -8 -12 -8 hvcurveto
          -48 -74 rlineto
          -203 hlineto
          10 callgsubr
          159 hlineto
          -62 -96 rlineto
          -97 30 callsubr
          -8 vlineto
          -19 8 -11 16 vhcurveto
          52 hlineto
          -42 -65 rlineto
          -22 -13 0 -11 36 hhcurveto
          4 hlineto
          19 5 6 14 9 hvcurveto
          51 78 rlineto
          207 33 callsubr
          -163 hlineto
          62 96 rlineto
          endchar
        </CharString>
        <CharString name="ntilde">
          117 592 rmoveto
          -106 callsubr
          8 -598 -92 callsubr
          endchar
        </CharString>
        <CharString name="numbersign">
          16 117 -2 rmoveto
          7 hlineto
          27 9 7 14 1 hvcurveto
          25 177 rlineto
          100 hlineto
          -19 -138 -5 -35 -6 vvcurveto
          -13 9 -6 20 vhcurveto
          8 hlineto
          26 10 7 14 1 hvcurveto
          25 177 rlineto
          81 29 callsubr
          17 -21 callgsubr
          -70 hlineto
          20 147 rlineto
          77 29 callsubr
          17 -21 callgsubr
          -65 hlineto
          23 169 rlineto
          13 2 -10 7 -21 hhcurveto
          -9 hlineto
          -28 -8 -7 -14 -2 hvcurveto
          -23 -168 rlineto
          -100 hlineto
          24 169 rlineto
          13 2 -9 7 -22 hhcurveto
          -7 hlineto
          -28 -8 -7 -14 -2 hvcurveto
          -24 -168 rlineto
          -80 30 callgsubr
          -17 15 callgsubr
          70 hlineto
          -20 -147 rlineto
          -80 30 callgsubr
          -17 15 callgsubr
          68 hlineto
          -18 -130 -7 -44 -6 vvcurveto
          -12 10 -6 20 vhcurveto
          81 275 rmoveto
          20 147 rlineto
          100 hlineto
          -20 -147 rlineto
          endchar
        </CharString>
        <CharString name="o">
          -21 240 -6 -37 callgsubr
          174 -66 96 -124 -51 callgsubr
        </CharString>
        <CharString name="oacute">
          1 callgsubr
          8 -591 -37 callgsubr
          174 -66 96 -124 -51 callgsubr
        </CharString>
        <CharString name="oacute.loclPLK">
          -21 232 585 -78 callsubr
          8 -591 -37 callgsubr
          174 -66 96 -124 -51 callgsubr
        </CharString>
        <CharString name="obreve">
          -21 239 -74 callsubr
          1 -591 -37 callgsubr
          174 -66 96 -124 -51 callgsubr
        </CharString>
        <CharString name="ocircumflex">
          -21 149 576 -107 callgsubr
          91 -582 -37 callgsubr
          174 -66 96 -124 -51 callgsubr
        </CharString>
        <CharString name="odieresis">
          -21 176 607 -100 callsubr
          -62 -613 -37 callgsubr
          174 -66 96 -124 -51 callgsubr
        </CharString>
        <CharString name="oe">
          224 639 108 rmoveto
          -10 -31 -42 -76 hhcurveto
          -80 -32 50 111 -6 hvcurveto
          249 hlineto
          12 21 29 12 170 -59 91 -116 -61 -47 -21 -40 -33 hvcurveto
          40 -31 -43 21 -56 hhcurveto
          -131 -62 -97 -173 -172 61 -93 132 56 44 20 39 30 hvcurveto
          -40 35 51 -19 67 hhcurveto
          -45 callsubr
          -400 -42 rmoveto
          -72 -4 callsubr
          134 31 62 72 44 31 -22 -44 17 hvcurveto
          -11 -37 -6 -45 -51 vvcurveto
          -50 5 -43 11 -35 vhcurveto
          -43 -17 -30 -21 -44 hhcurveto
          269 391 23 callsubr
        </CharString>
        <CharString name="ogonek">
          -242 135 -183 rmoveto
          24 23 6 13 19 hvcurveto
          9 6 4 9 12 vvcurveto
          15 -7 9 -13 vhcurveto
          -18 callsubr
          20 8 31 18 30 hvcurveto
          -43 16 rlineto
          -34 -39 -10 -49 -27 vvcurveto
          -25 9 -63 83 vhcurveto
          endchar
        </CharString>
        <CharString name="ograve">
          -21 263 585 -98 callsubr
          -23 -591 -37 callgsubr
          174 -66 96 -124 -51 callgsubr
        </CharString>
        <CharString name="ohorn">
          -21 240 -6 -84 callgsubr
        </CharString>
        <CharString name="ohungarumlaut">
          -21 152 585 -80 callgsubr
          -40 -591 -37 callgsubr
          174 -66 96 -124 -51 callgsubr
        </CharString>
        <CharString name="omacron">
          -21 143 612 -81 callgsubr
          97 -618 -37 callgsubr
          174 -66 96 -124 -51 callgsubr
        </CharString>
        <CharString name="one">
          -39 64 hmoveto
          330 16 callsubr
          -113 609 hlineto
          12 -16 9 -15 vhcurveto
          -202 -45 rlineto
          -12 -3 -6 -5 -11 vvcurveto
          -18 6 -33 14 vhcurveto
          147 24 rlineto
          -539 -133 vlineto
          -14 -33 callsubr
          14 vhcurveto
          endchar
        </CharString>
        <CharString name="oneeighth">
          130 114 -2 rmoveto
          12 41 callgsubr
          12 6 hvcurveto
          312 671 rlineto
          1 4 2 3 3 vvcurveto
          5 -4 2 -9 vhcurveto
          -12 hlineto
          -12 -10 -4 -13 -5 hvcurveto
          -312 -671 rlineto
          -2 -4 -2 -4 -2 vvcurveto
          -5 5 -2 8 vhcurveto
          27 299 rmoveto
          8 hlineto
          12 9 4 10 hvcurveto
          379 vlineto
          7 -9 5 -7 vhcurveto
          -101 -26 rlineto
          -6 -2 -3 -3 -6 vvcurveto
          -11 3 -19 9 vhcurveto
          64 14 rlineto
          -338 vlineto
          -10 10 -4 11 vhcurveto
          338 -301 rmoveto
          65 48 43 77 62 -31 25 -34 19 hvcurveto
          31 16 24 30 49 vvcurveto
          70 -50 30 -51 -56 -44 -35 -69 -48 21 -27 26 -17 vhcurveto
          -32 -17 -28 -30 -61 vvcurveto
          -79 49 -38 62 vhcurveto
          10 245 rmoveto
          -32 16 -27 17 42 vvcurveto
          40 23 18 27 29 23 -18 -41 -35 -17 -22 -26 -17 vhcurveto
          -10 -202 rmoveto
          -32 -29 24 53 44 19 24 27 18 hvcurveto
          39 -19 38 -14 -53 vvcurveto
          -48 -27 -29 -35 vhcurveto
          endchar
        </CharString>
        <CharString name="onehalf">
          143 -57 callgsubr
          244 -297 -49 callsubr
          endchar
        </CharString>
        <CharString name="onequarter">
          88 -57 callgsubr
          324 -299 rmoveto
          -26 callgsubr
        </CharString>
        <CharString name="ordfeminine">
          -217 107 440 rmoveto
          30 23 12 18 19 hvcurveto
          -18 3 3 -9 13 hhcurveto
          6 39 2 9 hvcurveto
          3 -6 19 41 vvcurveto
          95 vlineto
          60 -34 36 -71 -46 -49 -16 -15 -7 10 -33 7 vhcurveto
          6 34 17 35 hhcurveto
          35 11 -18 -23 hvcurveto
          -4 vlineto
          -66 -1 -80 -11 -79 vvcurveto
          -49 31 -29 47 vhcurveto
          16 51 rmoveto
          -21 -9 10 19 41 46 1 36 1 hvcurveto
          -46 vlineto
          -17 -13 -19 -9 -20 hhcurveto
          endchar
        </CharString>
        <CharString name="ordmasculine">
          -206 147 440 rmoveto
          73 40 47 86 86 -40 49 -73 -73 -41 -49 -86 -85 40 -48 74 hvcurveto
          -1 56 rmoveto
          -33 -15 25 53 53 15 25 33 34 15 -26 -52 -53 -15 -25 -34 hvcurveto
          endchar
        </CharString>
        <CharString name="oslash">
          -21 390 447 -47 callsubr
        </CharString>
        <CharString name="oslashacute">
          1 callgsubr
          158 -138 -47 callsubr
        </CharString>
        <CharString name="otilde">
          -21 112 592 rmoveto
          -106 callsubr
          138 -602 -37 callgsubr
          174 -66 96 -124 -51 callgsubr
        </CharString>
        <CharString name="p">
          -14 116 -208 rmoveto
          -3 callsubr
          231 vlineto
          -29 26 30 -22 49 hhcurveto
          99 67 96 169 159 -60 111 -98 -45 -43 -24 -51 -31 hvcurveto
          34 -6 -1 34 -25 hhcurveto
          -11 -47 -4 -18 hvcurveto
          -6 10 -39 -82 vvcurveto
          -559 2 callsubr
        </CharString>
        <CharString name="paragraph">
          -32 232 -173 rmoveto
          14 hlineto
          17 7 8 14 hvcurveto
          789 78 -789 vlineto
          -14 7 -8 17 vhcurveto
          14 hlineto
          17 7 8 14 hvcurveto
          789 30 vlineto
          14 6 7 17 hvcurveto
          14 vlineto
          17 -6 7 -14 vhcurveto
          -207 hlineto
          -112 -92 -107 -131 -123 79 -101 100 -14 hvcurveto
          -375 vlineto
          -14 7 -8 17 vhcurveto
          endchar
        </CharString>
        <CharString name="parenleft">
          -249 236 -212 rmoveto
          15 13 18 10 6 -3 7 -6 7 hvcurveto
          -85 100 -42 168 182 vvcurveto
          182 42 168 86 100 vhcurveto
          7 8 2 7 7 vvcurveto
          14 -18 11 -12 -7 -7 -3 -7 -7 vhcurveto
          -102 -101 -65 -181 -205 vvcurveto
          -205 63 -182 104 -100 vhcurveto
          -7 7 8 -4 7 hhcurveto
          endchar
        </CharString>
        <CharString name="parenright">
          -249 13 -212 rmoveto
          7 8 4 7 7 hvcurveto
          102 101 65 181 205 vvcurveto
          205 -63 182 -104 100 vhcurveto
          7 -7 -7 3 -7 hhcurveto
          -14 -16 -14 -12 -6 3 -7 6 -8 hvcurveto
          87 -100 41 -168 -182 vvcurveto
          -184 -43 -169 -86 -100 vhcurveto
          -5 -6 -3 -6 -5 vvcurveto
          -11 15 -17 14 vhcurveto
          endchar
        </CharString>
        <CharString name="partialdiff">
          -87 189 -6 rmoveto
          97 102 67 276 260 -91 141 -128 -64 -53 -28 -31 -14 21 -30 11 hvcurveto
          10 20 30 45 hhcurveto
          71 61 -113 -183 3 hvcurveto
          31 -27 -38 14 -39 hhcurveto
          -87 -77 -84 -139 -149 88 -48 75 hvcurveto
          67 vmoveto
          -61 -14 72 57 76 37 78 55 38 23 -17 -33 25 hvcurveto
          -136 -42 -97 -61 vhcurveto
          endchar
        </CharString>
        <CharString name="percent">
          188 -42 callsubr
          56 vmoveto
          8 callgsubr
          endchar
        </CharString>
        <CharString name="period">
          -310 85 -2 rmoveto
          9 callgsubr
        </CharString>
        <CharString name="periodcentered">
          -284 113 309 5 callgsubr
        </CharString>
        <CharString name="perthousand">
          488 -42 callsubr
          300 hmoveto
          57 68 27 134 135 -68 29 -57 -60 -65 -29 -135 -134 68 -27 57 hvcurveto
          -300 56 rmoveto
          8 callgsubr
          300 hmoveto
          8 callgsubr
          endchar
        </CharString>
        <CharString name="pi">
          9 90 -2 rmoveto
          15 hlineto
          19 14 9 16 5 hvcurveto
          30 103 23 198 5 127 rrcurveto
          126 -305 hlineto
          -106 3 -42 38 vhcurveto
          20 hlineto
          22 9 10 15 hvcurveto
          25 -7 38 68 vvcurveto
          297 42 vlineto
          16 8 4 18 2 hvcurveto
          3 26 0 3 2 vvcurveto
          15 -8 4 -15 vhcurveto
          -324 hlineto
          -68 -53 -10 -34 -23 2 -14 19 hvcurveto
          12 12 9 56 hhcurveto
          -5 -131 -23 -180 -29 -112 rrcurveto
          -1 -3 -1 -3 -3 vvcurveto
          -12 12 -9 21 vhcurveto
          endchar
        </CharString>
        <CharString name="plus">
          -49 221 -2 rmoveto
          7 hlineto
          21 9 6 14 hvcurveto
          179 136 vlineto
          13 -1 callsubr
          7 vlineto
          21 -5 9 -13 vhcurveto
          -136 179 hlineto
          14 -9 6 -21 vhcurveto
          -7 hlineto
          -21 -9 -6 -14 hvcurveto
          -179 -135 vlineto
          -13 -6 -13 -21 hvcurveto
          -7 vlineto
          -21 6 -5 13 vhcurveto
          135 -179 hlineto
          -14 9 -6 21 vhcurveto
          endchar
        </CharString>
        <CharString name="plusminus">
          -49 220 129 rmoveto
          7 hlineto
          21 9 11 19 hvcurveto
          168 130 vlineto
          17 28 callgsubr
          -17 vhcurveto
          -130 169 hlineto
          20 -9 10 -21 vhcurveto
          -7 hlineto
          -20 -10 -10 -20 hvcurveto
          -169 -130 vlineto
          10 callgsubr
          130 -168 hlineto
          -19 10 -11 20 vhcurveto
          -165 -129 rmoveto
          337 hlineto
          17 8 10 20 hvcurveto
          13 vlineto
          20 -8 10 -17 vhcurveto
          -337 30 callsubr
          -13 vlineto
          -20 8 -10 16 vhcurveto
          endchar
        </CharString>
        <CharString name="product">
          102 150 -104 rmoveto
          -3 callsubr
          710 204 -710 -1 callgsubr
          11 7 callsubr
          710 76 vlineto
          -9 callsubr
          12 -49 callgsubr
          -528 hlineto
          -13 -33 callsubr
          13 vhcurveto
          76 -710 hlineto
          -71 callsubr
          endchar
        </CharString>
        <CharString name="q">
          -17 355 -208 rmoveto
          11 7 callsubr
          689 vlineto
          14 -10 8 -23 vhcurveto
          -6 hlineto
          -16 -11 -3 -9 -4 hvcurveto
          -4 -20 -4 -19 -3 -20 rrcurveto
          51 -31 -43 24 -45 hhcurveto
          -95 -62 -109 -162 -169 67 -95 98 50 30 22 29 26 hvcurveto
          -231 -1 callgsubr
          -122 276 rmoveto
          -66 -31 67 122 125 30 74 59 33 33 -25 -44 26 hvcurveto
          -274 vlineto
          -30 -22 -29 -15 -33 hhcurveto
          endchar
        </CharString>
        <CharString name="question">
          -107 147 202 rmoveto
          15 hlineto
          24 7 7 13 2 hvcurveto
          7 51 34 39 45 51 rrcurveto
          46 53 49 54 72 vvcurveto
          91 -74 73 -120 -67 -85 -23 -34 -14 22 -37 10 vhcurveto
          14 37 34 60 hhcurveto
          70 38 -33 -65 -54 -37 -41 -45 -50 hvcurveto
          -53 -59 -29 -60 -45 vvcurveto
          -14 9 -9 21 vhcurveto
          -3 -204 rmoveto
          17 hlineto
          28 -27 callsubr
          66 -53 callsubr
          -28 vhcurveto
          -17 hlineto
          -28 -12 -8 -14 hvcurveto
          -66 11 callsubr
          endchar
        </CharString>
        <CharString name="questiondown">
          -107 247 525 rmoveto
          -17 hlineto
          -28 -12 -8 -14 hvcurveto
          -66 11 callsubr
          17 hlineto
          28 -27 callsubr
          66 -53 callsubr
          -28 vhcurveto
          -3 -204 rmoveto
          -15 hlineto
          -24 -7 -7 -13 -2 hvcurveto
          -7 -51 -34 -39 -45 -51 rrcurveto
          -46 -53 -49 -54 -72 vvcurveto
          -91 74 -73 120 67 85 23 34 14 -22 37 -10 vhcurveto
          -14 -37 -34 -60 hhcurveto
          -70 -38 33 65 54 37 41 45 50 hvcurveto
          53 59 29 60 45 vvcurveto
          14 -9 9 -21 vhcurveto
          endchar
        </CharString>
        <CharString name="quotedbl">
          -189 89 472 rmoveto
          -23 callgsubr
          128 hmoveto
          -23 callgsubr
          endchar
        </CharString>
        <CharString name="quotedblbase">
          -150 68 -116 -20 callsubr
        </CharString>
        <CharString name="quotedblleft">
          -150 82 515 rmoveto
          -10 callsubr
          141 hmoveto
          -10 callsubr
          endchar
        </CharString>
        <CharString name="quotedblright">
          -150 68 530 -20 callsubr
        </CharString>
        <CharString name="quoteleft">
          -288 92 515 rmoveto
          -10 callsubr
          endchar
        </CharString>
        <CharString name="quoteright">
          -288 67 530 5 callsubr
          endchar
        </CharString>
        <CharString name="quotesinglbase">
          -288 67 -116 5 callsubr
          endchar
        </CharString>
        <CharString name="quotesingle">
          -334 83 472 rmoveto
          -23 callgsubr
          endchar
        </CharString>
        <CharString name="quotesingle.loclGUA">
          -327 70 396 rmoveto
          21 1 41 107 168 vvcurveto
          17 -15 11 -25 vhcurveto
          -9 hlineto
          -27 -13 -13 -19 hvcurveto
          -2 -257 rlineto
          -12 18 -3 11 vhcurveto
          endchar
        </CharString>
        <CharString name="r">
          -161 123 -2 -8 callgsubr
        </CharString>
        <CharString name="racute">
          -161 164 582 -105 callsubr
          -41 -584 -8 callgsubr
        </CharString>
        <CharString name="radical">
          -4 262 -150 rmoveto
          23 hlineto
          18 14 8 13 3 hvcurveto
          182 921 rlineto
          8 vlineto
          7 -8 6 -20 vhcurveto
          -14 hlineto
          -21 -13 -8 -13 -2 hvcurveto
          -139 -761 -5 -20 -6 -29 -2 -20 rlinecurve
          -2 hlineto
          -3 20 -6 24 -10 28 -83 325 rcurveline
          14 -3 -7 7 -9 hhcurveto
          -13 -60 -32 -18 -35 hvcurveto
          -10 -5 -5 -4 -8 vvcurveto
          -3 1 -3 8 -22 vhcurveto
          -10 3 6 -3 7 hhcurveto
          5 6 3 21 40 hvcurveto
          124 -425 rlineto
          -15 4 13 -6 19 hhcurveto
          endchar
        </CharString>
        <CharString name="rcaron">
          -161 164 580 -103 callgsubr
          -41 -582 -8 callgsubr
        </CharString>
        <CharString name="rcommaaccent">
          -161 123 -2 -64 callgsubr
          -41 -235 -79 callsubr
          endchar
        </CharString>
        <CharString name="registered">
          -14 callsubr
          -77 102 rmoveto
          8 hlineto
          16 6 5 8 hvcurveto
          170 33 vlineto
          34 14 -12 -46 14 hvcurveto
          35 -116 rlineto
          -5 1 9 -4 11 hhcurveto
          10 hlineto
          15 7 4 5 2 0 3 -2 4 hvcurveto
          -36 116 -12 39 -11 26 -17 9 rlinecurve
          2 vlineto
          32 16 22 33 51 vvcurveto
          74 -38 30 -75 vhcurveto
          -82 hlineto
          -11 -5 -5 -13 hvcurveto
          -383 vlineto
          -8 7 -5 15 vhcurveto
          29 228 rmoveto
          141 52 vlineto
          32 22 -21 -48 -39 -23 -33 -28 hvcurveto
          endchar
        </CharString>
        <CharString name="ring">
          -242 128 -25 callgsubr
          endchar
        </CharString>
        <CharString name="s">
          -22 callgsubr
          endchar
        </CharString>
        <CharString name="sacute">
          -145 173 -91 callsubr
          -8 -594 -86 callsubr
          endchar
        </CharString>
        <CharString name="sacute.loclPLK">
          -145 173 585 -78 callsubr
          -8 -594 -86 callsubr
          endchar
        </CharString>
        <CharString name="scaron">
          -145 173 583 -103 callgsubr
          -8 -592 -86 callsubr
          endchar
        </CharString>
        <CharString name="scedilla">
          -145 319 140 rmoveto
          84 -42 41 -77 35 vhcurveto
          -41 21 -34 26 50 vvcurveto
          40 31 21 37 vhcurveto
          42 27 -25 6 hhcurveto
          11 20 39 15 23 -57 20 -54 -84 -63 -57 -85 -75 39 -39 69 -31 hvcurveto
          55 -27 33 -28 -50 vvcurveto
          -49 -28 -24 -48 vhcurveto
          -56 -34 39 -8 hhcurveto
          -11 -23 -37 -14 -21 54 -38 73 -3 hvcurveto
          -19 -56 -1 -6 -63 callgsubr
          15 54 rlineto
          69 13 52 53 80 vvcurveto
          endchar
        </CharString>
        <CharString name="scircumflex">
          -145 90 576 -107 callgsubr
          75 -585 -86 callsubr
          endchar
        </CharString>
        <CharString name="scommaaccent">
          -22 callgsubr
          -32 -226 -79 callsubr
          endchar
        </CharString>
        <CharString name="section">
          -143 171 -6 rmoveto
          75 71 45 91 47 -21 34 -27 24 hvcurveto
          34 23 23 36 50 vvcurveto
          85 -54 36 -54 27 vhcurveto
          -41 19 -47 18 48 vvcurveto
          36 25 20 40 vhcurveto
          42 27 -24 6 hhcurveto
          12 19 39 15 22 -57 20 -54 -75 -69 -45 -89 -47 21 -32 27 -23 hvcurveto
          -36 -23 -24 -40 -49 vvcurveto
          -83 52 -32 49 -24 vhcurveto
          60 -31 39 -15 -47 vvcurveto
          -34 -24 -23 -44 vhcurveto
          -51 -29 32 -7 hhcurveto
          -11 -22 -37 -16 -22 57 -31 68 hvcurveto
          24 282 rmoveto
          -41 17 -36 18 50 vvcurveto
          42 24 18 24 7 vhcurveto
          43 -20 34 -17 -48 vvcurveto
          -42 -23 -19 -25 -6 vhcurveto
          endchar
        </CharString>
        <CharString name="semicolon">
          -310 85 415 -36 callsubr
          -38 -531 4 callsubr
        </CharString>
        <CharString name="seven">
          -39 119 -2 rmoveto
          12 hlineto
          20 16 5 11 4 hvcurveto
          252 624 rlineto
          1 3 1 4 4 vvcurveto
          20 -12 31 -8 vhcurveto
          -355 hlineto
          -14 -33 callsubr
          14 vhcurveto
          278 hlineto
          -246 -598 rlineto
          -2 -6 -2 -6 -3 vvcurveto
          -13 13 -4 28 vhcurveto
          endchar
        </CharString>
        <CharString name="six">
          -39 226 -5 rmoveto
          110 84 80 129 121 -71 80 -97 -47 -39 -14 -19 -28 hvcurveto
          31 114 76 96 131 56 rrcurveto
          7 3 1 5 3 vvcurveto
          12 -12 41 -21 -65 -249 -163 -296 -152 64 -96 125 vhcurveto
          3 72 rmoveto
          -50 -58 33 141 19 1 21 2 20 hvcurveto
          15 23 37 17 41 hhcurveto
          56 54 -37 -95 -94 -57 -40 -49 hvcurveto
          endchar
        </CharString>
        <CharString name="slash">
          -178 12 -5 callgsubr
        </CharString>
        <CharString name="space">
          -361 endchar
        </CharString>
        <CharString name="sterling">
          -87 36 hmoveto
          333 16 callsubr
          -240 hlineto
          21 13 36 26 138 vvcurveto
          90 118 vlineto
          -44 callsubr
          -118 92 hlineto
          91 31 40 72 vhcurveto
          32 23 -9 8 hhcurveto
          16 6 45 4 27 -63 5 -38 -124 -47 -82 -126 hvcurveto
          -87 -55 vlineto
          -14 -33 callsubr
          14 vhcurveto
          55 -180 hlineto
          -86 -86 16 -43 vvcurveto
          -16 15 callgsubr
          endchar
        </CharString>
        <CharString name="summation">
          -24 44 -102 rmoveto
          392 hlineto
          16 8 10 20 hvcurveto
          25 vlineto
          19 -8 11 -16 vhcurveto
          -298 hlineto
          -1 4 175 303 rlineto
          4 8 2 6 7 vvcurveto
          7 -2 7 -4 7 vhcurveto
          -162 292 rlineto
          4 272 vlineto
          17 7 11 19 hvcurveto
          12 vlineto
          20 -7 10 -17 vhcurveto
          -370 hlineto
          -18 -9 -8 -16 hvcurveto
          -2 vlineto
          -14 3 -11 7 -11 vhcurveto
          190 -338 -198 -336 rlineto
          -7 -11 -3 -10 -13 vvcurveto
          -2 vlineto
          -20 9 -10 18 vhcurveto
          endchar
        </CharString>
        <CharString name="t">
          -200 203 -6 rmoveto
          17 callsubr
          hvcurveto
          -68 callgsubr
          -102 67 -19 45 vhcurveto
          endchar
        </CharString>
        <CharString name="tbar">
          -214 249 260 rmoveto
          15 -1 callsubr
          10 vlineto
          21 -5 9 -15 vhcurveto
          -74 121 66 16 callsubr
          -66 105 hlineto
          21 callsubr
          -10 hlineto
          -21 -10 39 callsubr
          -12 -105 rlineto
          -33 hlineto
          -14 -33 callsubr
          14 vhcurveto
          33 -121 -52 hlineto
          9 callsubr
          52 -145 hlineto
          -102 67 -19 45 17 callsubr
          vhcurveto
          -4 callgsubr
          131 vlineto
          endchar
        </CharString>
        <CharString name="tcaron">
          -200 243 578 -34 callgsubr
          -40 -584 rmoveto
          17 callsubr
          hvcurveto
          -68 callgsubr
          -102 67 -19 45 vhcurveto
          endchar
        </CharString>
        <CharString name="thorn">
          -15 116 -208 rmoveto
          8 callsubr
          231 vlineto
          -29 26 30 -22 50 hhcurveto
          98 67 96 168 161 -62 110 -96 -42 -40 -21 -44 -31 hvcurveto
          266 -53 callsubr
          -28 vhcurveto
          -6 hlineto
          -28 -12 -8 -14 hvcurveto
          -916 2 callsubr
        </CharString>
        <CharString name="three">
          -39 202 -6 rmoveto
          116 96 70 136 112 -68 59 -58 16 hvcurveto
          4 vlineto
          53 22 50 41 81 vvcurveto
          108 -74 63 -119 -58 -96 -23 -30 -15 22 -37 11 vhcurveto
          14 32 33 71 hhcurveto
          91 21 -57 -40 -46 -29 -84 -97 hvcurveto
          -36 30 callgsubr
          -11 15 callgsubr
          40 hlineto
          84 59 -30 -100 -112 -80 -28 -57 hvcurveto
          -74 -41 35 -16 hhcurveto
          -11 -24 -31 -19 -26 83 -31 95 hvcurveto
          endchar
        </CharString>
        <CharString name="threequarters">
          129 129 293 -70 callgsubr
          26 -295 6 callgsubr
          -311 -671 rlineto
          -2 -4 -2 -4 -2 vvcurveto
          -5 5 -2 8 vhcurveto
          352 hmoveto
          -26 callgsubr
        </CharString>
        <CharString name="tilde">
          -206 24 592 rmoveto
          -106 callsubr
          endchar
        </CharString>
        <CharString name="tildecomb">
          -498 -121 592 rmoveto
          -106 callsubr
          endchar
        </CharString>
        <CharString name="trademark">
          119 301 305 rmoveto
          7 hlineto
          15 7 4 8 hvcurveto
          271 5 vlineto
          78 -185 rlineto
          -5 2 4 -2 6 hhcurveto
          17 hlineto
          6 4 2 5 2 hvcurveto
          76 182 rlineto
          6 -268 hlineto
          -8 6 -4 16 vhcurveto
          6 hlineto
          15 7 4 8 hvcurveto
          372 vlineto
          8 -7 4 -15 vhcurveto
          -18 hlineto
          -11 -8 -3 -7 -3 hvcurveto
          -79 -188 -12 -32 -13 35 -78 185 rlineto
          7 -2 -8 3 -11 hhcurveto
          -20 hlineto
          -15 -6 -4 -8 hvcurveto
          -372 vlineto
          -8 6 -4 15 vhcurveto
          -166 hmoveto
          8 hlineto
          15 7 5 7 hvcurveto
          340 79 vlineto
          8 3 5 12 hvcurveto
          9 vlineto
          12 -3 5 -8 vhcurveto
          -211 hlineto
          -8 -3 -5 -12 hvcurveto
          -9 vlineto
          -12 3 -5 8 vhcurveto
          81 -340 hlineto
          -7 6 -5 15 vhcurveto
          endchar
        </CharString>
        <CharString name="two">
          -39 47 hmoveto
          348 29 callsubr
          11 -21 callgsubr
          -258 hlineto
          135 201 rlineto
          116 151 24 42 74 vvcurveto
          104 -81 63 -114 -71 -101 -35 -39 -16 22 -35 11 vhcurveto
          16 35 53 85 hhcurveto
          69 43 -38 -64 -42 -13 -27 -47 -68 hvcurveto
          -235 -334 rlineto
          -3 -3 -1 -7 -7 vvcurveto
          -19 8 -25 12 vhcurveto
          endchar
        </CharString>
        <CharString name="u">
          198 -7 -99 callsubr
          endchar
        </CharString>
        <CharString name="uacute">
          -36 callgsubr
          -34 -592 -99 callsubr
          endchar
        </CharString>
        <CharString name="ubreve">
          239 -74 callsubr
          -41 -592 -99 callsubr
          endchar
        </CharString>
        <CharString name="ucircumflex">
          149 576 -107 callgsubr
          49 -583 -99 callsubr
          endchar
        </CharString>
        <CharString name="udieresis">
          176 607 -100 callsubr
          -104 -614 -99 callsubr
          endchar
        </CharString>
        <CharString name="ugrave">
          263 585 -98 callsubr
          -65 -592 -99 callsubr
          endchar
        </CharString>
        <CharString name="uhorn">
          -30 486 581 -88 callgsubr
          endchar
        </CharString>
        <CharString name="uhungarumlaut">
          152 585 -80 callgsubr
          -82 -592 -99 callsubr
          endchar
        </CharString>
        <CharString name="umacron">
          143 612 -81 callgsubr
          55 -619 -99 callsubr
          endchar
        </CharString>
        <CharString name="underscore">
          -71 2 -138 rmoveto
          423 hlineto
          13 6 6 14 hvcurveto
          8 vlineto
          14 -6 6 -13 vhcurveto
          -423 hlineto
          -13 -6 -6 -14 hvcurveto
          -8 vlineto
          -14 6 -6 13 vhcurveto
          endchar
        </CharString>
        <CharString name="uni00A0">
          -361 endchar
        </CharString>
        <CharString name="uni00AD">
          3 callsubr
        </CharString>
        <CharString name="uni00B2">
          -218 37 298 -49 callsubr
          endchar
        </CharString>
        <CharString name="uni00B3">
          -218 129 293 -70 callgsubr
          endchar
        </CharString>
        <CharString name="uni00B5">
          -45 -31 callgsubr
        </CharString>
        <CharString name="uni00B9">
          -218 141 297 rmoveto
          8 hlineto
          12 9 4 10 hvcurveto
          379 vlineto
          7 -9 5 -7 vhcurveto
          -101 -26 rlineto
          -6 -2 -3 -3 -6 vvcurveto
          -11 3 -19 9 vhcurveto
          64 14 rlineto
          -338 vlineto
          -10 10 -4 11 vhcurveto
          endchar
        </CharString>
        <CharString name="uni0162">
          -44 415 700 rmoveto
          -376 hlineto
          35 callgsubr
          144 -604 hlineto
          -12 8 -7 18 -2 vhcurveto
          -22 -63 -44 callgsubr
          17 59 rlineto
          16 3 7 7 11 vvcurveto
          604 142 vlineto
          14 6 9 21 hvcurveto
          16 -21 callgsubr
          endchar
        </CharString>
        <CharString name="uni0163">
          -200 269 23 rmoveto
          10 -7 38 -14 vhcurveto
          -68 callgsubr
          -75 36 -30 38 -11 vhcurveto
          -22 -63 -44 callgsubr
          15 54 rlineto
          24 41 4 25 hvcurveto
          endchar
        </CharString>
        <CharString name="uni018F">
          62 254 -9 rmoveto
          150 81 98 251 265 -80 101 -147 -106 -97 -46 -27 -11 20 -39 12 hvcurveto
          15 57 51 90 hhcurveto
          91 50 -66 -205 5 hvcurveto
          -315 hlineto
          -10 -22 -29 -12 -236 65 -95 141 hvcurveto
          2 72 rmoveto
          -83 -37 63 165 hvcurveto
          259 hlineto
          -171 -9 -49 -57 -81 hhcurveto
          endchar
        </CharString>
        <CharString name="uni01C4">
          586 827 760 -103 callgsubr
          -722 -760 rmoveto
          168 hlineto
          148 103 90 260 259 -103 91 -148 hvcurveto
          -168 7 callgsubr
          -640 11 callgsubr
          530 -45 callgsubr
          -466 76 rmoveto
          548 102 vlineto
          94 67 -75 -199 -200 -67 -74 -94 hvcurveto
          endchar
        </CharString>
        <CharString name="uni01C5">
          484 747 583 -103 callgsubr
          -642 -583 rmoveto
          -59 callgsubr
          360 -76 rmoveto
          -93 callgsubr
          endchar
        </CharString>
        <CharString name="uni01C6">
          388 -67 callsubr
          475 589 -103 callgsubr
          -144 -583 rmoveto
          -93 callgsubr
          -310 67 -6 callgsubr
        </CharString>
        <CharString name="uni01C7">
          140 98 hmoveto
          239 hlineto
          14 6 9 21 hvcurveto
          16 -21 callgsubr
          -176 604 -24 callsubr
          -650 11 callgsubr
          296 -157 rmoveto
          126 50 85 126 hvcurveto
          626 -53 callsubr
          -27 vhcurveto
          -14 hlineto
          -26 -12 -8 -14 hvcurveto
          -636 vlineto
          -86 -28 -37 -67 vhcurveto
          -26 -23 9 -8 hhcurveto
          -13 -10 -41 -14 -21 54 -11 36 hvcurveto
          endchar
        </CharString>
        <CharString name="uni01C8">
          159 105 hmoveto
          -58 callsubr
          430 -76 callgsubr
          -67 -819 -81 callsubr
        </CharString>
        <CharString name="uni01C9">
          21 182 -6 -69 callsubr
          215 613 -104 callgsubr
          -67 -819 -81 callsubr
        </CharString>
        <CharString name="uni01CA">
          447 -62 callsubr
          578 -4 -56 callsubr
        </CharString>
        <CharString name="uni01CB">
          341 -62 callsubr
          606 609 -104 callgsubr
          -67 -819 -81 callsubr
        </CharString>
        <CharString name="uni01CC">
          233 609 -76 callgsubr
          -494 -609 -92 callsubr
          427 -210 -81 callsubr
        </CharString>
        <CharString name="uni01EA">
          101 445 -108 rmoveto
          -18 callsubr
          19 7 29 17 29 hvcurveto
          111 34 60 113 200 vvcurveto
          243 -89 111 -162 -161 -89 -111 -243 -243 89 -115 161 vhcurveto
          18 hlineto
          -17 -31 -6 -33 -20 -56 callgsubr
          -303 460 rmoveto
          193 55 85 103 102 56 -85 -193 -193 -56 -89 -102 -103 -55 89 193 vhcurveto
          endchar
        </CharString>
        <CharString name="uni01EB">
          -21 349 -117 rmoveto
          -18 callsubr
          20 8 30 17 29 hvcurveto
          96 20 50 90 151 vvcurveto
          174 -66 96 -124 -125 -68 -97 -173 -166 62 -92 117 -7 vhcurveto
          -21 -34 -7 -37 -22 -56 callgsubr
          -213 378 rmoveto
          134 31 62 71 71 33 -63 -133 -133 -33 -62 -71 -71 -4 callsubr
          vhcurveto
          endchar
        </CharString>
        <CharString name="uni01F1">
          586 105 hmoveto
          168 hlineto
          148 103 90 260 259 -103 91 -148 hvcurveto
          -168 7 callgsubr
          -640 11 callgsubr
          530 -45 callgsubr
          -466 76 rmoveto
          548 102 vlineto
          94 67 -75 -199 -200 -67 -74 -94 hvcurveto
          endchar
        </CharString>
        <CharString name="uni01F2">
          484 -6 callsubr
          360 -76 rmoveto
          -93 callgsubr
          endchar
        </CharString>
        <CharString name="uni01F3">
          388 -67 callsubr
          331 6 rmoveto
          -93 callgsubr
          -310 67 -6 callgsubr
        </CharString>
        <CharString name="uni021A">
          -44 221 -2 -50 callsubr
          -38 -233 -79 callsubr
          endchar
        </CharString>
        <CharString name="uni021B">
          -200 203 -6 rmoveto
          17 callsubr
          hvcurveto
          -68 callgsubr
          -102 67 -19 45 vhcurveto
          -64 -229 -79 callsubr
          endchar
        </CharString>
        <CharString name="uni0237">
          -249 60 -212 -81 callsubr
        </CharString>
        <CharString name="uni0259">
          -58 190 529 rmoveto
          -85 -66 -40 -24 -11 21 -39 14 hvcurveto
          10 31 42 76 hhcurveto
          80 32 -50 -111 6 hvcurveto
          -249 hlineto
          -12 -21 -29 -12 -170 59 -91 116 130 67 94 177 179 -68 85 -141 hvcurveto
          119 -305 rmoveto
          -105 -5 -34 -53 -65 hhcurveto
          -59 -30 53 105 hvcurveto
          endchar
        </CharString>
        <CharString name="uni02BC">
          -408 13 537 -79 callsubr
          endchar
        </CharString>
        <CharString name="uni02C9">
          -242 27 612 -81 callgsubr
          endchar
        </CharString>
        <CharString name="uni0302">
          -498 -88 576 -107 callgsubr
          endchar
        </CharString>
        <CharString name="uni0304">
          -498 -102 612 -81 callgsubr
          endchar
        </CharString>
        <CharString name="uni0306">
          -498 1 -74 callsubr
          endchar
        </CharString>
        <CharString name="uni0307">
          -498 607 vmoveto
          33 13 9 13 hvcurveto
          35 callsubr
          -33 -13 -9 -13 vhcurveto
          36 callgsubr
          vhcurveto
          endchar
        </CharString>
        <CharString name="uni0308">
          -498 -65 607 -100 callsubr
          endchar
        </CharString>
        <CharString name="uni030A">
          -498 1 -25 callgsubr
          endchar
        </CharString>
        <CharString name="uni030B">
          -498 -100 585 -80 callgsubr
          endchar
        </CharString>
        <CharString name="uni030C">
          -498 -3 583 -103 callgsubr
          endchar
        </CharString>
        <CharString name="uni0326">
          -498 -173 -235 -79 callsubr
          endchar
        </CharString>
        <CharString name="uni0327">
          -498 6 -60 rmoveto
          17 60 rlineto
          -41 hlineto
          -22 -64 -44 callgsubr
          endchar
        </CharString>
        <CharString name="uni0394">
          83 -20 callgsubr
        </CharString>
        <CharString name="uni03A9">
          101 -41 callsubr
        </CharString>
        <CharString name="uni03BC">
          -31 -31 callgsubr
        </CharString>
        <CharString name="uni1E0C">
          -7 callsubr
          4 -251 -104 callgsubr
          endchar
        </CharString>
        <CharString name="uni1E0D">
          -17 -67 callsubr
          21 73 -32 callgsubr
          9 -242 -104 callgsubr
          endchar
        </CharString>
        <CharString name="uni1E24">
          -21 callsubr
          186 -173 -104 callgsubr
          endchar
        </CharString>
        <CharString name="uni1E25">
          -13 119 -2 -50 callgsubr
          129 -173 -104 callgsubr
          endchar
        </CharString>
        <CharString name="uni1E44">
          92 295 784 -104 callgsubr
          -184 -786 -99 callgsubr
          endchar
        </CharString>
        <CharString name="uni1E45">
          244 -76 callgsubr
          -129 -609 -92 callsubr
          endchar
        </CharString>
        <CharString name="uni1E5A">
          15 115 -2 -84 callsubr
          -11 -559 -104 callgsubr
          endchar
        </CharString>
        <CharString name="uni1E5B">
          -161 123 -2 -64 callgsubr
          5 -175 -104 callgsubr
          endchar
        </CharString>
        <CharString name="uni1E62">
          -35 callgsubr
          22 -170 -104 callgsubr
          endchar
        </CharString>
        <CharString name="uni1E63">
          -22 callgsubr
          14 -166 -104 callgsubr
          endchar
        </CharString>
        <CharString name="uni1E6C">
          -44 221 -2 -50 callsubr
          8 -173 -104 callgsubr
          endchar
        </CharString>
        <CharString name="uni1E6D">
          -200 203 -6 rmoveto
          17 callsubr
          hvcurveto
          -68 callgsubr
          -102 67 -19 45 vhcurveto
          -18 -169 -104 callgsubr
          endchar
        </CharString>
        <CharString name="uni1E92">
          9 58 -45 callgsubr
          206 -175 -104 callgsubr
          endchar
        </CharString>
        <CharString name="uni1E93">
          -93 54 hmoveto
          -93 callgsubr
          148 -175 -104 callgsubr
          endchar
        </CharString>
        <CharString name="uni1E9E">
          95 359 -6 rmoveto
          87 108 53 159 123 -65 64 -86 18 hvcurveto
          118 195 rlineto
          2 3 1 4 5 vvcurveto
          20 -14 30 -8 3 vhcurveto
          -45 15 -73 18 -78 1 rrcurveto
          -150 2 -79 -85 -175 vvcurveto
          -427 11 callsubr
          8 hlineto
          28 -27 callsubr
          426 vlineto
          131 45 53 101 44 39 -8 -10 27 vhcurveto
          -125 -211 rlineto
          -2 -3 -1 -4 -5 vvcurveto
          -20 14 -33 10 vhcurveto
          35 hlineto
          68 47 -30 -99 -114 -67 -27 -47 hvcurveto
          -55 -19 35 -25 hhcurveto
          -11 -24 -32 -17 -23 62 -35 78 hvcurveto
          endchar
        </CharString>
        <CharString name="uni1EA0">
          7 50 -2 -107 callsubr
          -81 -429 -104 callgsubr
          endchar
        </CharString>
        <CharString name="uni1EA1">
          -17 197 -6 -106 callgsubr
          22 -248 -104 callgsubr
          endchar
        </CharString>
        <CharString name="uni1EA2">
          7 260 740 -96 callgsubr
          -210 -742 -107 callsubr
          endchar
        </CharString>
        <CharString name="uni1EA3">
          -17 251 563 -96 callgsubr
          -54 -569 -104 callsubr
        </CharString>
        <CharString name="uni1EA4">
          -7 343 849 rmoveto
          17 10 6 12 9 hvcurveto
          61 88 7 -15 callsubr
          -181 -96 -79 callgsubr
        </CharString>
        <CharString name="uni1EA5">
          -53 323 722 -105 callsubr
          -184 -146 -3 callgsubr
          40 -74 rlineto
          -9 5 11 -4 9 -14 callgsubr
          -3 6 -4 6 hvcurveto
          -48 88 rlineto
          15 -8 -13 7 34 callsubr
          -14 -7 -15 -9 -22 callsubr
          7 -6 12 vhcurveto
          58 -582 -104 callsubr
        </CharString>
        <CharString name="uni1EA6">
          -7 376 849 -11 callgsubr
          -214 -96 -79 callgsubr
        </CharString>
        <CharString name="uni1EA7">
          -53 354 722 -98 callsubr
          -215 -146 -3 callgsubr
          40 -74 rlineto
          -9 5 11 -4 9 -14 callgsubr
          -3 6 -4 6 hvcurveto
          -48 88 rlineto
          15 -8 -13 7 34 callsubr
          -14 -7 -15 -9 -22 callsubr
          7 -6 12 vhcurveto
          58 -582 -104 callsubr
        </CharString>
        <CharString name="uni1EA8">
          -7 354 856 -53 callgsubr
          -192 -103 -79 callgsubr
        </CharString>
        <CharString name="uni1EA9">
          -53 337 700 -96 callgsubr
          -198 -124 -3 callgsubr
          40 -74 rlineto
          -9 5 11 -4 9 -14 callgsubr
          -3 6 -4 6 hvcurveto
          -48 88 rlineto
          15 -8 -13 7 34 callsubr
          -14 -7 -15 -9 -22 callsubr
          7 -6 12 vhcurveto
          58 -582 -104 callsubr
        </CharString>
        <CharString name="uni1EAA">
          -7 130 900 -69 callgsubr
          41 -151 -41 callgsubr
          -112 -755 -107 callsubr
          endchar
        </CharString>
        <CharString name="uni1EAB">
          -53 115 752 -32 callsubr
          11 8 7 13 2 callgsubr
          -12 -9 -6 -14 -31 -46 40 -38 hhcurveto
          -33 -24 -18 -51 -18 hvcurveto
          -2 -31 callsubr
          3 -4 6 -3 vhcurveto
          33 -180 rmoveto
          19 41 callgsubr
          8 5 hvcurveto
          38 58 39 -58 rlineto
          -8 6 8 13 callgsubr
          -45 66 rlineto
          14 -10 -14 8 34 callsubr
          -12 -8 -14 -11 hvcurveto
          -45 -66 rlineto
          -5 24 callgsubr
          58 -582 -104 callsubr
        </CharString>
        <CharString name="uni1EAC">
          7 163 753 -107 callgsubr
          -113 -755 -107 callsubr
          -81 -429 -104 callgsubr
          endchar
        </CharString>
        <CharString name="uni1EAD">
          -17 154 576 -107 callgsubr
          43 -582 -106 callgsubr
          22 -248 -104 callgsubr
          endchar
        </CharString>
        <CharString name="uni1EAE">
          -7 236 846 rmoveto
          17 10 6 12 9 hvcurveto
          61 88 7 -15 callsubr
          10 -84 rmoveto
          67 49 38 57 17 -5 5 -11 -16 -1 -10 -15 -6 hvcurveto
          -17 -7 -27 -24 -43 hhcurveto
          -42 -28 23 18 -8 hvcurveto
          17 -8 -1 8 -14 hhcurveto
          -12 -4 -5 -17 -57 49 -38 68 hvcurveto
          -196 -764 -107 callsubr
          endchar
        </CharString>
        <CharString name="uni1EAF">
          -17 236 -94 callgsubr
          8 -177 -90 callsubr
        </CharString>
        <CharString name="uni1EB0">
          -7 269 846 -11 callgsubr
          -23 -84 rmoveto
          67 49 38 57 17 -5 5 -11 -16 -1 -10 -15 -6 hvcurveto
          -17 -7 -27 -24 -43 hhcurveto
          -42 -28 23 18 -8 hvcurveto
          17 -8 -1 8 -14 hhcurveto
          -12 -4 -5 -17 -57 49 -38 68 hvcurveto
          -196 -764 -107 callsubr
          endchar
        </CharString>
        <CharString name="uni1EB1">
          -17 267 762 -98 callsubr
          -23 -177 -90 callsubr
        </CharString>
        <CharString name="uni1EB2">
          -7 247 853 -53 callgsubr
          -1 -91 rmoveto
          67 49 38 57 17 -5 5 -11 -16 -1 -10 -15 -6 hvcurveto
          -17 -7 -27 -24 -43 hhcurveto
          -42 -28 23 18 -8 hvcurveto
          17 -8 -1 8 -14 hhcurveto
          -12 -4 -5 -17 -57 49 -38 68 hvcurveto
          -196 -764 -107 callsubr
          endchar
        </CharString>
        <CharString name="uni1EB3">
          -17 250 740 -96 callgsubr
          -6 -155 -90 callsubr
        </CharString>
        <CharString name="uni1EB4">
          -7 130 913 -69 callgsubr
          125 -165 rmoveto
          67 49 38 57 17 -5 5 -11 -16 -1 -10 -15 -6 hvcurveto
          -17 -7 -27 -24 -43 hhcurveto
          -42 -28 23 18 -8 hvcurveto
          17 -8 -1 8 -14 hhcurveto
          -12 -4 -5 -17 -57 49 -38 68 hvcurveto
          -196 -754 -107 callsubr
          endchar
        </CharString>
        <CharString name="uni1EB5">
          -17 116 769 rmoveto
          -106 callsubr
          138 -188 -90 callsubr
        </CharString>
        <CharString name="uni1EB6">
          7 253 762 -98 callgsubr
          -203 -764 -107 callsubr
          -81 -429 -104 callgsubr
          endchar
        </CharString>
        <CharString name="uni1EB7">
          -17 244 585 -89 callgsubr
          22 -248 -104 callgsubr
          endchar
        </CharString>
        <CharString name="uni1EB8">
          -41 105 hmoveto
          -103 callsubr
          144 -175 -104 callgsubr
          endchar
        </CharString>
        <CharString name="uni1EB9">
          -44 256 -6 -102 callgsubr
          -97 -474 -104 callgsubr
          endchar
        </CharString>
        <CharString name="uni1EBA">
          -41 252 740 -96 callgsubr
          -147 -740 -101 callsubr
        </CharString>
        <CharString name="uni1EBB">
          -44 238 563 -96 callgsubr
          18 -569 -100 callgsubr
        </CharString>
        <CharString name="uni1EBC">
          -41 118 769 rmoveto
          -106 callsubr
          -3 -773 -101 callsubr
        </CharString>
        <CharString name="uni1EBD">
          -44 104 592 rmoveto
          -106 callsubr
          162 -602 -100 callgsubr
        </CharString>
        <CharString name="uni1EBE">
          -55 335 849 rmoveto
          17 10 6 12 9 hvcurveto
          61 88 8 8 10 vvcurveto
          10 -9 3 -22 -24 -21 -7 -19 -9 vhcurveto
          -34 -73 -9 -19 -9 vvcurveto
          -7 7 -3 16 vhcurveto
          -181 -96 -72 callgsubr
        </CharString>
        <CharString name="uni1EBF">
          -58 325 722 -105 callsubr
          -185 -146 -71 callgsubr
        </CharString>
        <CharString name="uni1EC0">
          -55 368 849 rmoveto
          16 7 3 7 9 -7 19 -31 73 hvcurveto
          19 -8 -22 7 -22 hhcurveto
          -25 -8 -3 -10 -10 8 -8 56 -88 hvcurveto
          -12 9 12 -6 15 hhcurveto
          -214 -96 -72 callgsubr
        </CharString>
        <CharString name="uni1EC1">
          -58 355 722 -98 callsubr
          -215 -146 -71 callgsubr
        </CharString>
        <CharString name="uni1EC2">
          -55 346 856 -53 callgsubr
          -192 -103 -72 callgsubr
        </CharString>
        <CharString name="uni1EC3">
          -58 338 700 -96 callgsubr
          -198 -124 -71 callgsubr
        </CharString>
        <CharString name="uni1EC4">
          -55 122 903 -32 callsubr
          12 8 7 13 31 46 -40 23 callgsubr
          19 hvcurveto
          2 -40 callgsubr
          -19 -11 -9 -7 -14 -32 -45 40 -39 hhcurveto
          -33 -24 -18 -51 -18 hvcurveto
          -2 -31 callsubr
          3 -4 6 -3 vhcurveto
          42 -154 -10 callgsubr
          -50 -63 callsubr
        </CharString>
        <CharString name="uni1EC5">
          -58 118 752 -32 callsubr
          11 8 7 13 32 46 -40 41 hhcurveto
          32 23 18 50 19 12 callgsubr
          -12 -9 -6 -14 -31 -46 40 -38 hhcurveto
          -33 -25 -18 -51 -17 hvcurveto
          -2 -31 callsubr
          3 -4 6 -3 vhcurveto
          32 -180 -10 callgsubr
          115 -60 callsubr
        </CharString>
        <CharString name="uni1EC6">
          -47 callgsubr
          144 -175 -104 callgsubr
          endchar
        </CharString>
        <CharString name="uni1EC7">
          -46 callsubr
          -97 -474 -104 callgsubr
          endchar
        </CharString>
        <CharString name="uni1EC8">
          -236 138 740 -96 callgsubr
          -14 -742 -57 callsubr
        </CharString>
        <CharString name="uni1EC9">
          -244 134 563 -96 callgsubr
          -9 -565 -67 callgsubr
        </CharString>
        <CharString name="uni1ECA">
          -236 124 -2 -61 callsubr
          8 -173 -104 callgsubr
          endchar
        </CharString>
        <CharString name="uni1ECB">
          -42 callgsubr
          -9 -173 -104 callgsubr
          endchar
        </CharString>
        <CharString name="uni1ECC">
          101 299 -6 -101 callgsubr
          2 -245 -104 callgsubr
          endchar
        </CharString>
        <CharString name="uni1ECD">
          -21 240 -6 -37 callgsubr
          174 -66 96 -124 -97 callgsubr
          5 -241 -104 callgsubr
          endchar
        </CharString>
        <CharString name="uni1ECE">
          101 307 740 -96 callgsubr
          -8 -746 -101 callgsubr
          endchar
        </CharString>
        <CharString name="uni1ECF">
          -21 246 563 -96 callgsubr
          -6 -569 -37 callgsubr
          174 -66 96 -124 -51 callgsubr
        </CharString>
        <CharString name="uni1ED0">
          87 390 849 rmoveto
          17 10 6 12 9 hvcurveto
          61 88 7 -15 callsubr
          -181 -96 -68 callsubr
          90 -759 -101 callgsubr
          endchar
        </CharString>
        <CharString name="uni1ED1">
          -35 332 722 -105 callsubr
          -184 -146 -68 callsubr
          92 -582 -37 callgsubr
          174 -66 96 -124 -51 callgsubr
        </CharString>
        <CharString name="uni1ED2">
          87 423 849 -11 callgsubr
          -214 -96 -68 callsubr
          90 -759 -101 callgsubr
          endchar
        </CharString>
        <CharString name="uni1ED3">
          -35 363 722 -98 callsubr
          -215 -146 -68 callsubr
          92 -582 -37 callgsubr
          174 -66 96 -124 -51 callgsubr
        </CharString>
        <CharString name="uni1ED4">
          87 401 856 -53 callgsubr
          -192 -103 -68 callsubr
          90 -759 -101 callgsubr
          endchar
        </CharString>
        <CharString name="uni1ED5">
          -35 346 700 -96 callgsubr
          -198 -124 -68 callsubr
          92 -582 -37 callgsubr
          174 -66 96 -124 -51 callgsubr
        </CharString>
        <CharString name="uni1ED6">
          87 168 905 -32 callsubr
          11 9 8 12 32 46 -41 23 callgsubr
          19 hvcurveto
          2 -40 callgsubr
          -19 -11 -10 -7 -13 -32 -45 40 -39 hhcurveto
          -33 -24 -18 -51 -18 hvcurveto
          -2 -31 callsubr
          3 -4 6 -3 vhcurveto
          50 -156 -41 callgsubr
          90 -759 -101 callgsubr
          endchar
        </CharString>
        <CharString name="uni1ED7">
          -35 126 752 -69 callgsubr
          31 -180 -41 callgsubr
          92 -582 -37 callgsubr
          174 -66 96 -124 -51 callgsubr
        </CharString>
        <CharString name="uni1ED8">
          101 210 753 -107 callgsubr
          89 -759 -101 callgsubr
          2 -245 -104 callgsubr
          endchar
        </CharString>
        <CharString name="uni1ED9">
          -21 149 576 -107 callgsubr
          91 -582 -37 callgsubr
          174 -66 96 -124 -97 callgsubr
          5 -241 -104 callgsubr
          endchar
        </CharString>
        <CharString name="uni1EDA">
          1 callsubr
          6 -768 -85 callgsubr
        </CharString>
        <CharString name="uni1EDB">
          1 callgsubr
          8 -591 -84 callgsubr
        </CharString>
        <CharString name="uni1EDC">
          101 324 762 -98 callsubr
          -25 -768 -85 callgsubr
        </CharString>
        <CharString name="uni1EDD">
          -21 263 585 -98 callsubr
          -23 -591 -84 callgsubr
        </CharString>
        <CharString name="uni1EDE">
          101 307 740 -96 callgsubr
          -8 -746 -85 callgsubr
        </CharString>
        <CharString name="uni1EDF">
          -21 246 563 -96 callgsubr
          -6 -569 -84 callgsubr
        </CharString>
        <CharString name="uni1EE0">
          101 173 769 rmoveto
          -106 callsubr
          136 -779 -85 callgsubr
        </CharString>
        <CharString name="uni1EE1">
          -21 112 592 rmoveto
          -106 callsubr
          138 -602 -84 callgsubr
        </CharString>
        <CharString name="uni1EE2">
          101 299 -6 rmoveto
          162 89 115 243 125 -24 90 -46 58 hvcurveto
          60 5 28 35 49 vvcurveto
          -85 callsubr
          2 -12 25 -20 -30 vvcurveto
          -15 -9 -18 -31 -12 -7 3 8 -13 vhcurveto
          24 -37 -45 14 -54 hhcurveto
          -161 -89 -111 -243 -243 89 -115 161 hvcurveto
          1 76 rmoveto
          -103 -55 89 193 193 55 85 103 102 56 -85 -193 -193 -56 -89 -102 hvcurveto
          2 -245 -104 callgsubr
          endchar
        </CharString>
        <CharString name="uni1EE3">
          -21 240 -6 -37 callgsubr
          90 -18 69 -36 46 hvcurveto
          58 5 27 36 48 vvcurveto
          -85 callsubr
          1 -12 26 -21 -29 vvcurveto
          -15 -8 -18 -29 -13 -10 3 6 -10 vhcurveto
          16 -27 -28 8 -35 hhcurveto
          -97 callgsubr
          5 -241 -104 callgsubr
          endchar
        </CharString>
        <CharString name="uni1EE4">
          85 292 -6 rmoveto
          143 80 75 126 hvcurveto
          485 -55 callgsubr
          -14 -97 callsubr
          vhcurveto
          3 -169 -104 callgsubr
          endchar
        </CharString>
        <CharString name="uni1EE5">
          198 -7 -99 callsubr
          31 -168 -104 callgsubr
          endchar
        </CharString>
        <CharString name="uni1EE6">
          85 299 740 -96 callgsubr
          -7 -746 rmoveto
          143 80 75 126 hvcurveto
          485 -55 callgsubr
          -14 -97 callsubr
          vhcurveto
          endchar
        </CharString>
        <CharString name="uni1EE7">
          246 563 -96 callgsubr
          -48 -570 -99 callsubr
          endchar
        </CharString>
        <CharString name="uni1EE8">
          72 278 -94 callgsubr
          311 -3 -87 callsubr
          endchar
        </CharString>
        <CharString name="uni1EE9">
          -30 225 -91 callsubr
          261 -4 -88 callgsubr
          endchar
        </CharString>
        <CharString name="uni1EEA">
          72 309 762 -98 callsubr
          280 -3 -87 callsubr
          endchar
        </CharString>
        <CharString name="uni1EEB">
          -30 256 585 -98 callsubr
          230 -4 -88 callgsubr
          endchar
        </CharString>
        <CharString name="uni1EEC">
          72 292 740 -96 callgsubr
          297 19 -87 callsubr
          endchar
        </CharString>
        <CharString name="uni1EED">
          -30 239 563 -96 callgsubr
          247 18 -88 callgsubr
          endchar
        </CharString>
        <CharString name="uni1EEE">
          72 158 769 rmoveto
          -106 callsubr
          441 -14 -87 callsubr
          endchar
        </CharString>
        <CharString name="uni1EEF">
          -30 107 592 -32 callsubr
          11 9 7 12 2 callgsubr
          -11 -10 -6 -13 -32 -45 40 -39 hhcurveto
          -33 -24 -18 -51 -18 hvcurveto
          -2 -31 callsubr
          3 -4 6 -3 vhcurveto
          388 -15 -88 callgsubr
          endchar
        </CharString>
        <CharString name="uni1EF0">
          72 589 759 -87 callsubr
          -301 -934 -104 callgsubr
          endchar
        </CharString>
        <CharString name="uni1EF1">
          -30 486 581 -88 callgsubr
          -264 -756 -104 callgsubr
          endchar
        </CharString>
        <CharString name="uni1EF4">
          -14 235 -2 rmoveto
          -82 callgsubr
          9 -173 -104 callgsubr
          endchar
        </CharString>
        <CharString name="uni1EF4.loclGUA">
          0 396 702 -95 callsubr
          -147 -782 rmoveto
          -15 callgsubr
        </CharString>
        <CharString name="uni1EF5">
          -99 347 525 -96 callsubr
          -49 -645 rmoveto
          -15 callgsubr
        </CharString>
        <CharString name="uni1EF5.loclGUA">
          363 525 -95 callgsubr
          98 -624 rmoveto
          -15 callgsubr
        </CharString>
        <CharString name="uni1EF6">
          -14 249 740 -96 callgsubr
          -14 -742 rmoveto
          -87 callgsubr
        </CharString>
        <CharString name="uni1EF6.loclGUA">
          0 202 863 -19 callgsubr
          194 -161 -95 callsubr
          endchar
        </CharString>
        <CharString name="uni1EF7">
          -99 155 686 -19 callgsubr
          192 -161 -96 callsubr
          endchar
        </CharString>
        <CharString name="uni1EF7.loclGUA">
          192 686 -19 callgsubr
          171 -161 -95 callgsubr
          endchar
        </CharString>
        <CharString name="uni1EF8">
          -14 115 769 rmoveto
          -106 callsubr
          130 -775 rmoveto
          -87 callgsubr
        </CharString>
        <CharString name="uni1EF8.loclGUA">
          0 112 773 rmoveto
          10 -4 rlineto
          -106 callsubr
          284 -71 -95 callsubr
          endchar
        </CharString>
        <CharString name="uni1EF9">
          -99 65 596 rmoveto
          10 -4 rlineto
          -106 callsubr
          282 -71 -96 callsubr
          endchar
        </CharString>
        <CharString name="uni1EF9.loclGUA">
          102 596 rmoveto
          10 -4 rlineto
          -106 callsubr
          261 -71 -95 callgsubr
          endchar
        </CharString>
        <CharString name="uni2002">
          -12 endchar
        </CharString>
        <CharString name="uni2003">
          388 endchar
        </CharString>
        <CharString name="uni2004">
          -207 endchar
        </CharString>
        <CharString name="uni2005">
          -277 endchar
        </CharString>
        <CharString name="uni20B2">
          40 450 382 rmoveto
          -161 hlineto
          35 callgsubr
          98 -224 hlineto
          -7 -22 -30 -5 -37 hhcurveto
          -124 -39 130 153 172 45 102 125 hvcurveto
          76 37 -41 10 hhcurveto
          14 22 41 17 24 -69 31 -69 6 hvcurveto
          33 vlineto
          21 -9 9 -21 -18 -9 -9 -21 vhcurveto
          -34 vlineto
          -148 -15 -79 -114 -231 vvcurveto
          -225 78 -113 149 -11 vhcurveto
          -46 vlineto
          -21 9 -9 21 18 9 9 21 vhcurveto
          46 vlineto
          73 4 78 18 49 vvcurveto
          286 vlineto
          21 -9 9 -18 vhcurveto
          endchar
        </CharString>
        <CharString name="uni2113">
          -155 175 -6 rmoveto
          40 50 13 27 8 -7 39 -13 hvcurveto
          -11 -12 -15 -31 hhcurveto
          -23 -15 13 55 hvcurveto
          156 vlineto
          90 85 61 139 119 vvcurveto
          69 -28 53 -67 -56 -86 -27 -272 vhcurveto
          -155 vlineto
          -18 -14 -18 -12 -17 -13 rrcurveto
          -12 -8 -5 -11 -9 vvcurveto
          -7 2 -6 4 -6 vhcurveto
          -14 10 7 -6 7 hhcurveto
          5 6 3 4 6 hvcurveto
          23 16 rlineto
          -92 vlineto
          -111 55 -21 53 vhcurveto
          -22 390 rmoveto
          288 40 11 18 21 9 -22 -31 -78 -38 -101 -50 -67 vhcurveto
          endchar
        </CharString>
        <CharString name="uni2126">
          87 -41 callsubr
        </CharString>
        <CharString name="uni2153">
          136 -57 callgsubr
          336 -303 -70 callgsubr
          endchar
        </CharString>
        <CharString name="uni2154">
          194 37 301 -49 callsubr
          131 -303 6 callgsubr
          -312 -671 rlineto
          -1 -4 -2 -4 -2 vvcurveto
          -5 5 -2 8 vhcurveto
          360 -4 -70 callgsubr
          endchar
        </CharString>
        <CharString name="uni2206">
          68 -20 callgsubr
        </CharString>
        <CharString name="uni2215">
          -277 -20 -5 callgsubr
        </CharString>
        <CharString name="uni2219">
          -273 113 309 rmoveto
          27 20 22 29 29 -20 23 -27 -26 -20 -23 -29 -29 20 -22 26 hvcurveto
          endchar
        </CharString>
        <CharString name="uni25CC">
          -18 240 525 -13 callsubr
          -66 -15 -13 callgsubr
          133 -1 -13 callsubr
          -190 -44 -13 callgsubr
          244 hmoveto
          -40 callsubr
          -278 -68 -13 callsubr
          315 hmoveto
          -40 callsubr
          -328 -84 -13 callgsubr
          340 hmoveto
          -40 callsubr
          -327 -84 -13 callgsubr
          315 hmoveto
          -40 callsubr
          -36 -68 -13 callsubr
          -244 -1 -13 callgsubr
          189 -45 -13 callsubr
          -133 -1 -13 callgsubr
          66 -14 -13 callsubr
          endchar
        </CharString>
        <CharString name="uogonek">
          477 -94 rmoveto
          -18 callsubr
          17 6 26 13 26 hvcurveto
          5 3 3 3 5 6 -10 39 82 vvcurveto
          353 vlineto
          14 -11 8 -27 vhcurveto
          -10 -65 callsubr
          5 -28 2 -29 15 -8 rrcurveto
          -15 -30 -5 -30 -19 -56 callgsubr
          endchar
        </CharString>
        <CharString name="uring">
          237 -25 callgsubr
          -39 -606 -99 callsubr
          endchar
        </CharString>
        <CharString name="utilde">
          112 592 rmoveto
          -106 callsubr
          96 -603 -99 callsubr
          endchar
        </CharString>
        <CharString name="v">
          -86 185 -2 rmoveto
          42 hlineto
          18 15 4 12 3 hvcurveto
          123 480 rlineto
          1 6 22 callsubr
          -11 6 -25 vhcurveto
          -12 hlineto
          -19 -15 -4 -12 -3 hvcurveto
          -70 -292 -9 -42 -6 -47 -7 -40 rlinecurve
          -6 hlineto
          -7 40 -7 47 -11 42 -69 292 rcurveline
          12 -3 -15 4 -18 hhcurveto
          -13 hlineto
          -27 -12 -6 -11 -4 1 -5 1 -5 hvcurveto
          123 -480 rlineto
          -12 4 14 -4 19 hhcurveto
          endchar
        </CharString>
        <CharString name="w">
          118 160 -2 -93 callsubr
        </CharString>
        <CharString name="wacute">
          118 301 -91 callsubr
          -141 -587 -93 callsubr
        </CharString>
        <CharString name="wcircumflex">
          118 218 576 -107 callgsubr
          -58 -578 -93 callsubr
        </CharString>
        <CharString name="wdieresis">
          118 245 607 -100 callsubr
          -211 -609 -93 callsubr
        </CharString>
        <CharString name="wgrave">
          118 332 585 -98 callsubr
          -172 -587 -93 callsubr
        </CharString>
        <CharString name="x">
          -94 38 hmoveto
          29 hlineto
          18 15 1 11 6 hvcurveto
          78 160 8 16 5 13 4 12 rlinecurve
          5 -12 4 -13 8 -16 78 -160 rcurveline
          -11 5 14 -1 19 hhcurveto
          32 hlineto
          16 6 3 12 5 -3 6 -3 7 hvcurveto
          -130 236 121 221 rlineto
          4 7 3 6 5 vvcurveto
          11 -11 6 -28 vhcurveto
          -12 hlineto
          -19 -15 -2 -13 -6 hvcurveto
          -70 -143 -7 -15 -4 -10 -4 -10 rlinecurve
          -4 10 -4 10 -8 15 -69 143 rcurveline
          13 -7 -13 2 -19 hhcurveto
          -14 hlineto
          -30 -11 -6 -11 -5 3 -6 3 -7 hvcurveto
          121 -222 -129 -235 rlineto
          -4 -7 -3 -6 -5 vvcurveto
          -12 6 -3 16 vhcurveto
          endchar
        </CharString>
        <CharString name="y">
          -99 347 525 -96 callsubr
          endchar
        </CharString>
        <CharString name="y.loclGUA">
          363 525 -95 callgsubr
          endchar
        </CharString>
        <CharString name="yacute">
          -99 195 -91 callsubr
          152 -60 -96 callsubr
          endchar
        </CharString>
        <CharString name="yacute.loclGUA">
          -36 callgsubr
          131 -60 -95 callgsubr
          endchar
        </CharString>
        <CharString name="ycircumflex">
          -99 112 576 -107 callgsubr
          235 -51 -96 callsubr
          endchar
        </CharString>
        <CharString name="ycircumflex.loclGUA">
          149 576 -107 callgsubr
          214 -51 -95 callgsubr
          endchar
        </CharString>
        <CharString name="ydieresis">
          -99 139 607 -100 callsubr
          82 -82 -96 callsubr
          endchar
        </CharString>
        <CharString name="ydieresis.loclGUA">
          176 607 -100 callsubr
          61 -82 -95 callgsubr
          endchar
        </CharString>
        <CharString name="yen">
          -28 464 685 rmoveto
          11 -11 5 -27 1 38 callgsubr
          -16 -2 -12 -5 hvcurveto
          -127 -283 -126 282 rlineto
          13 -6 -13 2 -20 hhcurveto
          -18 hlineto
          -30 -12 -6 -11 -5 3 -6 4 -7 hvcurveto
          119 -244 rlineto
          -79 hlineto
          18 callgsubr
          112 hlineto
          18 -38 rlineto
          -58 -130 vlineto
          18 callgsubr
          130 -171 hlineto
          3 callgsubr
          171 117 vlineto
          -8 callsubr
          8 -16 callsubr
          -117 55 hlineto
          20 41 rlineto
          97 19 callsubr
          8 -16 callsubr
          -64 hlineto
          118 244 rlineto
          4 7 2 6 5 vvcurveto
          endchar
        </CharString>
        <CharString name="ygrave">
          -99 226 585 -98 callsubr
          121 -60 -96 callsubr
          endchar
        </CharString>
        <CharString name="ygrave.loclGUA">
          263 585 -98 callsubr
          100 -60 -95 callgsubr
          endchar
        </CharString>
        <CharString name="z">
          -93 54 hmoveto
          -93 callgsubr
          endchar
        </CharString>
        <CharString name="zacute">
          -93 198 -91 callsubr
          -144 -585 rmoveto
          -93 callgsubr
          endchar
        </CharString>
        <CharString name="zacute.loclPLK">
          -93 198 585 -78 callsubr
          -144 -585 rmoveto
          -93 callgsubr
          endchar
        </CharString>
        <CharString name="zcaron">
          -93 198 583 -103 callgsubr
          -144 -583 rmoveto
          -93 callgsubr
          endchar
        </CharString>
        <CharString name="zdotaccent">
          -93 205 -76 callgsubr
          -151 -607 rmoveto
          -93 callgsubr
          endchar
        </CharString>
        <CharString name="zero">
          -39 228 -6 rmoveto
          111 85 101 255 255 -85 101 -111 -110 -84 -101 -255 -255 84 -101 110 hvcurveto
          1 72 rmoveto
          -59 -48 69 215 215 48 69 59 58 50 -69 -215 -215 -50 -69 -58 hvcurveto
          endchar
        </CharString>
      <CharString index="0">
        rmoveto
        19 hlineto
        11 8 5 9 7 hvcurveto
        44 73 45 -73 rlineto
        -9 6 8 -5 11 hhcurveto
        20 hlineto
        12 7 -39 callgsubr
        -3 6 hvcurveto
        -54 88 rlineto
        14 -9 -12 8 -20 hhcurveto
        -15 hlineto
        -19 -14 -8 -14 -9 hvcurveto
        -52 -88 rlineto
        -3 -6 -4 -66 callgsubr
        return
      </CharString>
      <CharString index="1">
        rmoveto
        56 41 24 40 33 hvcurveto
        -27 6 7 -32 22 hhcurveto
        13 41 4 19 hvcurveto
        5 -12 39 82 vvcurveto
        230 vlineto
        95 -63 56 -107 -86 -79 -33 -26 -11 21 -38 14 vhcurveto
        11 43 36 75 hhcurveto
        65 22 -37 -41 hvcurveto
        -47 vlineto
        -122 -2 -147 -19 -162 vvcurveto
        -101 58 -54 88 vhcurveto
        17 79 rmoveto
        -51 -24 27 50 102 97 5 84 2 hvcurveto
        -129 vlineto
        -36 -26 -36 -21 -44 hhcurveto
        return
      </CharString>
      <CharString index="2">
        24 15 5 13 9 hvcurveto
        68 95 10 10 11 vvcurveto
        10 -14 3 -28 -28 -19 -7 -19 -9 vhcurveto
        -39 -80 -10 -78 callgsubr
        return
      </CharString>
      <CharString index="3">
        rmoveto
        33 13 9 13 hvcurveto
        35 callsubr
        -33 -13 -9 -13 vhcurveto
        36 callgsubr
        vhcurveto
        return
      </CharString>
      <CharString index="4">
        rmoveto
        15 hlineto
        20 12 7 15 9 hvcurveto
        54 88 rlineto
        3 6 3 6 5 vvcurveto
        9 -7 6 -12 vhcurveto
        -20 hlineto
        -11 -8 -5 -10 -6 hvcurveto
        -45 -72 -44 72 rlineto
        10 -7 -8 5 -11 hhcurveto
        -19 hlineto
        -12 -7 -6 -8 -5 4 -8 3 -5 hvcurveto
        52 -88 rlineto
        -15 9 14 -7 19 hhcurveto
        return
      </CharString>
      <CharString index="5">
        rmoveto
        40 callgsubr
        -31 -42 -76 hhcurveto
        -80 -32 50 111 -6 hvcurveto
        249 hlineto
        12 21 29 12 170 -59 91 -116 -130 -67 -94 -177 -179 68 -85 141 hvcurveto
        -119 305 rmoveto
        105 5 34 53 65 hhcurveto
        59 30 -53 -105 hvcurveto
        return
      </CharString>
      <CharString index="6">
        rmoveto
        162 89 115 243 243 -89 111 -162 -161 -89 -111 -243 -243 89 -115 161 hvcurveto
        1 76 rmoveto
        -103 -55 89 193 193 55 85 103 102 56 -85 -193 -193 -56 -89 -102 hvcurveto
        return
      </CharString>
      <CharString index="7">
        -102 callgsubr
        endchar
      </CharString>
      <CharString index="8">
        rmoveto
        0 callsubr
        450 vlineto
        22 -3 22 -5 22 vhcurveto
        5 2 7 -21 8 -21 11 -21 rlinecurve
        238 -462 rlineto
        -10 5 12 -5 19 hhcurveto
        21 7 callsubr
        660 -53 callsubr
        -26 vhcurveto
        -12 -90 callgsubr
        -440 vlineto
        -22 3 -22 5 -22 vhcurveto
        -5 -2 -7 21 -8 21 -11 21 rlinecurve
        -232 447 rlineto
        15 -8 -12 5 -19 hhcurveto
        -24 -80 callsubr
        return
      </CharString>
      <CharString index="9">
        rmoveto
        61 55 38 77 10 -6 5 -12 -13 -1 -9 -16 -6 hvcurveto
        -28 -11 -27 -11 -40 hhcurveto
        -40 -27 11 28 -11 hvcurveto
        16 -7 -1 9 -13 hhcurveto
        -12 -6 -5 -10 -77 55 -38 62 hvcurveto
        return
      </CharString>
      <CharString index="10">
        -125 -68 -97 -173 -172 67 -93 126 hvcurveto
        -2 72 rmoveto
        -71 -4 callsubr
        134 31 62 71 71 33 -63 -133 -133 -33 -62 -71 hvcurveto
        return
      </CharString>
      <CharString index="11">
        rmoveto
        12 79 50 66 55 -57 16 -34 -35 -43 -18 -13 -10 16 -23 8 hvcurveto
        5 10 13 31 hhcurveto
        20 17 -9 -18 hvcurveto
        -50 -62 -13 -29 vvcurveto
        -9 24 -8 9 vhcurveto
        return
      </CharString>
      <CharString index="12">
        rmoveto
        -4 hlineto
        -28 -12 -8 -14 hvcurveto
        -366 vlineto
        -45 -24 -34 -25 -36 hhcurveto
        -48 -26 33 58 hvcurveto
        345 -89 callsubr
        -353 vlineto
        -95 40 -62 88 49 44 23 49 32 vhcurveto
        -32 vlineto
        -121 -37 -52 -71 vhcurveto
        -80 -46 46 -12 hhcurveto
        -10 -3 -22 -18 -8 2 -10 4 -8 hvcurveto
        -22 12 62 -31 76 hhcurveto
        129 57 78 200 hvcurveto
        438 -53 callsubr
        -28 vhcurveto
        return
      </CharString>
      <CharString index="13">
        762 -105 callsubr
        return
      </CharString>
      <CharString index="14">
        297 19 callsubr
        12 -16 callsubr
        -210 hlineto
        225 389 rlineto
        1 2 1 3 5 vvcurveto
        18 -10 34 -8 vhcurveto
        -282 hlineto
        -13 -33 callsubr
        13 vhcurveto
        194 hlineto
        -226 -389 rlineto
        -1 -3 -1 -4 -4 vvcurveto
        -20 12 -31 8 vhcurveto
        return
      </CharString>
      <CharString index="15">
        rmoveto
        128 65 53 95 84 -57 26 -75 12 hvcurveto
        -61 10 -63 0 53 vvcurveto
        43 33 20 46 2 vhcurveto
        100 4 55 70 98 vvcurveto
        36 -8 33 -15 27 vhcurveto
        2 2 rlineto
        -2 15 15 0 25 hhcurveto
        14 6 8 20 hvcurveto
        12 vlineto
        20 -6 9 -14 vhcurveto
        -150 hlineto
        4 -15 -15 2 -17 hhcurveto
        -109 -56 -71 -101 -68 26 -54 48 -28 hvcurveto
        -30 -23 -17 -31 -40 vvcurveto
        -31 12 -26 20 -16 vhcurveto
        -2 vlineto
        -48 -25 -30 -42 -59 vvcurveto
        -92 75 -32 101 vhcurveto
        7 462 rmoveto
        -50 -40 19 87 89 40 19 50 49 42 -19 -89 -87 -42 -19 -49 hvcurveto
        -397 vmoveto
        -49 -63 11 64 40 23 25 29 15 hvcurveto
        63 -21 107 18 -78 vvcurveto
        -49 -35 -25 -75 vhcurveto
        endchar
      </CharString>
      <CharString index="16">
        rmoveto
        40 20 callgsubr
        2 hvcurveto
        88 421 16 125 16 -125 88 -421 rlineto
        -12 2 15 -4 19 hhcurveto
        40 20 callgsubr
        2 hvcurveto
        140 657 rlineto
        1 5 1 5 2 vvcurveto
        12 -11 7 -29 vhcurveto
        -11 hlineto
        -22 -16 -4 -12 -2 hvcurveto
        -89 -483 -9 -50 -3 -21 -7 -40 rlinecurve
        -3 24 -6 49 -8 39 -94 481 rcurveline
        13 -3 -14 4 -19 hhcurveto
        -20 hlineto
        -19 -14 -4 -13 -3 hvcurveto
        -93 -479 -7 -38 -6 -38 -7 -38 rlinecurve
        -4 29 -3 34 -9 48 -92 483 rcurveline
        12 -2 -15 4 -22 hhcurveto
        -13 hlineto
        -29 -11 -7 -12 -3 1 -4 1 -5 hvcurveto
        139 -657 rlineto
        -12 2 15 -4 19 hhcurveto
        endchar
      </CharString>
      <CharString index="17">
        hlineto
        -27 -11 -8 -14 hvcurveto
        return
      </CharString>
      <CharString index="18">
        -98 callgsubr
        -47 -82 callsubr
        return
      </CharString>
      <CharString index="19">
        rmoveto
        -85 callsubr
        1 -12 26 -20 -30 vvcurveto
        -15 -9 -18 -35 vhcurveto
        -32 -65 callsubr
        -19 callsubr
        342 vlineto
        61 5 28 35 50 vvcurveto
        return
      </CharString>
      <CharString index="20">
        -82 callgsubr
        endchar
      </CharString>
      <CharString index="21">
        rmoveto
        -6 hlineto
        -28 -4 -21 -29 -7 hvcurveto
        23 -21 -37 31 -54 hhcurveto
        -105 -66 -102 -164 -130 43 -133 113 45 44 21 62 27 hvcurveto
        -16 vlineto
        -152 -31 -55 -76 vhcurveto
        -76 -40 44 -11 hhcurveto
        -4 -6 -4 -26 -7 0 -8 1 -10 hvcurveto
        -26 4 61 -35 84 hhcurveto
        118 59 73 221 hvcurveto
        1 422 rlineto
        13 -2 -6 8 -20 hhcurveto
        -57 -327 rmoveto
        -98 -20 -46 -27 -32 hhcurveto
        -70 -17 96 98 110 24 79 81 40 26 -23 -16 17 hvcurveto
        -1 -16 -2 -16 -18 vvcurveto
        endchar
      </CharString>
      <CharString index="22">
        rmoveto
        162 89 115 243 125 -24 90 -46 58 hvcurveto
        60 5 28 35 49 vvcurveto
        -85 callsubr
        2 -12 25 -20 -30 vvcurveto
        -15 -9 -18 -31 -12 -7 3 8 -13 vhcurveto
        24 -37 -45 14 -54 hhcurveto
        -54 callsubr
      </CharString>
      <CharString index="23">
        -37 callgsubr
        90 -18 69 -36 46 hvcurveto
        58 5 27 36 48 vvcurveto
        -85 callsubr
        1 -12 26 -21 -29 vvcurveto
        -15 -8 -18 -29 -13 -10 3 6 -10 vhcurveto
        16 -27 -28 8 -35 hhcurveto
        -51 callgsubr
      </CharString>
      <CharString index="24">
        rmoveto
        4 hlineto
        28 -27 callsubr
        -62 callgsubr
        -14 12 -8 28 vhcurveto
        return
      </CharString>
      <CharString index="25">
        14 -73 callsubr
        294 vlineto
        171 353 rlineto
        4 7 2 6 5 vvcurveto
        11 -11 5 -27 1 38 callgsubr
        -16 -2 -12 -5 hvcurveto
        -127 -283 -126 282 rlineto
        13 -6 -13 2 -20 hhcurveto
        -18 hlineto
        -30 -12 -6 -11 -5 3 -6 4 -7 hvcurveto
        170 -350 rlineto
        -297 -75 callsubr
        return
      </CharString>
      <CharString index="26">
        rmoveto
        199 -12 callgsubr
        10 -49 callgsubr
        -199 hlineto
        -13 -6 -9 -21 hvcurveto
        -10 -59 callsubr
        return
      </CharString>
      <CharString index="27">
        rmoveto
        24 15 6 12 9 hvcurveto
        70 97 8 8 -35 callsubr
        128 hmoveto
        25 14 6 12 9 hvcurveto
        73 95 5 10 -35 callsubr
        return
      </CharString>
      <CharString index="28">
        -68 callsubr
        -112 -755 -107 callsubr
        endchar
      </CharString>
      <CharString index="29">
        -21 -10 -16 callgsubr
        -3 15 vhcurveto
        return
      </CharString>
      <CharString index="30">
        rmoveto
        54 77 28 23 41 callsubr
        24 callsubr
        hvcurveto
        -10 -17 -24 -12 -42 hhcurveto
        -88 -33 60 140 139 41 52 77 39 28 -16 -8 14 hvcurveto
        -2 5 3 -2 3 hhcurveto
        11 20 38 16 24 -65 22 -60 -118 -89 -56 -209 -193 70 -77 140 hvcurveto
        endchar
      </CharString>
      <CharString index="31">
        607 -104 callgsubr
        return
      </CharString>
      <CharString index="32">
        rmoveto
        19 hlineto
        10 9 1 12 7 hvcurveto
        38 74 40 -74 rlineto
        -9 5 11 -4 9 hhcurveto
        20 hlineto
        12 7 -39 callgsubr
        -4 6 hvcurveto
        -47 88 rlineto
        15 -9 -13 7 -19 hhcurveto
        -16 hlineto
        -18 -15 -7 -15 -9 38 callsubr
        -2 -6 -3 -66 callgsubr
        return
      </CharString>
      <CharString index="33">
        14 -11 8 -27 vhcurveto
        -14 -90 callgsubr
        return
      </CharString>
      <CharString index="34">
        16 hlineto
        18 15 4 12 3 hvcurveto
        42 164 rlineto
        215 hlineto
        return
      </CharString>
      <CharString index="35">
        -75 callgsubr
        -49 -63 callsubr
      </CharString>
      <CharString index="36">
        -75 callgsubr
        116 -60 callsubr
      </CharString>
      <CharString index="37">
        rmoveto
        68 56 40 79 65 -40 35 -34 9 hvcurveto
        2 vlineto
        31 13 29 24 47 vvcurveto
        63 -43 36 -69 -34 -55 -13 -18 -8 12 -22 7 vhcurveto
        8 18 19 42 hhcurveto
        53 12 -33 -23 -27 -17 -49 -56 hvcurveto
        -21 hlineto
        -8 -4 -5 -12 hvcurveto
        -6 vlineto
        -13 4 -5 8 vhcurveto
        23 hlineto
        49 34 -17 -58 -65 -46 -17 -34 hvcurveto
        -43 -23 21 -10 hhcurveto
        -6 -14 -18 -11 -15 48 -18 55 hvcurveto
        return
      </CharString>
      <CharString index="38">
        -32 callsubr
        12 8 7 13 31 46 -40 23 callgsubr
        19 hvcurveto
        2 -40 callgsubr
        -20 -11 -9 -6 -14 -32 -45 40 -39 hhcurveto
        -33 -24 -18 -51 -18 hvcurveto
        -2 -31 callsubr
        3 -4 6 -3 vhcurveto
        return
      </CharString>
      <CharString index="39">
        -4 callgsubr
        322 66 vlineto
        -44 callsubr
        -66 105 hlineto
        21 callsubr
        -10 hlineto
        -21 -10 39 callsubr
        -12 -105 rlineto
        -33 hlineto
        -14 -33 callsubr
        14 vhcurveto
        33 -336 hlineto
        return
      </CharString>
      <CharString index="40">
        -83 callgsubr
        endchar
      </CharString>
      <CharString index="41">
        -8 -5 vvcurveto
        -7 7 -6 12 vhcurveto
        return
      </CharString>
      <CharString index="42">
        56 19 7 22 vhcurveto
        22 6 -6 8 hhcurveto
        15 7 39 8 21 -39 10 -30 -42 -72 -17 -110 hvcurveto
        -106 -29 vlineto
        -14 -33 callsubr
        14 vhcurveto
        29 -431 hlineto
        -27 callgsubr
        return
      </CharString>
      <CharString index="43">
        rmoveto
        4 hlineto
        28 -27 callsubr
        366 vlineto
        15 7 34 46 40 30 7 -11 12 hhcurveto
        12 8 35 19 22 -17 17 -35 -38 -36 -27 -48 -31 hvcurveto
        26 -6 -5 42 -24 hhcurveto
        -13 -41 -4 -19 hvcurveto
        -5 12 -39 -82 vvcurveto
        -353 11 callsubr
        return
      </CharString>
      <CharString index="44">
        -8 -25 55 13 -41 vvcurveto
        -20 -19 -9 -17 vhcurveto
        -31 -23 20 -15 hhcurveto
        -9 -10 -14 -12 -27 56 -16 38 50 46 17 66 58 -49 9 -25 hvcurveto
        return
      </CharString>
      <CharString index="45">
        483 -89 callsubr
        -483 vlineto
        return
      </CharString>
      <CharString index="46">
        18 -73 callsubr
        66 -55 callgsubr
        -18 -90 callgsubr
        -66 -75 callsubr
        return
      </CharString>
      <CharString index="47">
        -55 callgsubr
        -10 -90 callgsubr
        return
      </CharString>
      <CharString index="48">
        168 hlineto
        148 103 90 260 259 -103 91 -148 hvcurveto
        -168 7 callgsubr
        -640 11 callgsubr
        64 76 rmoveto
        548 102 vlineto
        94 67 -75 -199 -200 -67 -74 -94 hvcurveto
        return
      </CharString>
      <CharString index="49" raw="1">
        1fbe0799 0b  
      </CharString>
      <CharString index="50">
        111 -2 rmoveto
        12 41 callgsubr
        12 6 hvcurveto
        312 671 rlineto
        1 4 2 3 3 vvcurveto
        5 -4 2 -9 vhcurveto
        -12 hlineto
        -12 -10 -4 -13 -5 hvcurveto
        -312 -671 rlineto
        -2 -4 -2 -4 -2 vvcurveto
        -5 5 -2 8 vhcurveto
        30 299 rmoveto
        8 hlineto
        12 9 4 10 hvcurveto
        379 vlineto
        7 -9 5 -7 vhcurveto
        -101 -26 rlineto
        -6 -2 -3 -3 -6 vvcurveto
        -11 3 -19 9 vhcurveto
        64 14 rlineto
        -338 vlineto
        -10 10 -4 11 vhcurveto
        return
      </CharString>
      <CharString index="51">
        vvcurveto
        -25 9 -63 83 24 23 6 13 19 vhcurveto
        9 6 4 9 12 vvcurveto
        15 -7 9 -13 vhcurveto
        return
      </CharString>
      <CharString index="52">
        -43 callsubr
        vhcurveto
        return
      </CharString>
      <CharString index="53">
        33 70 76 120 17 -15 11 -25 hvcurveto
        -9 hlineto
        -27 -13 -13 -19 -62 -12 -47 -22 -44 hvcurveto
        -4 -8 -5 -10 -6 vvcurveto
        -12 18 -3 11 vhcurveto
        return
      </CharString>
      <CharString index="54">
        rmoveto
        6 21 10 12 14 hvcurveto
        17 14 18 19 31 vvcurveto
        52 -52 16 -34 -35 -43 -15 36 callsubr
        5 10 13 31 hhcurveto
        20 17 -9 -18 -14 -11 -12 -20 -11 hvcurveto
        -16 -9 -9 -5 -8 vvcurveto
        -9 16 -11 21 vhcurveto
        return
      </CharString>
      <CharString index="55">
        -6 -9 -21 hvcurveto
        return
      </CharString>
      <CharString index="56">
        -97 callgsubr
        endchar
      </CharString>
      <CharString index="57">
        rmoveto
        10 -18 callgsubr
        23 7 35 47 51 hhcurveto
        48 23 -34 -57 hvcurveto
        -345 -75 callsubr
        -3 callsubr
        353 vlineto
        112 -61 44 -67 -52 -43 -28 -39 -27 vhcurveto
        268 vlineto
        10 callsubr
        -710 -75 callsubr
        return
      </CharString>
      <CharString index="58">
        vlineto
        21 -5 9 -14 vhcurveto
        return
      </CharString>
      <CharString index="59">
        -13 -52 callgsubr
        return
      </CharString>
      <CharString index="60">
        -41 155 753 -107 callgsubr
        -50 -753 rmoveto
        -103 callsubr
        return
      </CharString>
      <CharString index="61">
        13 -14 -14 -12 -13 -17 -17 12 -13 14 hvcurveto
        return
      </CharString>
      <CharString index="62">
        hmoveto
        -88 callsubr
        return
      </CharString>
      <CharString index="63">
        -1 -7 -63 callgsubr
        return
      </CharString>
      <CharString index="64">
        rmoveto
        14 hlineto
        17 12 5 11 4 hvcurveto
        63 164 rlineto
        216 hlineto
        22 -149 rlineto
        -20 3 9 -9 17 hhcurveto
        243 hlineto
        13 6 9 21 hvcurveto
        16 -16 callsubr
        -192 hlineto
        -38 244 rlineto
        206 hlineto
        13 6 9 21 hvcurveto
        16 -16 callsubr
        -218 hlineto
        -35 228 rlineto
        276 hlineto
        13 6 9 21 hvcurveto
        16 -16 callsubr
        -362 hlineto
        -17 -10 -8 -19 -8 hvcurveto
        -256 -642 rlineto
        -3 -6 -1 -6 -4 vvcurveto
        -11 11 -6 27 vhcurveto
        142 255 rmoveto
        107 273 19 58 rlineto
        2 hlineto
        2 -58 41 -273 rlineto
        endchar
      </CharString>
      <CharString index="65">
        -24 callgsubr
        -2 -29 callgsubr
        return
      </CharString>
      <CharString index="66">
        rmoveto
        19 hlineto
        13 8 5 8 6 hvcurveto
        37 58 39 -58 rlineto
        -8 6 9 13 callgsubr
        -46 66 rlineto
        14 -10 -13 8 34 callsubr
        -12 -8 -14 -11 hvcurveto
        -46 -66 rlineto
        -4 24 callgsubr
        return
      </CharString>
      <CharString index="67">
        -34 callsubr
        6 -3 2 -8 4 vhcurveto
        -6 3 rlineto
        2 -4 -3 1 -3 hhcurveto
        -6 -6 -4 -11 -6 hvcurveto
        return
      </CharString>
      <CharString index="68">
        6 9 5 -3 6 return
      </CharString>
      <CharString index="69">
        6 7 3 9 6 hvcurveto
        103 156 rlineto
        7 11 4 8 9 vvcurveto
        9 -4 8 -7 11 vhcurveto
        -103 156 rlineto
        9 -6 -7 3 -6 hhcurveto
        -12 -28 -13 -17 -6 3 -7 4 -7 hvcurveto
        93 -146 -93 -147 rlineto
        -4 -6 -3 -7 -6 vvcurveto
        -15 26 -15 14 vhcurveto
        return
      </CharString>
      <CharString index="70">
        rmoveto
        125 65 92 173 return
      </CharString>
      <CharString index="71">
        232 -91 callsubr
        return
      </CharString>
      <CharString index="72">
        -61 200 -5 rmoveto
        119 89 71 128 117 -77 42 -79 40 hvcurveto
        -94 callsubr
        return
      </CharString>
      <CharString index="73">
        rmoveto
        24 49 56 90 17 -15 11 -25 hvcurveto
        -9 hlineto
        -27 -13 -13 -19 hvcurveto
        -71 -13 -35 -21 vvcurveto
        -12 18 -3 11 vhcurveto
        return
      </CharString>
      <CharString index="74">
        -84 callsubr
        endchar
      </CharString>
      <CharString index="75">
        rmoveto
        -59 -30 74 124 124 32 66 66 32 29 -15 -30 23 hvcurveto
        -274 vlineto
        -44 -26 -34 -25 -33 hhcurveto
        return
      </CharString>
      <CharString index="76">
        395 148 rmoveto
        355 -53 callsubr
        -26 37 callgsubr
        -43 -21 -32 -27 -34 hhcurveto
        -46 -24 36 61 hvcurveto
        339 vlineto
        10 callsubr
        -689 16 callgsubr
        189 vlineto
        -6 12 13 -3 14 hhcurveto
        48 46 28 47 30 hvcurveto
        -28 5 2 -42 22 hhcurveto
        14 46 4 19 hvcurveto
        5 -9 39 82 vvcurveto
        endchar
      </CharString>
      <CharString index="77">
        12 496 28 rmoveto
        -234 329 215 312 rlineto
        6 8 3 7 5 vvcurveto
        7 -11 6 -24 vhcurveto
        -17 hlineto
        -20 -19 -2 -12 -8 hvcurveto
        -212 -320 rlineto
        -3 312 hlineto
        -2 callsubr
        -27 vhcurveto
        -13 -80 callsubr
        13 hlineto
        27 -27 callsubr
        317 3 vlineto
        219 -326 rlineto
        -13 9 19 0 20 hhcurveto
        21 hlineto
        28 12 3 11 4 -1 4 -6 8 hvcurveto
        return
      </CharString>
      <CharString index="78">
        -609 -83 callgsubr
        return
      </CharString>
      <CharString index="79">
        -82 callsubr
        endchar
      </CharString>
      <CharString index="80">
        -14 12 -8 28 vhcurveto
        return
      </CharString>
      <CharString index="81">
        13 hlineto
        12 6 4 9 hvcurveto
        85 32 vlineto
        8 3 5 12 hvcurveto
        7 vlineto
        12 -3 5 -8 vhcurveto
        -32 255 hlineto
        8 -6 5 -12 vhcurveto
        -11 hlineto
        -8 -9 -3 -5 -3 hvcurveto
        -155 -266 rlineto
        -1 -1 -2 -3 vvcurveto
        -11 7 -18 7 vhcurveto
        143 -85 hlineto
        -9 5 -4 12 vhcurveto
        -122 139 rmoveto
        107 187 3 -1 rlineto
        -3 -18 -2 -18 -34 vvcurveto
        -116 vlineto
        endchar
      </CharString>
      <CharString index="82">
        564 -66 callsubr
        return
      </CharString>
      <CharString index="83">
        -244 127 -76 callgsubr
        return
      </CharString>
      <CharString index="84">
        1 hlineto
        13 7 4 8 2 hvcurveto
        8 65 15 122 9 vvcurveto
        -2 callsubr
        -28 vhcurveto
        -10 hlineto
        -28 -12 -8 -14 hvcurveto
        -12 vlineto
        22 -184 rlineto
        -8 2 7 -4 13 hhcurveto
        return
      </CharString>
      <CharString index="85">
        -145 165 -9 -86 callsubr
        return
      </CharString>
      <CharString index="86">
        -23 callsubr
        -14 vhcurveto
        return
      </CharString>
      <CharString index="87">
        58 hmoveto
        463 hlineto
        17 9 11 19 hvcurveto
        3 vlineto
        12 -3 10 -3 12 vhcurveto
        -205 620 rlineto
        16 -6 -10 7 -14 hhcurveto
        -31 hlineto
        -15 -10 -7 -16 -5 hvcurveto
        -205 -620 rlineto
        -5 -14 -2 -9 -14 vvcurveto
        -2 vlineto
        -18 10 -10 15 vhcurveto
        61 68 rmoveto
        167 541 rlineto
        6 hlineto
        166 -541 rlineto
        endchar
      </CharString>
      <CharString index="88">
        rmoveto
        5 10 13 31 hhcurveto
        20 17 -9 -18 hvcurveto
        -50 -62 -13 -29 vvcurveto
        -9 24 -8 9 12 79 50 66 55 -57 16 -34 -35 -43 -18 36 callsubr
        return
      </CharString>
      <CharString index="89">
        -73 callsubr
        366 vlineto
        return
      </CharString>
      <CharString index="90">
        -4 -11 -6 hvcurveto
        -20 return
      </CharString>
      <CharString index="91">
        vvcurveto
        -7 6 return
      </CharString>
      <CharString index="92">
        -33 -13 -9 -13 hvcurveto
        36 callgsubr
        33 13 9 13 vhcurveto
        35 callsubr
        vhcurveto
        endchar
      </CharString>
      <CharString index="93">
        26 callgsubr
        8 6 9 5 return
      </CharString>
      <CharString index="94">
        rmoveto
        -40 callsubr
        return
      </CharString>
      <CharString index="95">
        hlineto
        -9 callsubr
        return
      </CharString>
      <CharString index="96">
        rmoveto
        16 7 3 7 9 -7 19 -31 73 hvcurveto
        19 -8 -22 7 -23 hhcurveto
        -24 -8 -3 -10 -10 7 -8 57 -88 hvcurveto
        -12 8 12 -6 16 hhcurveto
        return
      </CharString>
      <CharString index="97">
        rmoveto
        18 41 callgsubr
        8 5 hvcurveto
        38 58 39 -58 rlineto
        -8 6 8 -5 12 26 callgsubr
        8 6 8 4 -3 6 -5 8 hvcurveto
        -45 66 rlineto
        14 -10 -14 8 34 callsubr
        -12 -8 -14 -11 hvcurveto
        -45 -66 rlineto
        -5 -8 -2 -6 -4 vvcurveto
        -9 6 -5 13 vhcurveto
        return
      </CharString>
      <CharString index="98">
        -39 callsubr
        -26 vhcurveto
        return
      </CharString>
      <CharString index="99">
        -64 callgsubr
        endchar
      </CharString>
      <CharString index="100">
        14 -25 callsubr
        return
      </CharString>
      <CharString index="101">
        -32 callgsubr
        endchar
      </CharString>
      <CharString index="102">
        -76 rmoveto
        4 hlineto
        19 9 6 14 5 hvcurveto
        264 728 rlineto
        2 6 1 3 4 vvcurveto
        11 -7 7 -17 vhcurveto
        -6 hlineto
        -18 -10 -6 -14 -5 hvcurveto
        -264 -726 rlineto
        -2 -5 -1 -6 -4 vvcurveto
        -11 8 -7 18 vhcurveto
        endchar
      </CharString>
</ttFont>
